Rubik-Gemstones-Regular.ufo
<glyph name="exclam" format="2">
	<advance width="330"/>
	<unicode hex="0021"/>
	<outline>
		<contour>
			<point x="63.04" y="286.413" type="line"/>
			<point x="117.545" y="259.1" type="line"/>
			<point x="157.091" y="278" type="line"/>
			<point x="178.841" y="262.6" type="line"/>
			<point x="200.591" y="278" type="line"/>
			<point x="226.295" y="250.7" type="line"/>
			<point x="252" y="278" type="line"/>
			<point x="281.922" y="309.344" type="line"/>
			<point x="269" y="350.705" type="line"/>
			<point x="303" y="382.537" type="line"/>
			<point x="269" y="414.368" type="line"/>
			<point x="291" y="452.168" type="line"/>
			<point x="269" y="489.968" type="line"/>
			<point x="294" y="521.8" type="line"/>
			<point x="269" y="553.632" type="line"/>
			<point x="295" y="585.463" type="line"/>
			<point x="269" y="617.295" type="line"/>
			<point x="302" y="637.189" type="line"/>
			<point x="269" y="657.084" type="line"/>
			<point x="249.531" y="688.666" type="line"/>
			<point x="212.455" y="690" type="line"/>
			<point x="192.682" y="713" type="line"/>
			<point x="172.909" y="690" type="line"/>
			<point x="145.227" y="718" type="line"/>
			<point x="117.545" y="690" type="line"/>
			<point x="81.787" y="706.399" type="line"/>
			<point x="61" y="673" type="line"/>
			<point x="38" y="651.116" type="line"/>
			<point x="61" y="629.232" type="line"/>
			<point x="25" y="607.347" type="line"/>
			<point x="61" y="585.463" type="line"/>
			<point x="29" y="555.621" type="line"/>
			<point x="61" y="525.779" type="line"/>
			<point x="37" y="493.947" type="line"/>
			<point x="61" y="462.116" type="line"/>
			<point x="24" y="430.284" type="line"/>
			<point x="61" y="398.453" type="line"/>
			<point x="35" y="366.621" type="line"/>
			<point x="61" y="334.789" type="line"/>
			<point x="34.045" y="309.421" type="line"/>
		</contour>
		<contour>
			<point x="61.49" y="22.579" type="line"/>
			<point x="99.75" y="-15" type="line"/>
			<point x="121.5" y="10" type="line"/>
			<point x="141.273" y="-21" type="line"/>
			<point x="161.045" y="10" type="line"/>
			<point x="190.705" y="-16" type="line"/>
			<point x="220.364" y="10" type="line"/>
			<point x="254.569" y="18.557" type="line"/>
			<point x="269" y="50.727" type="line"/>
			<point x="300" y="76.432" type="line"/>
			<point x="269" y="102.136" type="line"/>
			<point x="307" y="141.682" type="line"/>
			<point x="269" y="181.227" type="line"/>
			<point x="259.114" y="214.747" type="line"/>
			<point x="224.318" y="218" type="line"/>
			<point x="202.568" y="240.4" type="line"/>
			<point x="180.818" y="218" type="line"/>
			<point x="145.227" y="240.4" type="line"/>
			<point x="109.636" y="218" type="line"/>
			<point x="74.342" y="214.131" type="line"/>
			<point x="61" y="181.227" type="line"/>
			<point x="33" y="145.636" type="line"/>
			<point x="61" y="110.045" type="line"/>
			<point x="41" y="88.295" type="line"/>
			<point x="61" y="66.545" type="line"/>
			<point x="34.247" y="44.261" type="line"/>
		</contour>
		<contour>
			<point x="93.119" y="674.774" type="line"/>
			<point x="100.245" y="663.213" type="line"/>
			<point x="85.71" y="658.22" type="line"/>
			<point x="74.104" y="668.294" type="line"/>
			<point x="83.351" y="679.969" type="line"/>
		</contour>
		<contour>
			<point x="136.738" y="165.495" type="line"/>
			<point x="131" y="152.608" type="line"/>
			<point x="114.963" y="151.853" type="line"/>
			<point x="114.951" y="167.474" type="line"/>
			<point x="126.254" y="174.934" type="line"/>
		</contour>
		<contour>
			<point x="209.819" y="392.564" type="line"/>
			<point x="182.312" y="323.164" type="line"/>
			<point x="109.611" y="328.594" type="line"/>
			<point x="105.989" y="392.127" type="line"/>
			<point x="151.245" y="437.915" type="line"/>
		</contour>
		<contour>
			<point x="175.878" y="39.389" type="line"/>
			<point x="174.573" y="25.639" type="line"/>
			<point x="158.969" y="28.649" type="line"/>
			<point x="159.911" y="41.945" type="line"/>
			<point x="169.392" y="47.903" type="line"/>
		</contour>
		<contour>
			<point x="241.495" y="78.818" type="line"/>
			<point x="236.851" y="67.544" type="line"/>
			<point x="225.506" y="61.218" type="line"/>
			<point x="218.097" y="74.584" type="line"/>
			<point x="229.474" y="80.853" type="line"/>
		</contour>
		<contour>
			<point x="200.406" y="536.432" type="line"/>
			<point x="217.874" y="513.404" type="line"/>
			<point x="205.982" y="486.334" type="line"/>
			<point x="183.11" y="500.294" type="line"/>
			<point x="175.947" y="522" type="line"/>
		</contour>
		<contour>
			<point x="87.469" y="492.867" type="line"/>
			<point x="88.181" y="479.897" type="line"/>
			<point x="72.375" y="478.259" type="line"/>
			<point x="69.375" y="492.847" type="line"/>
			<point x="79.634" y="496.99" type="line"/>
		</contour>
		<contour>
			<point x="246.202" y="147.684" type="line"/>
			<point x="246.196" y="140" type="line"/>
			<point x="239.753" y="137.131" type="line"/>
			<point x="234.038" y="142.268" type="line"/>
			<point x="238.56" y="148.481" type="line"/>
		</contour>
		<contour>
			<point x="248.561" y="632.547" type="line"/>
			<point x="250.285" y="621.483" type="line"/>
			<point x="240.693" y="610.057" type="line"/>
			<point x="231.282" y="622.526" type="line"/>
			<point x="237.88" y="631.857" type="line"/>
		</contour>
		<contour>
			<point x="139.315" y="499.326" type="line"/>
			<point x="136.58" y="480.438" type="line"/>
			<point x="117.183" y="482.865" type="line"/>
			<point x="110.783" y="499.944" type="line"/>
			<point x="126" y="510" type="line"/>
		</contour>
		<contour>
			<point x="195.462" y="572.782" type="line"/>
			<point x="201.999" y="568.14" type="line"/>
			<point x="196.93" y="559.49" type="line"/>
			<point x="186.812" y="562.584" type="line"/>
			<point x="186.628" y="573.162" type="line"/>
		</contour>
		<contour>
			<point x="241.526" y="466.5" type="line"/>
			<point x="244.633" y="449.625" type="line"/>
			<point x="223.865" y="442.729" type="line"/>
			<point x="215.093" y="462.777" type="line"/>
			<point x="229.713" y="471.76" type="line"/>
		</contour>
		<contour>
			<point x="227.965" y="187.186" type="line"/>
			<point x="220.231" y="167.423" type="line"/>
			<point x="199.102" y="165.436" type="line"/>
			<point x="200.437" y="183.924" type="line"/>
			<point x="209.738" y="195.998" type="line"/>
		</contour>
	</outline>
</glyph>
<glyph name="numbersign" format="2">
	<advance width="677"/>
	<unicode hex="0023"/>
	<outline>
		<contour>
			<point x="119.273" y="114.364" type="line"/>
			<point x="165" y="13" type="line"/>
			<point x="207" y="49" type="line"/>
			<point x="246.262" y="54.755" type="line"/>
			<point x="258.364" y="92.545" type="line"/>
			<point x="286.31" y="109.982" type="line"/>
			<point x="264.364" y="134.545" type="line"/>
			<point x="299.822" y="110.812" type="line"/>
			<point x="323.955" y="146" type="line"/>
			<point x="318.59" y="118.571" type="line"/>
			<point x="346.273" y="114.727" type="line"/>
			<point x="320.704" y="82.602" type="line"/>
			<point x="345.531" y="49.9" type="line"/>
			<point x="369.19" y="18.455" type="line"/>
			<point x="394" y="49" type="line"/>
			<point x="422" y="17" type="line"/>
			<point x="450" y="49" type="line"/>
			<point x="486.474" y="67.11" type="line"/>
			<point x="487.545" y="107.818" type="line"/>
			<point x="519.81" y="113.278" type="line"/>
			<point x="520.125" y="146" type="line"/>
			<point x="558.879" y="108.299" type="line"/>
			<point x="594.973" y="148.553" type="line"/>
			<point x="621.902" y="182.259" type="line"/>
			<point x="601" y="220" type="line"/>
			<point x="622" y="241.633" type="line"/>
			<point x="601" y="263.267" type="line"/>
			<point x="598.657" y="288.301" type="line"/>
			<point x="574.167" y="294" type="line"/>
			<point x="544.583" y="317.8" type="line"/>
			<point x="515" y="294" type="line"/>
			<point x="555.537" y="307.958" type="line"/>
			<point x="520.926" y="333.259" type="line"/>
			<point x="560.967" y="357.331" type="line"/>
			<point x="529.815" y="392.148" type="line"/>
			<point x="558.76" y="374.624" type="line"/>
			<point x="581.143" y="400" type="line"/>
			<point x="613.961" y="396.478" type="line"/>
			<point x="627" y="426.8" type="line"/>
			<point x="647" y="458.267" type="line"/>
			<point x="627" y="489.733" type="line"/>
			<point x="658.879" y="521.198" type="line"/>
			<point x="621.144" y="545.329" type="line"/>
			<point x="595.225" y="579.531" type="line"/>
			<point x="555.364" y="563.636" type="line"/>
			<point x="582.435" y="595.53" type="line"/>
			<point x="566" y="634" type="line"/>
			<point x="544.346" y="660.045" type="line"/>
			<point x="514" y="645" type="line"/>
			<point x="492" y="672" type="line"/>
			<point x="470" y="645" type="line"/>
			<point x="443.113" y="663.168" type="line"/>
			<point x="425.073" y="636.195" type="line"/>
			<point x="400.163" y="604.757" type="line"/>
			<point x="413.955" y="567.091" type="line"/>
			<point x="378.917" y="581.075" type="line"/>
			<point x="360.773" y="548" type="line"/>
			<point x="363.812" y="581.416" type="line"/>
			<point x="333.091" y="594.909" type="line"/>
			<point x="332.249" y="630.982" type="line"/>
			<point x="299" y="645" type="line"/>
			<point x="267" y="683" type="line"/>
			<point x="235" y="645" type="line"/>
			<point x="197.845" y="635.491" type="line"/>
			<point x="191.682" y="597.636" type="line"/>
			<point x="159.478" y="579.163" type="line"/>
			<point x="184.591" y="551.818" type="line"/>
			<point x="162.988" y="569.816" type="line"/>
			<point x="145.25" y="548" type="line"/>
			<point x="110.208" y="564.995" type="line"/>
			<point x="78.671" y="542.144" type="line"/>
			<point x="53.352" y="506.994" type="line"/>
			<point x="76" y="470.067" type="line"/>
			<point x="39" y="444.5" type="line"/>
			<point x="76" y="418.933" type="line"/>
			<point x="106.738" y="393.246" type="line"/>
			<point x="146.222" y="400" type="line"/>
			<point x="120.067" y="370.836" type="line"/>
			<point x="154.889" y="352.889" type="line"/>
			<point x="112.353" y="331.272" type="line"/>
			<point x="142.143" y="294" type="line"/>
			<point x="109.357" y="312.2" type="line"/>
			<point x="76.571" y="294" type="line"/>
			<point x="47.876" y="295.878" type="line"/>
			<point x="50" y="267.2" type="line"/>
			<point x="21" y="231.8" type="line"/>
			<point x="50" y="196.4" type="line"/>
			<point x="52.628" y="158.431" type="line"/>
			<point x="88.6" y="146" type="line"/>
			<point x="75.936" y="103.034" type="line"/>
		</contour>
		<contour>
			<point x="318.909" y="294" type="line"/>
			<point x="305.014" y="311.509" type="line"/>
			<point x="293.926" y="333.259" type="line"/>
			<point x="307.064" y="351.353" type="line"/>
			<point x="299.852" y="372.519" type="line"/>
			<point x="321.328" y="378.467" type="line"/>
			<point x="315.591" y="400" type="line"/>
			<point x="334.909" y="389.22" type="line"/>
			<point x="354.227" y="400" type="line"/>
			<point x="370.143" y="387.814" type="line"/>
			<point x="388.407" y="396.074" type="line"/>
			<point x="370.425" y="378.712" type="line"/>
			<point x="382.481" y="356.815" type="line"/>
			<point x="365.952" y="339.233" type="line"/>
			<point x="376.556" y="317.556" type="line"/>
			<point x="358.28" y="312.856" type="line"/>
			<point x="357.545" y="294" type="line"/>
			<point x="338.227" y="312.62" type="line"/>
		</contour>
		<contour>
			<point x="192.837" y="303.978" type="line"/>
			<point x="202.625" y="290.847" type="line"/>
			<point x="201.804" y="272.904" type="line"/>
			<point x="179.414" y="272.457" type="line"/>
			<point x="179.863" y="292.659" type="line"/>
		</contour>
		<contour>
			<point x="411.017" y="229.07" type="line"/>
			<point x="415.986" y="215.477" type="line"/>
			<point x="408.588" y="206.341" type="line"/>
			<point x="394.259" y="208.375" type="line"/>
			<point x="399.006" y="221.664" type="line"/>
		</contour>
		<contour>
			<point x="391.679" y="514.343" type="line"/>
			<point x="377.756" y="489.82" type="line"/>
			<point x="353.657" y="489.011" type="line"/>
			<point x="336.517" y="515.58" type="line"/>
			<point x="366" y="531" type="line"/>
		</contour>
		<contour>
			<point x="233.778" y="355.757" type="line"/>
			<point x="258.728" y="343.897" type="line"/>
			<point x="242.398" y="316.631" type="line"/>
			<point x="212.297" y="321.939" type="line"/>
			<point x="212.458" y="349.859" type="line"/>
		</contour>
		<contour>
			<point x="529.377" y="247.894" type="line"/>
			<point x="519.994" y="210.849" type="line"/>
			<point x="482.004" y="206.713" type="line"/>
			<point x="473.666" y="240.849" type="line"/>
			<point x="496.124" y="267.874" type="line"/>
		</contour>
		<contour>
			<point x="145.664" y="186.994" type="line"/>
			<point x="145.601" y="177.85" type="line"/>
			<point x="139.581" y="172.011" type="line"/>
			<point x="134.204" y="178.447" type="line"/>
			<point x="135.643" y="186.709" type="line"/>
		</contour>
		<contour>
			<point x="483.66" y="503" type="line"/>
			<point x="483.918" y="489.97" type="line"/>
			<point x="469.712" y="486.124" type="line"/>
			<point x="463.066" y="499.254" type="line"/>
			<point x="471.466" y="514.629" type="line"/>
		</contour>
		<contour>
			<point x="190.222" y="137.584" type="line"/>
			<point x="202.856" y="121.163" type="line"/>
			<point x="182.633" y="107.003" type="line"/>
			<point x="162.918" y="121.86" type="line"/>
			<point x="173.823" y="141.106" type="line"/>
		</contour>
		<contour>
			<point x="235.035" y="222.217" type="line"/>
			<point x="239.336" y="212.416" type="line"/>
			<point x="229.32" y="203.018" type="line"/>
			<point x="217.443" y="212.635" type="line"/>
			<point x="224.554" y="224.387" type="line"/>
		</contour>
		<contour>
			<point x="266.535" y="610.308" type="line"/>
			<point x="262.27" y="596.223" type="line"/>
			<point x="245.149" y="594.392" type="line"/>
			<point x="235.266" y="614.182" type="line"/>
			<point x="255.733" y="627.987" type="line"/>
		</contour>
		<contour>
			<point x="201.663" y="441.825" type="line"/>
			<point x="208.951" y="434.941" type="line"/>
			<point x="202.847" y="427.605" type="line"/>
			<point x="192.569" y="427.309" type="line"/>
			<point x="193.072" y="438" type="line"/>
		</contour>
		<contour>
			<point x="448.293" y="421.771" type="line"/>
			<point x="448.535" y="411.491" type="line"/>
			<point x="441.477" y="404.014" type="line"/>
			<point x="434.273" y="411.929" type="line"/>
			<point x="438.732" y="419.032" type="line"/>
		</contour>
		<contour>
			<point x="520.387" y="449.659" type="line"/>
			<point x="509.536" y="434.936" type="line"/>
			<point x="493.56" y="433.343" type="line"/>
			<point x="485.262" y="451.809" type="line"/>
			<point x="503.68" y="457.982" type="line"/>
		</contour>
		<contour>
			<point x="357.462" y="429.399" type="line"/>
			<point x="354.641" y="415.483" type="line"/>
			<point x="340.534" y="417.101" type="line"/>
			<point x="334.636" y="430.017" type="line"/>
			<point x="347" y="441" type="line"/>
		</contour>
		<contour>
			<point x="231.457" y="85.078" type="line"/>
			<point x="229.157" y="74.12" type="line"/>
			<point x="217.408" y="73.71" type="line"/>
			<point x="209.542" y="85.859" type="line"/>
			<point x="222.616" y="92.993" type="line"/>
		</contour>
		<contour>
			<point x="590.067" y="231.135" type="line"/>
			<point x="593.956" y="221.164" type="line"/>
			<point x="587.871" y="213.197" type="line"/>
			<point x="578.206" y="217.5" type="line"/>
			<point x="580.798" y="226.684" type="line"/>
		</contour>
		<contour>
			<point x="156.319" y="502.581" type="line"/>
			<point x="180.631" y="473.693" type="line"/>
			<point x="165.528" y="440.488" type="line"/>
			<point x="131.908" y="449.908" type="line"/>
			<point x="120.706" y="484.436" type="line"/>
		</contour>
		<contour>
			<point x="515.996" y="597.454" type="line"/>
			<point x="500.093" y="567.689" type="line"/>
			<point x="469.235" y="581.353" type="line"/>
			<point x="464.606" y="614.781" type="line"/>
			<point x="502.28" y="637.165" type="line"/>
		</contour>
		<contour>
			<point x="418.455" y="269.847" type="line"/>
			<point x="422.967" y="263.627" type="line"/>
			<point x="419.847" y="256.605" type="line"/>
			<point x="411.798" y="258.316" type="line"/>
			<point x="410.938" y="266.5" type="line"/>
		</contour>
		<contour>
			<point x="395.678" y="187.301" type="line"/>
			<point x="407.997" y="172.297" type="line"/>
			<point x="397.186" y="154.035" type="line"/>
			<point x="377.423" y="161.769" type="line"/>
			<point x="381.989" y="178.309" type="line"/>
		</contour>
	</outline>
</glyph>
<glyph name="ampersand" format="2">
	<advance width="783"/>
	<unicode hex="0026"/>
	<outline>
		<contour>
			<point x="238.876" y="14.973" type="line"/>
			<point x="334.252" y="-23.278" type="line"/>
			<point x="355.342" y="11.41" type="line"/>
			<point x="388.671" y="-6.783" type="line"/>
			<point x="415.081" y="20.5" type="line"/>
			<point x="445.99" y="-6.82" type="line"/>
			<point x="453.103" y="33.814" type="line"/>
			<point x="491.037" y="14.599" type="line"/>
			<point x="498.923" y="56.385" type="line"/>
			<point x="501.125" y="23.552" type="line"/>
			<point x="534" y="25" type="line"/>
			<point x="554.892" y="-7.339" type="line"/>
			<point x="582" y="20" type="line"/>
			<point x="614" y="-1" type="line"/>
			<point x="646" y="20" type="line"/>
			<point x="672" y="0" type="line"/>
			<point x="698" y="20" type="line"/>
			<point x="721.511" y="-19.062" type="line"/>
			<point x="745.229" y="19.875" type="line"/>
			<point x="753.805" y="61.413" type="line"/>
			<point x="711.979" y="54.375" type="line"/>
			<point x="716.18" y="88.924" type="line"/>
			<point x="681.5" y="86" type="line"/>
			<point x="677.279" y="123.523" type="line"/>
			<point x="639.937" y="129.125" type="line"/>
			<point x="662.06" y="155.083" type="line"/>
			<point x="634.523" y="175.208" type="line"/>
			<point x="688.474" y="183.469" type="line"/>
			<point x="684.603" y="237.911" type="line"/>
			<point x="726.722" y="254.01" type="line"/>
			<point x="723.195" y="298.962" type="line"/>
			<point x="766.448" y="310.016" type="line"/>
			<point x="740.026" y="346" type="line"/>
			<point x="708.237" y="374" type="line"/>
			<point x="676.447" y="346" type="line"/>
			<point x="634.724" y="370" type="line"/>
			<point x="593" y="346" type="line"/>
			<point x="551.038" y="328.128" type="line"/>
			<point x="556.283" y="282.821" type="line"/>
			<point x="521.389" y="298.312" type="line"/>
			<point x="506.692" y="263.077" type="line"/>
			<point x="509.101" y="295.306" type="line"/>
			<point x="476.795" y="294.385" type="line"/>
			<point x="468.967" y="335.885" type="line"/>
			<point x="427.872" y="345.615" type="line"/>
			<point x="450.068" y="349.849" type="line"/>
			<point x="441.49" y="370.754" type="line"/>
			<point x="486.949" y="379.932" type="line"/>
			<point x="509.137" y="420.655" type="line"/>
			<point x="534.411" y="428.522" type="line"/>
			<point x="536.827" y="454.881" type="line"/>
			<point x="581.47" y="471.219" type="line"/>
			<point x="556.056" y="511.394" type="line"/>
			<point x="572.227" y="552.896" type="line"/>
			<point x="544.86" y="588.037" type="line"/>
			<point x="554.632" y="632.408" type="line"/>
			<point x="509.409" y="636.783" type="line"/>
			<point x="508.096" y="669.677" type="line"/>
			<point x="476.551" y="660.263" type="line"/>
			<point x="470.173" y="702.085" type="line"/>
			<point x="435.645" y="677.64" type="line"/>
			<point x="410.667" y="720.813" type="line"/>
			<point x="372.075" y="689.215" type="line"/>
			<point x="331.21" y="716.648" type="line"/>
			<point x="292.599" y="686.125" type="line"/>
			<point x="243.299" y="711.311" type="line"/>
			<point x="215.311" y="663.547" type="line"/>
			<point x="168.192" y="678.048" type="line"/>
			<point x="166.013" y="628.796" type="line"/>
			<point x="130.556" y="612.86" type="line"/>
			<point x="132.684" y="574.045" type="line"/>
			<point x="106.097" y="550.224" type="line"/>
			<point x="125.058" y="519.978" type="line"/>
			<point x="117.811" y="476.053" type="line"/>
			<point x="148.749" y="444.042" type="line"/>
			<point x="139.529" y="401.957" type="line"/>
			<point x="170.513" y="372.023" type="line"/>
			<point x="119.352" y="373.993" type="line"/>
			<point x="106.241" y="324.502" type="line"/>
			<point x="67.856" y="304.635" type="line"/>
			<point x="64.467" y="261.546" type="line"/>
			<point x="35.584" y="235.362" type="line"/>
			<point x="54" y="201" type="line"/>
			<point x="27.34" y="171.463" type="line"/>
			<point x="60.25" y="149.101" type="line"/>
			<point x="49.528" y="97.799" type="line"/>
			<point x="98.485" y="79.091" type="line"/>
			<point x="112.997" y="32.87" type="line"/>
			<point x="161.328" y="36.21" type="line"/>
			<point x="194.291" y="4.373" type="line"/>
		</contour>
		<contour>
			<point x="341.112" y="138.795" type="line"/>
			<point x="294.296" y="153.199" type="line"/>
			<point x="271.701" y="147.642" type="line"/>
			<point x="266.253" y="171.314" type="line"/>
			<point x="242.411" y="175.966" type="line"/>
			<point x="249.138" y="199.052" type="line"/>
			<point x="232.132" y="216.052" type="line"/>
			<point x="251.42" y="230.34" type="line"/>
			<point x="245.848" y="253.688" type="line"/>
			<point x="271.267" y="254.399" type="line"/>
			<point x="276.666" y="279.248" type="line"/>
			<point x="284.703" y="256.399" type="line"/>
			<point x="307.951" y="263.195" type="line"/>
			<point x="309.097" y="237.192" type="line"/>
			<point x="335.024" y="234.902" type="line"/>
			<point x="339.356" y="211.948" type="line"/>
			<point x="362.098" y="206.61" type="line"/>
			<point x="364.305" y="181.623" type="line"/>
			<point x="389.171" y="178.317" type="line"/>
			<point x="375.526" y="167.86" type="line"/>
			<point x="380.546" y="151.418" type="line"/>
			<point x="357.393" y="155.84" type="line"/>
		</contour>
		<contour>
			<point x="384.804" y="478.033" type="line"/>
			<point x="337.518" y="478.853" type="line"/>
			<point x="313.21" y="468.915" type="line"/>
			<point x="316.629" y="493.779" type="line"/>
			<point x="293.584" y="503.72" type="line"/>
			<point x="308.937" y="522.83" type="line"/>
			<point x="295.918" y="543.6" type="line"/>
			<point x="319.937" y="547.708" type="line"/>
			<point x="323.728" y="571.779" type="line"/>
			<point x="345.05" y="558.252" type="line"/>
			<point x="363.941" y="575.007" type="line"/>
			<point x="372.894" y="553.63" type="line"/>
			<point x="396.029" y="552.231" type="line"/>
			<point x="388.725" y="530.097" type="line"/>
			<point x="404.423" y="512.867" type="line"/>
			<point x="377.963" y="504.828" type="line"/>
		</contour>
		<contour>
			<point x="264.084" y="431.718" type="line"/>
			<point x="247.142" y="392.55" type="line"/>
			<point x="207.712" y="372.453" type="line"/>
			<point x="198.282" y="416.036" type="line"/>
			<point x="220.922" y="446.468" type="line"/>
		</contour>
		<contour>
			<point x="593.881" y="205.95" type="line"/>
			<point x="586.452" y="185.874" type="line"/>
			<point x="566.298" y="193.088" type="line"/>
			<point x="565.755" y="210.787" type="line"/>
			<point x="582.389" y="226.577" type="line"/>
		</contour>
		<contour>
			<point x="405.903" y="480.644" type="line"/>
			<point x="418.961" y="470.116" type="line"/>
			<point x="409.368" y="453.238" type="line"/>
			<point x="396.106" y="463.215" type="line"/>
			<point x="394.52" y="474.299" type="line"/>
		</contour>
		<contour>
			<point x="353.387" y="376.732" type="line"/>
			<point x="405.934" y="352.067" type="line"/>
			<point x="370.332" y="302.517" type="line"/>
			<point x="313.536" y="302.97" type="line"/>
			<point x="304.591" y="361.708" type="line"/>
		</contour>
		<contour>
			<point x="139.489" y="157.575" type="line"/>
			<point x="132.552" y="127.632" type="line"/>
			<point x="102.744" y="117.717" type="line"/>
			<point x="91.179" y="146.925" type="line"/>
			<point x="106.795" y="186.21" type="line"/>
		</contour>
		<contour>
			<point x="211.106" y="193.177" type="line"/>
			<point x="210.778" y="174.371" type="line"/>
			<point x="192.465" y="167.926" type="line"/>
			<point x="177.003" y="184.367" type="line"/>
			<point x="193.03" y="200.257" type="line"/>
		</contour>
		<contour>
			<point x="313.449" y="87.724" type="line"/>
			<point x="300.484" y="52.263" type="line"/>
			<point x="264.904" y="61.522" type="line"/>
			<point x="244.122" y="100.595" type="line"/>
			<point x="287.169" y="107.806" type="line"/>
		</contour>
		<contour>
			<point x="447.607" y="270.829" type="line"/>
			<point x="449.396" y="252.534" type="line"/>
			<point x="431.554" y="250.784" type="line"/>
			<point x="427.005" y="263.314" type="line"/>
			<point x="431.314" y="279.341" type="line"/>
		</contour>
		<contour>
			<point x="647.704" y="326.753" type="line"/>
			<point x="667.454" y="287.198" type="line"/>
			<point x="656" y="259.483" type="line"/>
			<point x="614.897" y="250.788" type="line"/>
			<point x="614.68" y="294.609" type="line"/>
		</contour>
		<contour>
			<point x="226.524" y="609.673" type="line"/>
			<point x="248.982" y="587.953" type="line"/>
			<point x="229.199" y="553.433" type="line"/>
			<point x="185.009" y="566.073" type="line"/>
			<point x="196.936" y="606.239" type="line"/>
		</contour>
		<contour>
			<point x="389.143" y="630.695" type="line"/>
			<point x="391.585" y="612.191" type="line"/>
			<point x="371.748" y="609.272" type="line"/>
			<point x="366.046" y="625.046" type="line"/>
			<point x="374.626" y="638.616" type="line"/>
		</contour>
		<contour>
			<point x="504.628" y="78.978" type="line"/>
			<point x="510.792" y="71.693" type="line"/>
			<point x="510.359" y="59.823" type="line"/>
			<point x="497.572" y="62.34" type="line"/>
			<point x="493.801" y="74.121" type="line"/>
		</contour>
		<contour>
			<point x="284.583" y="659.902" type="line"/>
			<point x="285.728" y="641.272" type="line"/>
			<point x="267.552" y="643.308" type="line"/>
			<point x="260.16" y="656.034" type="line"/>
			<point x="269.715" y="674.741" type="line"/>
		</contour>
		<contour>
			<point x="571.025" y="93.769" type="line"/>
			<point x="578.962" y="85.872" type="line"/>
			<point x="571.735" y="78.556" type="line"/>
			<point x="561.453" y="78.439" type="line"/>
			<point x="563.857" y="88.09" type="line"/>
		</contour>
		<contour>
			<point x="216.156" y="283.788" type="line"/>
			<point x="214.082" y="264.816" type="line"/>
			<point x="195.171" y="267.393" type="line"/>
			<point x="186.659" y="283.686" type="line"/>
			<point x="202.372" y="296.989" type="line"/>
		</contour>
		<contour>
			<point x="347.276" y="664.104" type="line"/>
			<point x="346.466" y="646.604" type="line"/>
			<point x="330.408" y="651.71" type="line"/>
			<point x="326.387" y="662.756" type="line"/>
			<point x="335.651" y="669.994" type="line"/>
		</contour>
	</outline>
</glyph>
<glyph name="quotesingle" format="2">
	<advance width="264"/>
	<unicode hex="0027"/>
	<outline>
		<contour>
			<point x="71.404" y="425.104" type="line"/>
			<point x="112.476" y="396" type="line"/>
			<point x="133.952" y="418" type="line"/>
			<point x="155.72" y="385.08" type="line"/>
			<point x="177.243" y="418.16" type="line"/>
			<point x="213.079" y="440.02" type="line"/>
			<point x="202.576" y="480.661" type="line"/>
			<point x="240.471" y="512.459" type="line"/>
			<point x="210.814" y="552.051" type="line"/>
			<point x="237.172" y="571.113" type="line"/>
			<point x="215.847" y="595.678" type="line"/>
			<point x="245.108" y="622.444" type="line"/>
			<point x="222.712" y="655.169" type="line"/>
			<point x="226.276" y="682.977" type="line"/>
			<point x="204" y="700" type="line"/>
			<point x="176" y="724" type="line"/>
			<point x="148" y="700" type="line"/>
			<point x="118" y="728" type="line"/>
			<point x="88" y="700" type="line"/>
			<point x="63.611" y="722.824" type="line"/>
			<point x="43.886" y="695.867" type="line"/>
			<point x="23.504" y="667.857" type="line"/>
			<point x="43.119" y="639.305" type="line"/>
			<point x="8.651" y="615.233" type="line"/>
			<point x="47.695" y="599.644" type="line"/>
			<point x="30.187" y="559.444" type="line"/>
			<point x="56.39" y="524.288" type="line"/>
			<point x="36.974" y="491.906" type="line"/>
			<point x="63.254" y="464.797" type="line"/>
			<point x="43.819" y="440.124" type="line"/>
		</contour>
		<contour>
			<point x="112.814" y="574.937" type="line"/>
			<point x="128.465" y="553.355" type="line"/>
			<point x="129.017" y="520.166" type="line"/>
			<point x="98.144" y="533.679" type="line"/>
			<point x="81.33" y="560.987" type="line"/>
		</contour>
		<contour>
			<point x="180.994" y="565.801" type="line"/>
			<point x="190.815" y="553.653" type="line"/>
			<point x="177.721" y="545.135" type="line"/>
			<point x="163.526" y="549.644" type="line"/>
			<point x="165.393" y="566.607" type="line"/>
		</contour>
		<contour>
			<point x="182.239" y="483.548" type="line"/>
			<point x="180.746" y="469.152" type="line"/>
			<point x="170.092" y="464.184" type="line"/>
			<point x="162.075" y="472.781" type="line"/>
			<point x="166.506" y="485.782" type="line"/>
		</contour>
		<contour>
			<point x="87.837" y="632.971" type="line"/>
			<point x="98.644" y="623.903" type="line"/>
			<point x="90.709" y="615.064" type="line"/>
			<point x="81.215" y="614.106" type="line"/>
			<point x="81.437" y="623.248" type="line"/>
		</contour>
		<contour>
			<point x="201.402" y="654.225" type="line"/>
			<point x="196.776" y="646.337" type="line"/>
			<point x="189.732" y="645.968" type="line"/>
			<point x="183.341" y="653.588" type="line"/>
			<point x="192.372" y="662.984" type="line"/>
		</contour>
		<contour>
			<point x="119.66" y="458.766" type="line"/>
			<point x="116.771" y="432.362" type="line"/>
			<point x="95.442" y="431.763" type="line"/>
			<point x="84.002" y="445.279" type="line"/>
			<point x="96.199" y="457.432" type="line"/>
		</contour>
	</outline>
</glyph>
<glyph name="parenleft" format="2">
	<advance width="423"/>
	<unicode hex="0028"/>
	<outline>
		<contour>
			<point x="361.008" y="-148.801" type="line"/>
			<point x="402.721" y="-124.339" type="line"/>
			<point x="391" y="-88.344" type="line"/>
			<point x="429" y="-64.531" type="line"/>
			<point x="391" y="-40.719" type="line"/>
			<point x="409.528" y="-8.32" type="line"/>
			<point x="377.688" y="11.154" type="line"/>
			<point x="356.566" y="50.566" type="line"/>
			<point x="316.364" y="30.987" type="line"/>
			<point x="317.051" y="68.445" type="line"/>
			<point x="279.594" y="67.679" type="line"/>
			<point x="291.257" y="96.713" type="line"/>
			<point x="260.619" y="103.063" type="line"/>
			<point x="283.644" y="135.85" type="line"/>
			<point x="245.777" y="148.937" type="line"/>
			<point x="269.158" y="193.3" type="line"/>
			<point x="233.27" y="228.326" type="line"/>
			<point x="267.646" y="275.962" type="line"/>
			<point x="230.064" y="321.112" type="line"/>
			<point x="264.894" y="344.12" type="line"/>
			<point x="231.765" y="369.516" type="line"/>
			<point x="273.662" y="401.248" type="line"/>
			<point x="240.056" y="441.658" type="line"/>
			<point x="275.752" y="469.405" type="line"/>
			<point x="259.406" y="511.558" type="line"/>
			<point x="310.871" y="524.725" type="line"/>
			<point x="304.603" y="577.477" type="line"/>
			<point x="339.157" y="567.08" type="line"/>
			<point x="350.926" y="601.19" type="line"/>
			<point x="386.953" y="618.119" type="line"/>
			<point x="391" y="657.719" type="line"/>
			<point x="424" y="679.547" type="line"/>
			<point x="391" y="701.375" type="line"/>
			<point x="417" y="723.203" type="line"/>
			<point x="391" y="745.031" type="line"/>
			<point x="386.697" y="774.956" type="line"/>
			<point x="357.918" y="765.696" type="line"/>
			<point x="323.418" y="800.882" type="line"/>
			<point x="298.096" y="758.609" type="line"/>
			<point x="267.736" y="776.914" type="line"/>
			<point x="251.784" y="745.255" type="line"/>
			<point x="219.678" y="756.467" type="line"/>
			<point x="208.341" y="724.404" type="line"/>
			<point x="169.683" y="729.284" type="line"/>
			<point x="163.273" y="690.849" type="line"/>
			<point x="116.846" y="697.686" type="line"/>
			<point x="128.23" y="652.16" type="line"/>
			<point x="77.826" y="637.719" type="line"/>
			<point x="89.362" y="586.571" type="line"/>
			<point x="48.578" y="558.457" type="line"/>
			<point x="62.439" y="510.901" type="line"/>
			<point x="36.242" y="483.56" type="line"/>
			<point x="49.185" y="447.975" type="line"/>
			<point x="17.087" y="410.975" type="line"/>
			<point x="40.675" y="368.046" type="line"/>
			<point x="12.935" y="329.002" type="line"/>
			<point x="39.186" y="288.943" type="line"/>
			<point x="13.884" y="245.16" type="line"/>
			<point x="44.473" y="204.893" type="line"/>
			<point x="11.446" y="169.425" type="line"/>
			<point x="53.55" y="145.424" type="line"/>
			<point x="27.309" y="96.825" type="line"/>
			<point x="74.441" y="68.033" type="line"/>
			<point x="61.563" y="41.197" type="line"/>
			<point x="89.476" y="30.857" type="line"/>
			<point x="71.562" y="-3.629" type="line"/>
			<point x="110.166" y="-8.088" type="line"/>
			<point x="98.494" y="-54.297" type="line"/>
			<point x="146.115" y="-56.23" type="line"/>
			<point x="145.779" y="-88.813" type="line"/>
			<point x="178.273" y="-86.379" type="line"/>
			<point x="180.395" y="-122.741" type="line"/>
			<point x="214.861" y="-110.958" type="line"/>
			<point x="234.048" y="-148.192" type="line"/>
			<point x="273.989" y="-135.573" type="line"/>
			<point x="292.975" y="-162.066" type="line"/>
			<point x="321.049" y="-145.508" type="line"/>
			<point x="338.646" y="-176.056" type="line"/>
		</contour>
		<contour>
			<point x="169.298" y="227.817" type="line"/>
			<point x="170.474" y="218.748" type="line"/>
			<point x="160.055" y="216.911" type="line"/>
			<point x="155.088" y="226.253" type="line"/>
			<point x="162.264" y="234.848" type="line"/>
		</contour>
		<contour>
			<point x="263.951" y="682.901" type="line"/>
			<point x="289.915" y="649.441" type="line"/>
			<point x="267.737" y="615.476" type="line"/>
			<point x="220.528" y="618.075" type="line"/>
			<point x="224.47" y="666.077" type="line"/>
		</contour>
		<contour>
			<point x="156.863" y="45.613" type="line"/>
			<point x="140.541" y="23.816" type="line"/>
			<point x="113.421" y="26.272" type="line"/>
			<point x="103.421" y="59.5" type="line"/>
			<point x="138.861" y="75.279" type="line"/>
		</contour>
		<contour>
			<point x="197.335" y="407.397" type="line"/>
			<point x="188.542" y="371.141" type="line"/>
			<point x="165.832" y="357.365" type="line"/>
			<point x="138.311" y="376.546" type="line"/>
			<point x="155.095" y="411.559" type="line"/>
		</contour>
		<contour>
			<point x="179.672" y="-14.881" type="line"/>
			<point x="171" y="-28.392" type="line"/>
			<point x="157.64" y="-26.175" type="line"/>
			<point x="149.47" y="-11.085" type="line"/>
			<point x="166.777" y="-1.093" type="line"/>
		</contour>
		<contour>
			<point x="225.067" y="118.68" type="line"/>
			<point x="237.791" y="95.659" type="line"/>
			<point x="229.626" y="76.071" type="line"/>
			<point x="203.322" y="75.322" type="line"/>
			<point x="201.398" y="102.988" type="line"/>
		</contour>
		<contour>
			<point x="285.557" y="25.365" type="line"/>
			<point x="280.625" y="10.259" type="line"/>
			<point x="259.784" y="5.68" type="line"/>
			<point x="256.196" y="28.451" type="line"/>
			<point x="273.994" y="40.974" type="line"/>
		</contour>
		<contour>
			<point x="215.986" y="234.523" type="line"/>
			<point x="209.584" y="224.664" type="line"/>
			<point x="193.566" y="223.931" type="line"/>
			<point x="193.42" y="242.17" type="line"/>
			<point x="209.106" y="245.591" type="line"/>
		</contour>
		<contour>
			<point x="194.074" y="565.308" type="line"/>
			<point x="211.909" y="541.092" type="line"/>
			<point x="196.596" y="518.749" type="line"/>
			<point x="170.642" y="523.911" type="line"/>
			<point x="165.714" y="552.391" type="line"/>
		</contour>
		<contour>
			<point x="65.387" y="300.446" type="line"/>
			<point x="65.549" y="288.077" type="line"/>
			<point x="52.341" y="282.863" type="line"/>
			<point x="44.018" y="295.68" type="line"/>
			<point x="54.153" y="305.625" type="line"/>
		</contour>
		<contour>
			<point x="109.678" y="533.301" type="line"/>
			<point x="123.997" y="518.332" type="line"/>
			<point x="110.86" y="500.981" type="line"/>
			<point x="89.027" y="505.964" type="line"/>
			<point x="84.521" y="532.339" type="line"/>
		</contour>
		<contour>
			<point x="345.991" y="745.523" type="line"/>
			<point x="334.762" y="734.663" type="line"/>
			<point x="322.332" y="738.228" type="line"/>
			<point x="319.393" y="752.829" type="line"/>
			<point x="333.205" y="752.69" type="line"/>
		</contour>
		<contour>
			<point x="87" y="164" type="line"/>
			<point x="80.163" y="157.343" type="line"/>
			<point x="70.719" y="158.71" type="line"/>
			<point x="70.719" y="169.29" type="line"/>
			<point x="79.854" y="169.706" type="line"/>
		</contour>
		<contour>
			<point x="286.709" y="-109.064" type="line"/>
			<point x="290.762" y="-116.935" type="line"/>
			<point x="283.349" y="-119.988" type="line"/>
			<point x="275.583" y="-117.997" type="line"/>
			<point x="277.858" y="-108.872" type="line"/>
		</contour>
	</outline>
</glyph>
<glyph name="parenright" format="2">
	<advance width="423"/>
	<unicode hex="0029"/>
	<outline>
		<contour>
			<point x="32" y="-112.156" type="line"/>
			<point x="76.97" y="-176.245" type="line"/>
			<point x="101.182" y="-145.612" type="line"/>
			<point x="144.974" y="-171.784" type="line"/>
			<point x="171.326" y="-128.101" type="line"/>
			<point x="208.569" y="-139.639" type="line"/>
			<point x="221.621" y="-102.899" type="line"/>
			<point x="258.22" y="-107.25" type="line"/>
			<point x="262.745" y="-70.672" type="line"/>
			<point x="303.031" y="-59.777" type="line"/>
			<point x="306.417" y="-18.182" type="line"/>
			<point x="355.997" y="-3.372" type="line"/>
			<point x="340.07" y="45.861" type="line"/>
			<point x="383.307" y="53.881" type="line"/>
			<point x="354.995" y="87.529" type="line"/>
			<point x="382.851" y="118.105" type="line"/>
			<point x="371.799" y="157.964" type="line"/>
			<point x="409.621" y="174.828" type="line"/>
			<point x="378.173" y="201.772" type="line"/>
			<point x="415.985" y="220.647" type="line"/>
			<point x="382.077" y="245.873" type="line"/>
			<point x="419.962" y="268.611" type="line"/>
			<point x="383.899" y="294.139" type="line"/>
			<point x="411.075" y="332.217" type="line"/>
			<point x="382.264" y="369.073" type="line"/>
			<point x="404.825" y="411.785" type="line"/>
			<point x="373.696" y="448.722" type="line"/>
			<point x="387.063" y="486.421" type="line"/>
			<point x="359.37" y="515.284" type="line"/>
			<point x="374.49" y="543.314" type="line"/>
			<point x="345.834" y="557.212" type="line"/>
			<point x="363.777" y="605.628" type="line"/>
			<point x="314.894" y="622.255" type="line"/>
			<point x="335.006" y="660.208" type="line"/>
			<point x="292.33" y="655.339" type="line"/>
			<point x="281.12" y="701.101" type="line"/>
			<point x="235.059" y="711.011" type="line"/>
			<point x="226.199" y="743.058" type="line"/>
			<point x="193.801" y="735.582" type="line"/>
			<point x="168.284" y="772.622" type="line"/>
			<point x="125.591" y="758.466" type="line"/>
			<point x="102.67" y="800.666" type="line"/>
			<point x="69.99" y="765.479" type="line"/>
			<point x="38.127" y="773.292" type="line"/>
			<point x="32" y="741.062" type="line"/>
			<point x="7" y="715.266" type="line"/>
			<point x="32" y="689.469" type="line"/>
			<point x="5" y="663.672" type="line"/>
			<point x="32" y="637.875" type="line"/>
			<point x="44.525" y="595.373" type="line"/>
			<point x="88.834" y="595.532" type="line"/>
			<point x="100.029" y="553.481" type="line"/>
			<point x="143.382" y="549.717" type="line"/>
			<point x="132.771" y="515.233" type="line"/>
			<point x="166.806" y="503.257" type="line"/>
			<point x="153.945" y="464.803" type="line"/>
			<point x="183.708" y="437.265" type="line"/>
			<point x="151.653" y="412.772" type="line"/>
			<point x="188.989" y="397.491" type="line"/>
			<point x="155.009" y="357.569" type="line"/>
			<point x="192.933" y="321.373" type="line"/>
			<point x="158.985" y="284.028" type="line"/>
			<point x="191.016" y="245.026" type="line"/>
			<point x="154.064" y="226.489" type="line"/>
			<point x="186.789" y="201.228" type="line"/>
			<point x="154.872" y="167.27" type="line"/>
			<point x="169.865" y="123.144" type="line"/>
			<point x="118.661" y="107.336" type="line"/>
			<point x="134.758" y="56.222" type="line"/>
			<point x="103.827" y="58.754" type="line"/>
			<point x="101.452" y="27.811" type="line"/>
			<point x="72.494" y="39.23" type="line"/>
			<point x="56.202" y="12.707" type="line"/>
			<point x="24.61" y="-2.483" type="line"/>
			<point x="32" y="-36.75" type="line"/>
			<point x="-6" y="-74.453" type="line"/>
		</contour>
		<contour>
			<point x="191.861" y="680.145" type="line"/>
			<point x="204.552" y="642.16" type="line"/>
			<point x="164.749" y="624.547" type="line"/>
			<point x="140.302" y="655.686" type="line"/>
			<point x="152.588" y="697.749" type="line"/>
		</contour>
		<contour>
			<point x="266.47" y="364.959" type="line"/>
			<point x="264.84" y="332.42" type="line"/>
			<point x="232.263" y="331.926" type="line"/>
			<point x="221.349" y="357.994" type="line"/>
			<point x="240.66" y="377.766" type="line"/>
		</contour>
		<contour>
			<point x="291" y="574" type="line"/>
			<point x="267.961" y="546.419" type="line"/>
			<point x="241.202" y="561.069" type="line"/>
			<point x="240.393" y="587.519" type="line"/>
			<point x="267.034" y="598.727" type="line"/>
		</contour>
		<contour>
			<point x="307.927" y="21.093" type="line"/>
			<point x="287.365" y="-4.18" type="line"/>
			<point x="254.253" y="-0.926" type="line"/>
			<point x="256.799" y="32.248" type="line"/>
			<point x="284.048" y="43.257" type="line"/>
		</contour>
		<contour>
			<point x="315.321" y="197" type="line"/>
			<point x="316.579" y="170.272" type="line"/>
			<point x="290.272" y="169.643" type="line"/>
			<point x="285.071" y="188.359" type="line"/>
			<point x="295.297" y="199.716" type="line"/>
		</contour>
		<contour>
			<point x="322.077" y="430.329" type="line"/>
			<point x="316.115" y="410.491" type="line"/>
			<point x="296.55" y="406.107" type="line"/>
			<point x="284.319" y="425.647" type="line"/>
			<point x="301.242" y="448.737" type="line"/>
		</contour>
		<contour>
			<point x="170.507" y="-24.664" type="line"/>
			<point x="212" y="-57" type="line"/>
			<point x="169.58" y="-86.483" type="line"/>
			<point x="127.639" y="-80.511" type="line"/>
			<point x="136.539" y="-39.954" type="line"/>
		</contour>
		<contour>
			<point x="270.113" y="115.745" type="line"/>
			<point x="268.286" y="90.214" type="line"/>
			<point x="246.826" y="77.589" type="line"/>
			<point x="238.053" y="98.78" type="line"/>
			<point x="241.841" y="123.933" type="line"/>
		</contour>
		<contour>
			<point x="198.774" y="82.119" type="line"/>
			<point x="202.157" y="73.196" type="line"/>
			<point x="193.269" y="71.045" type="line"/>
			<point x="187.129" y="75.664" type="line"/>
			<point x="190.606" y="83.122" type="line"/>
		</contour>
		<contour>
			<point x="332.217" y="77.035" type="line"/>
			<point x="335.225" y="66.009" type="line"/>
			<point x="322.635" y="59.443" type="line"/>
			<point x="312.019" y="71.267" type="line"/>
			<point x="323.133" y="79.469" type="line"/>
		</contour>
	</outline>
</glyph>
<glyph name="asterisk" format="2">
	<advance width="444"/>
	<unicode hex="002A"/>
	<outline>
		<contour>
			<point x="99.8" y="421.4" type="line"/>
			<point x="192.1" y="352.817" type="line"/>
			<point x="190.32" y="383.76" type="line"/>
			<point x="223.995" y="412.06" type="line"/>
			<point x="215.4" y="455.2" type="line"/>
			<point x="212.163" y="431.003" type="line"/>
			<point x="236.52" y="432.64" type="line"/>
			<point x="224.935" y="394.918" type="line"/>
			<point x="259" y="375" type="line"/>
			<point x="306.397" y="361.306" type="line"/>
			<point x="325" y="407" type="line"/>
			<point x="359" y="395" type="line"/>
			<point x="357" y="431" type="line"/>
			<point x="378.84" y="448.142" type="line"/>
			<point x="361.769" y="470.038" type="line"/>
			<point x="354.821" y="508.787" type="line"/>
			<point x="315.615" y="505.231" type="line"/>
			<point x="336.682" y="521.255" type="line"/>
			<point x="310.423" y="524.577" type="line"/>
			<point x="338.114" y="508.592" type="line"/>
			<point x="364.808" y="526.192" type="line"/>
			<point x="393.411" y="515.896" type="line"/>
			<point x="405" y="544" type="line"/>
			<point x="426.223" y="587.849" type="line"/>
			<point x="382.935" y="610.194" type="line"/>
			<point x="382.329" y="648.411" type="line"/>
			<point x="347" y="663" type="line"/>
			<point x="304.145" y="661.107" type="line"/>
			<point x="286.346" y="622.077" type="line"/>
			<point x="308.34" y="647.135" type="line"/>
			<point x="275.154" y="643.923" type="line"/>
			<point x="308.546" y="677.187" type="line"/>
			<point x="286.577" y="718.888" type="line"/>
			<point x="246.647" y="745.441" type="line"/>
			<point x="206" y="720" type="line"/>
			<point x="170.883" y="716.036" type="line"/>
			<point x="156.4" y="683.8" type="line"/>
			<point x="140.915" y="648.367" type="line"/>
			<point x="172.6" y="626.2" type="line"/>
			<point x="157.307" y="647.683" type="line"/>
			<point x="132.64" y="638.36" type="line"/>
			<point x="122.459" y="664.935" type="line"/>
			<point x="94" y="665" type="line"/>
			<point x="63.427" y="665.882" type="line"/>
			<point x="69.645" y="635.935" type="line"/>
			<point x="35.114" y="620.887" type="line"/>
			<point x="53.71" y="588.129" type="line"/>
			<point x="28.864" y="558.235" type="line"/>
			<point x="52" y="527" type="line"/>
			<point x="90.243" y="505.555" type="line"/>
			<point x="129.692" y="524.692" type="line"/>
			<point x="104.065" y="518.344" type="line"/>
			<point x="113" y="493.5" type="line"/>
			<point x="84.511" y="489.383" type="line"/>
			<point x="73" y="463" type="line"/>
			<point x="67.906" y="430.285" type="line"/>
		</contour>
		<contour>
			<point x="215.881" y="526.95" type="line"/>
			<point x="208.03" y="507.78" type="line"/>
			<point x="185.373" y="511.36" type="line"/>
			<point x="188.63" y="531.303" type="line"/>
			<point x="203.625" y="543.651" type="line"/>
		</contour>
		<contour>
			<point x="324.762" y="571.368" type="line"/>
			<point x="318.642" y="553.509" type="line"/>
			<point x="296.282" y="544.647" type="line"/>
			<point x="288.624" y="570.08" type="line"/>
			<point x="307.884" y="580.961" type="line"/>
		</contour>
		<contour>
			<point x="281.818" y="441.084" type="line"/>
			<point x="273.756" y="431.936" type="line"/>
			<point x="262.359" y="431.087" type="line"/>
			<point x="256.518" y="445.576" type="line"/>
			<point x="271.809" y="451.873" type="line"/>
		</contour>
		<contour>
			<point x="211.15" y="483.572" type="line"/>
			<point x="218.667" y="472.076" type="line"/>
			<point x="207.22" y="461.053" type="line"/>
			<point x="195.874" y="470.702" type="line"/>
			<point x="197.471" y="484.811" type="line"/>
		</contour>
		<contour>
			<point x="77.899" y="566.466" type="line"/>
			<point x="83.562" y="549.42" type="line"/>
			<point x="64.983" y="547.636" type="line"/>
			<point x="51" y="560" type="line"/>
			<point x="65.601" y="570.462" type="line"/>
		</contour>
	</outline>
</glyph>
<glyph name="plus" format="2">
	<advance width="594"/>
	<unicode hex="002B"/>
	<outline>
		<contour>
			<point x="220" y="107.721" type="line"/>
			<point x="276.355" y="7" type="line"/>
			<point x="315.71" y="43" type="line"/>
			<point x="354.811" y="19.738" type="line"/>
			<point x="376" y="60" type="line"/>
			<point x="396" y="81.872" type="line"/>
			<point x="376" y="103.744" type="line"/>
			<point x="408" y="141.523" type="line"/>
			<point x="376" y="179.302" type="line"/>
			<point x="404" y="201.174" type="line"/>
			<point x="376" y="223.047" type="line"/>
			<point x="414.653" y="201.182" type="line"/>
			<point x="447.561" y="231" type="line"/>
			<point x="489.305" y="203" type="line"/>
			<point x="531.049" y="231" type="line"/>
			<point x="561.306" y="233.664" type="line"/>
			<point x="556" y="263.571" type="line"/>
			<point x="581" y="296.661" type="line"/>
			<point x="556" y="329.75" type="line"/>
			<point x="545.703" y="367.432" type="line"/>
			<point x="507.195" y="374" type="line"/>
			<point x="485.329" y="403" type="line"/>
			<point x="463.463" y="374" type="line"/>
			<point x="425.695" y="409" type="line"/>
			<point x="387.927" y="374" type="line"/>
			<point x="413.523" y="414.862" type="line"/>
			<point x="376" y="445.143" type="line"/>
			<point x="407" y="482.69" type="line"/>
			<point x="376" y="520.238" type="line"/>
			<point x="360.443" y="557.966" type="line"/>
			<point x="319.645" y="557" type="line"/>
			<point x="292.097" y="589" type="line"/>
			<point x="264.548" y="557" type="line"/>
			<point x="234.418" y="558.601" type="line"/>
			<point x="220" y="532.095" type="line"/>
			<point x="186" y="496.524" type="line"/>
			<point x="220" y="460.952" type="line"/>
			<point x="185" y="427.357" type="line"/>
			<point x="220" y="393.762" type="line"/>
			<point x="183.999" y="410.927" type="line"/>
			<point x="168.929" y="374" type="line"/>
			<point x="149.286" y="397" type="line"/>
			<point x="129.643" y="374" type="line"/>
			<point x="89.937" y="401.754" type="line"/>
			<point x="50.579" y="373.51" type="line"/>
			<point x="6.807" y="362.404" type="line"/>
			<point x="38" y="329.75" type="line"/>
			<point x="11" y="300.554" type="line"/>
			<point x="38" y="271.357" type="line"/>
			<point x="32.548" y="240.165" type="line"/>
			<point x="62.857" y="231" type="line"/>
			<point x="82.5" y="198" type="line"/>
			<point x="102.143" y="231" type="line"/>
			<point x="123.75" y="211" type="line"/>
			<point x="145.357" y="231" type="line"/>
			<point x="180.714" y="206" type="line"/>
			<point x="216.071" y="231" type="line"/>
			<point x="187.078" y="191.611" type="line"/>
			<point x="220" y="155.442" type="line"/>
			<point x="199" y="131.581" type="line"/>
		</contour>
		<contour>
			<point x="302.741" y="415.946" type="line"/>
			<point x="317.996" y="371.506" type="line"/>
			<point x="302.023" y="333.179" type="line"/>
			<point x="268.235" y="355.353" type="line"/>
			<point x="269.34" y="384.766" type="line"/>
		</contour>
		<contour>
			<point x="314.78" y="204.29" type="line"/>
			<point x="309.303" y="190.63" type="line"/>
			<point x="295.498" y="193.955" type="line"/>
			<point x="291.218" y="207.494" type="line"/>
			<point x="303.975" y="209.94" type="line"/>
		</contour>
		<contour>
			<point x="361.089" y="501.945" type="line"/>
			<point x="363.42" y="487.21" type="line"/>
			<point x="347.366" y="487.405" type="line"/>
			<point x="343.152" y="499.736" type="line"/>
			<point x="350.773" y="513.844" type="line"/>
		</contour>
		<contour>
			<point x="364.366" y="287.99" type="line"/>
			<point x="368.83" y="282.294" type="line"/>
			<point x="367.812" y="275.129" type="line"/>
			<point x="358.336" y="274.006" type="line"/>
			<point x="358.399" y="283.15" type="line"/>
		</contour>
		<contour>
			<point x="261.069" y="502.292" type="line"/>
			<point x="270.873" y="494.191" type="line"/>
			<point x="259.216" y="489.106" type="line"/>
			<point x="248.288" y="490.836" type="line"/>
			<point x="252.965" y="500.863" type="line"/>
		</contour>
		<contour>
			<point x="473.689" y="330.454" type="line"/>
			<point x="452.959" y="303.53" type="line"/>
			<point x="427.613" y="312.107" type="line"/>
			<point x="420.809" y="337.267" type="line"/>
			<point x="447.209" y="355.544" type="line"/>
		</contour>
		<contour>
			<point x="115.462" y="309.399" type="line"/>
			<point x="111.466" y="297.101" type="line"/>
			<point x="99.71" y="298.719" type="line"/>
			<point x="95.489" y="309.09" type="line"/>
			<point x="105" y="315" type="line"/>
		</contour>
	</outline>
</glyph>
<glyph name="hyphen" format="2">
	<advance width="471"/>
	<unicode hex="002D"/>
	<outline>
		<contour>
			<point x="60.669" y="216.832" type="line"/>
			<point x="106.689" y="177" type="line"/>
			<point x="140.378" y="212" type="line"/>
			<point x="172.085" y="187" type="line"/>
			<point x="203.793" y="212" type="line"/>
			<point x="237.482" y="180" type="line"/>
			<point x="271.171" y="212" type="line"/>
			<point x="296.933" y="181" type="line"/>
			<point x="322.695" y="212" type="line"/>
			<point x="342.512" y="189" type="line"/>
			<point x="362.329" y="212" type="line"/>
			<point x="401.774" y="202.47" type="line"/>
			<point x="415" y="240.833" type="line"/>
			<point x="441" y="282.25" type="line"/>
			<point x="415" y="323.667" type="line"/>
			<point x="438.275" y="361.266" type="line"/>
			<point x="402.645" y="387.457" type="line"/>
			<point x="360.935" y="425.727" type="line"/>
			<point x="318.732" y="388" type="line"/>
			<point x="298.915" y="425" type="line"/>
			<point x="279.098" y="388" type="line"/>
			<point x="241.445" y="408" type="line"/>
			<point x="203.793" y="388" type="line"/>
			<point x="178.03" y="420" type="line"/>
			<point x="152.268" y="388" type="line"/>
			<point x="132.451" y="416" type="line"/>
			<point x="112.634" y="388" type="line"/>
			<point x="83.771" y="418.532" type="line"/>
			<point x="60.832" y="383.331" type="line"/>
			<point x="22.508" y="352.123" type="line"/>
			<point x="56" y="315.778" type="line"/>
			<point x="24" y="294.083" type="line"/>
			<point x="56" y="272.389" type="line"/>
			<point x="30.433" y="242.266" type="line"/>
		</contour>
		<contour>
			<point x="303.168" y="310.635" type="line"/>
			<point x="333.659" y="291.871" type="line"/>
			<point x="314.343" y="255.542" type="line"/>
			<point x="280.297" y="268.939" type="line"/>
			<point x="270.746" y="302.023" type="line"/>
		</contour>
		<contour>
			<point x="184.168" y="315.839" type="line"/>
			<point x="198.863" y="290.387" type="line"/>
			<point x="179.406" y="267.568" type="line"/>
			<point x="148.019" y="278" type="line"/>
			<point x="153.192" y="311.736" type="line"/>
		</contour>
		<contour>
			<point x="229.42" y="274.397" type="line"/>
			<point x="234.995" y="264.686" type="line"/>
			<point x="227.929" y="258.271" type="line"/>
			<point x="220.197" y="261.086" type="line"/>
			<point x="216.544" y="272.388" type="line"/>
		</contour>
		<contour>
			<point x="189.93" y="249.51" type="line"/>
			<point x="198.998" y="240.791" type="line"/>
			<point x="190.216" y="230.481" type="line"/>
			<point x="178.808" y="235.264" type="line"/>
			<point x="178.215" y="247.62" type="line"/>
		</contour>
		<contour>
			<point x="136.454" y="364.5" type="line"/>
			<point x="134.12" y="342.287" type="line"/>
			<point x="115.119" y="344.037" type="line"/>
			<point x="103.093" y="356.777" type="line"/>
			<point x="116.258" y="372.607" type="line"/>
		</contour>
		<contour>
			<point x="258.463" y="367.923" type="line"/>
			<point x="270.694" y="356.911" type="line"/>
			<point x="268" y="334.947" type="line"/>
			<point x="248.301" y="344.339" type="line"/>
			<point x="244.21" y="359.694" type="line"/>
		</contour>
		<contour>
			<point x="365.558" y="371.237" type="line"/>
			<point x="375.998" y="357.738" type="line"/>
			<point x="365.093" y="344.612" type="line"/>
			<point x="350.351" y="350.544" type="line"/>
			<point x="350.618" y="365.824" type="line"/>
		</contour>
		<contour>
			<point x="112.982" y="280.68" type="line"/>
			<point x="106.809" y="262.262" type="line"/>
			<point x="89.12" y="271.19" type="line"/>
			<point x="86.581" y="288.714" type="line"/>
			<point x="105.435" y="300.284" type="line"/>
		</contour>
	</outline>
</glyph>
<glyph name="slash" format="2">
	<advance width="579"/>
	<unicode hex="002F"/>
	<outline>
		<contour>
			<point x="31.809" y="-66.618" type="line"/>
			<point x="70.788" y="-113" type="line"/>
			<point x="98.576" y="-74" type="line"/>
			<point x="118.424" y="-107" type="line"/>
			<point x="138.273" y="-74" type="line"/>
			<point x="163.164" y="-101.181" type="line"/>
			<point x="186.177" y="-72.393" type="line"/>
			<point x="237.198" y="-63.417" type="line"/>
			<point x="224.364" y="-13.227" type="line"/>
			<point x="258.95" y="17.674" type="line"/>
			<point x="256.627" y="63.995" type="line"/>
			<point x="300.599" y="75.858" type="line"/>
			<point x="278.136" y="115.477" type="line"/>
			<point x="322.872" y="142.138" type="line"/>
			<point x="310.4" y="192.7" type="line"/>
			<point x="361.749" y="214.438" type="line"/>
			<point x="341.127" y="266.245" type="line"/>
			<point x="380.945" y="286.323" type="line"/>
			<point x="367.245" y="328.759" type="line"/>
			<point x="409.067" y="332.882" type="line"/>
			<point x="382.609" y="365.532" type="line"/>
			<point x="419.04" y="395.662" type="line"/>
			<point x="414.873" y="442.755" type="line"/>
			<point x="447.159" y="455.181" type="line"/>
			<point x="433.309" y="486.882" type="line"/>
			<point x="472.663" y="513.631" type="line"/>
			<point x="464.036" y="560.427" type="line"/>
			<point x="503.858" y="567.545" type="line"/>
			<point x="480.936" y="600.877" type="line"/>
			<point x="519.218" y="617.277" type="line"/>
			<point x="503.982" y="656.036" type="line"/>
			<point x="541.645" y="681.333" type="line"/>
			<point x="533.173" y="725.905" type="line"/>
			<point x="573.538" y="744.877" type="line"/>
			<point x="540.768" y="775.133" type="line"/>
			<point x="521.403" y="810.558" type="line"/>
			<point x="500.529" y="776" type="line"/>
			<point x="467.029" y="803" type="line"/>
			<point x="433.529" y="776" type="line"/>
			<point x="410.735" y="800.107" type="line"/>
			<point x="389.944" y="774.253" type="line"/>
			<point x="348.263" y="773.712" type="line"/>
			<point x="359.352" y="733.53" type="line"/>
			<point x="318.473" y="715.837" type="line"/>
			<point x="334.877" y="674.425" type="line"/>
			<point x="296.482" y="647.049" type="line"/>
			<point x="304.283" y="600.543" type="line"/>
			<point x="260.314" y="588.458" type="line"/>
			<point x="282.868" y="548.826" type="line"/>
			<point x="250.592" y="536.227" type="line"/>
			<point x="264.511" y="504.498" type="line"/>
			<point x="224.556" y="486.423" type="line"/>
			<point x="240.037" y="445.393" type="line"/>
			<point x="197.628" y="424.006" type="line"/>
			<point x="212.502" y="378.9" type="line"/>
			<point x="164.709" y="357.579" type="line"/>
			<point x="183.438" y="308.712" type="line"/>
			<point x="135.04" y="283.315" type="line"/>
			<point x="151.315" y="231.137" type="line"/>
			<point x="104.893" y="215.74" type="line"/>
			<point x="126.84" y="172.032" type="line"/>
			<point x="92.27" y="153.891" type="line"/>
			<point x="103.895" y="116.621" type="line"/>
			<point x="67.317" y="101.475" type="line"/>
			<point x="82.479" y="64.904" type="line"/>
			<point x="44.531" y="43.834" type="line"/>
			<point x="56.475" y="2.105" type="line"/>
			<point x="12.141" y="-20.771" type="line"/>
		</contour>
		<contour>
			<point x="213.638" y="27.139" type="line"/>
			<point x="214.073" y="-12.945" type="line"/>
			<point x="172.793" y="-5.575" type="line"/>
			<point x="162.267" y="27.479" type="line"/>
			<point x="189.546" y="44.996" type="line"/>
		</contour>
		<contour>
			<point x="186.805" y="193.161" type="line"/>
			<point x="184.429" y="163.267" type="line"/>
			<point x="156.758" y="157.528" type="line"/>
			<point x="140.034" y="180.308" type="line"/>
			<point x="160.6" y="195.421" type="line"/>
		</contour>
		<contour>
			<point x="404.809" y="665.229" type="line"/>
			<point x="405.583" y="646.863" type="line"/>
			<point x="389.66" y="629.234" type="line"/>
			<point x="375.273" y="649.874" type="line"/>
			<point x="385.958" y="666.244" type="line"/>
		</contour>
		<contour>
			<point x="302.25" y="471.744" type="line"/>
			<point x="306.973" y="462.61" type="line"/>
			<point x="303.517" y="453.715" type="line"/>
			<point x="293.962" y="456.752" type="line"/>
			<point x="291.428" y="467.15" type="line"/>
		</contour>
		<contour>
			<point x="336.299" y="323.48" type="line"/>
			<point x="344.584" y="311.613" type="line"/>
			<point x="331.698" y="305.024" type="line"/>
			<point x="318.019" y="309.756" type="line"/>
			<point x="324.572" y="322.66" type="line"/>
		</contour>
		<contour>
			<point x="240.815" y="348.389" type="line"/>
			<point x="241.673" y="340.047" type="line"/>
			<point x="235.913" y="337" type="line"/>
			<point x="226.437" y="339.076" type="line"/>
			<point x="230.264" y="350.192" type="line"/>
		</contour>
		<contour>
			<point x="371.633" y="594.375" type="line"/>
			<point x="377.187" y="572.5" type="line"/>
			<point x="353.386" y="556.59" type="line"/>
			<point x="335.131" y="580.491" type="line"/>
			<point x="351.272" y="600.357" type="line"/>
		</contour>
		<contour>
			<point x="177.605" y="91" type="line"/>
			<point x="179.846" y="83.65" type="line"/>
			<point x="174.61" y="78.027" type="line"/>
			<point x="168.477" y="82.656" type="line"/>
			<point x="170.064" y="89.528" type="line"/>
		</contour>
		<contour>
			<point x="502.499" y="700.73" type="line"/>
			<point x="479.859" y="676.458" type="line"/>
			<point x="447.076" y="671.262" type="line"/>
			<point x="439.441" y="709.905" type="line"/>
			<point x="474.454" y="726.689" type="line"/>
		</contour>
	</outline>
</glyph>
<glyph name="zero" format="2">
	<advance width="718"/>
	<unicode hex="0030"/>
	<outline>
		<contour>
			<point x="325.859" y="11.186" type="line"/>
			<point x="397.81" y="-7.699" type="line"/>
			<point x="434.071" y="16.452" type="line"/>
			<point x="472.889" y="-4.182" type="line"/>
			<point x="496.138" y="33.129" type="line"/>
			<point x="546.732" y="24.811" type="line"/>
			<point x="566.025" y="72.316" type="line"/>
			<point x="617.424" y="77.672" type="line"/>
			<point x="616.332" y="129.338" type="line"/>
			<point x="644.858" y="140.076" type="line"/>
			<point x="635.578" y="169.108" type="line"/>
			<point x="662.124" y="186.918" type="line"/>
			<point x="648.117" y="215.654" type="line"/>
			<point x="687.142" y="254.712" type="line"/>
			<point x="654.368" y="299.147" type="line"/>
			<point x="691.666" y="330.926" type="line"/>
			<point x="654.967" y="363.395" type="line"/>
			<point x="683.666" y="383.902" type="line"/>
			<point x="654.371" y="403.549" type="line"/>
			<point x="689.402" y="446.888" type="line"/>
			<point x="648.622" y="484.868" type="line"/>
			<point x="672.135" y="516.264" type="line"/>
			<point x="635.869" y="531.21" type="line"/>
			<point x="649.671" y="580.918" type="line"/>
			<point x="599.587" y="593.281" type="line"/>
			<point x="593.595" y="627.775" type="line"/>
			<point x="558.804" y="631.697" type="line"/>
			<point x="546.558" y="675.276" type="line"/>
			<point x="502.973" y="663.053" type="line"/>
			<point x="486.401" y="689.582" type="line"/>
			<point x="457.296" y="678.124" type="line"/>
			<point x="433.912" y="707.542" type="line"/>
			<point x="402.002" y="687.692" type="line"/>
			<point x="368.619" y="717.468" type="line"/>
			<point x="333.902" y="689.259" type="line"/>
			<point x="306.047" y="721.35" type="line"/>
			<point x="286.008" y="683.879" type="line"/>
			<point x="259.705" y="699.275" type="line"/>
			<point x="243.002" y="673.782" type="line"/>
			<point x="207.321" y="692.978" type="line"/>
			<point x="194.504" y="654.543" type="line"/>
			<point x="155.623" y="654.964" type="line"/>
			<point x="141.244" y="618.838" type="line"/>
			<point x="99.284" y="621.591" type="line"/>
			<point x="106.331" y="580.136" type="line"/>
			<point x="64.027" y="555.796" type="line"/>
			<point x="72.444" y="507.721" type="line"/>
			<point x="29.862" y="475.272" type="line"/>
			<point x="62.634" y="432.939" type="line"/>
			<point x="31.827" y="395.432" type="line"/>
			<point x="61.006" y="356.645" type="line"/>
			<point x="35.214" y="332.322" type="line"/>
			<point x="61.42" y="308.446" type="line"/>
			<point x="36.896" y="274.57" type="line"/>
			<point x="64.32" y="242.995" type="line"/>
			<point x="50.224" y="209.744" type="line"/>
			<point x="75.438" y="183.888" type="line"/>
			<point x="69.285" y="141.056" type="line"/>
			<point x="106.453" y="118.898" type="line"/>
			<point x="108.154" y="82.672" type="line"/>
			<point x="144.013" y="77.256" type="line"/>
			<point x="143.411" y="41.999" type="line"/>
			<point x="176.614" y="53.872" type="line"/>
			<point x="194.376" y="3.819" type="line"/>
			<point x="242.883" y="25.451" type="line"/>
			<point x="279.288" y="-11.248" type="line"/>
		</contour>
		<contour>
			<point x="375.013" y="167.639" type="line"/>
			<point x="345.288" y="196.034" type="line"/>
			<point x="319.62" y="175.915" type="line"/>
			<point x="318.306" y="200.818" type="line"/>
			<point x="293.906" y="205.973" type="line"/>
			<point x="300.562" y="228.179" type="line"/>
			<point x="284.376" y="244.776" type="line"/>
			<point x="293.773" y="265.973" type="line"/>
			<point x="282.609" y="286.295" type="line"/>
			<point x="298.41" y="306.764" type="line"/>
			<point x="281.876" y="326.647" type="line"/>
			<point x="300.942" y="346.868" type="line"/>
			<point x="281.789" y="367.006" type="line"/>
			<point x="299.702" y="386.943" type="line"/>
			<point x="282.338" y="407.361" type="line"/>
			<point x="294.784" y="427.123" type="line"/>
			<point x="283.725" y="447.694" type="line"/>
			<point x="303.553" y="465.3" type="line"/>
			<point x="290.516" y="488.39" type="line"/>
			<point x="309.613" y="499.509" type="line"/>
			<point x="312.358" y="521.435" type="line"/>
			<point x="338.071" y="510.763" type="line"/>
			<point x="348.967" y="536.382" type="line"/>
			<point x="366.912" y="518.877" type="line"/>
			<point x="389.146" y="530.458" type="line"/>
			<point x="396.828" y="509.6" type="line"/>
			<point x="418.334" y="503.988" type="line"/>
			<point x="411.952" y="480.962" type="line"/>
			<point x="430.717" y="466.17" type="line"/>
			<point x="414.345" y="444.425" type="line"/>
			<point x="433.191" y="424.785" type="line"/>
			<point x="418.927" y="404.301" type="line"/>
			<point x="434.058" y="384.449" type="line"/>
			<point x="416.507" y="364.199" type="line"/>
			<point x="434.236" y="344.105" type="line"/>
			<point x="421.767" y="324.067" type="line"/>
			<point x="433.795" y="303.762" type="line"/>
			<point x="419.983" y="283.984" type="line"/>
			<point x="432.619" y="263.434" type="line"/>
			<point x="420.485" y="243.955" type="line"/>
			<point x="427.82" y="222.21" type="line"/>
			<point x="403.021" y="212.595" type="line"/>
			<point x="409.583" y="186.819" type="line"/>
			<point x="381.77" y="196.204" type="line"/>
		</contour>
		<contour>
			<point x="383.151" y="58.97" type="line"/>
			<point x="397.455" y="41.141" type="line"/>
			<point x="388.536" y="26.936" type="line"/>
			<point x="373.19" y="26.12" type="line"/>
			<point x="364.262" y="43.809" type="line"/>
		</contour>
		<contour>
			<point x="367.956" y="659.256" type="line"/>
			<point x="353.746" y="648.728" type="line"/>
			<point x="340.807" y="650.287" type="line"/>
			<point x="336.431" y="666.479" type="line"/>
			<point x="353.871" y="673.525" type="line"/>
		</contour>
		<contour>
			<point x="632.989" y="331.419" type="line"/>
			<point x="627.867" y="323.531" type="line"/>
			<point x="618.006" y="325.336" type="line"/>
			<point x="619.129" y="334.812" type="line"/>
			<point x="627.071" y="338.727" type="line"/>
		</contour>
		<contour>
			<point x="426.088" y="123.854" type="line"/>
			<point x="440.742" y="111.952" type="line"/>
			<point x="430.573" y="96.639" type="line"/>
			<point x="417.053" y="101.807" type="line"/>
			<point x="412.316" y="114.699" type="line"/>
		</contour>
		<contour>
			<point x="564.766" y="274.348" type="line"/>
			<point x="551.276" y="227.457" type="line"/>
			<point x="495.027" y="216.766" type="line"/>
			<point x="493.486" y="270.941" type="line"/>
			<point x="525.058" y="314.992" type="line"/>
		</contour>
		<contour>
			<point x="556.937" y="377.814" type="line"/>
			<point x="542.987" y="346.33" type="line"/>
			<point x="504.188" y="353.502" type="line"/>
			<point x="510.647" y="388.718" type="line"/>
			<point x="538.983" y="408.02" type="line"/>
		</contour>
		<contour>
			<point x="268.017" y="110.834" type="line"/>
			<point x="282.99" y="73.775" type="line"/>
			<point x="251.814" y="56.063" type="line"/>
			<point x="217.549" y="68.889" type="line"/>
			<point x="233.288" y="101.917" type="line"/>
		</contour>
		<contour>
			<point x="203.709" y="315.931" type="line"/>
			<point x="244.878" y="284.488" type="line"/>
			<point x="206.613" y="252.257" type="line"/>
			<point x="155.932" y="248.218" type="line"/>
			<point x="150.053" y="309.086" type="line"/>
		</contour>
		<contour>
			<point x="549.249" y="502.563" type="line"/>
			<point x="550.965" y="474.814" type="line"/>
			<point x="532.564" y="456.004" type="line"/>
			<point x="506.223" y="472.814" type="line"/>
			<point x="521.528" y="497.383" type="line"/>
		</contour>
		<contour>
			<point x="261.019" y="598.086" type="line"/>
			<point x="262.899" y="584.101" type="line"/>
			<point x="248.46" y="585.09" type="line"/>
			<point x="240.16" y="596.034" type="line"/>
			<point x="251.436" y="603.877" type="line"/>
		</contour>
		<contour>
			<point x="105.958" y="257.959" type="line"/>
			<point x="97.344" y="251.477" type="line"/>
			<point x="88.208" y="251.095" type="line"/>
			<point x="89.857" y="260.09" type="line"/>
			<point x="96.8" y="264.795" type="line"/>
		</contour>
		<contour>
			<point x="130.809" y="408.585" type="line"/>
			<point x="128.205" y="391.093" type="line"/>
			<point x="117.606" y="379.061" type="line"/>
			<point x="104.384" y="391.626" type="line"/>
			<point x="109.729" y="410.429" type="line"/>
		</contour>
		<contour>
			<point x="587.548" y="546.902" type="line"/>
			<point x="591.657" y="532.56" type="line"/>
			<point x="574.624" y="527.996" type="line"/>
			<point x="565.021" y="542.785" type="line"/>
			<point x="577.412" y="551.659" type="line"/>
		</contour>
		<contour>
			<point x="603.51" y="363.93" type="line"/>
			<point x="600.416" y="353.812" type="line"/>
			<point x="591.559" y="356.085" type="line"/>
			<point x="589.262" y="362.754" type="line"/>
			<point x="594.843" y="369.999" type="line"/>
		</contour>
		<contour>
			<point x="230.015" y="508.459" type="line"/>
			<point x="234.222" y="500.339" type="line"/>
			<point x="225.164" y="496.044" type="line"/>
			<point x="216.219" y="501.921" type="line"/>
			<point x="220" y="514.392" type="line"/>
		</contour>
		<contour>
			<point x="181.471" y="557.233" type="line"/>
			<point x="165.781" y="521.606" type="line"/>
			<point x="128.742" y="521.444" type="line"/>
			<point x="118.689" y="557.093" type="line"/>
			<point x="148.436" y="571.996" type="line"/>
		</contour>
		<contour>
			<point x="383.583" y="122.496" type="line"/>
			<point x="388.995" y="110.314" type="line"/>
			<point x="384.788" y="96.844" type="line"/>
			<point x="373.696" y="105.075" type="line"/>
			<point x="374.197" y="113.914" type="line"/>
		</contour>
		<contour>
			<point x="95.498" y="481.854" type="line"/>
			<point x="104.99" y="463.442" type="line"/>
			<point x="92.859" y="450.542" type="line"/>
			<point x="79.052" y="457.29" type="line"/>
			<point x="76.392" y="473.851" type="line"/>
		</contour>
		<contour>
			<point x="472.989" y="478.328" type="line"/>
			<point x="468.225" y="461.009" type="line"/>
			<point x="454.341" y="449.613" type="line"/>
			<point x="441.025" y="466.058" type="line"/>
			<point x="454.7" y="478.203" type="line"/>
		</contour>
	</outline>
</glyph>
<glyph name="one" format="2">
	<advance width="557"/>
	<unicode hex="0031"/>
	<outline>
		<contour>
			<point x="271" y="34.946" type="line"/>
			<point x="304" y="-7" type="line"/>
			<point x="330" y="20" type="line"/>
			<point x="368" y="-14" type="line"/>
			<point x="406" y="20" type="line"/>
			<point x="428" y="-6" type="line"/>
			<point x="450" y="20" type="line"/>
			<point x="478.639" y="28.981" type="line"/>
			<point x="481" y="58.901" type="line"/>
			<point x="503" y="100.772" type="line"/>
			<point x="481" y="142.642" type="line"/>
			<point x="520" y="178.531" type="line"/>
			<point x="481" y="214.42" type="line"/>
			<point x="512" y="244.327" type="line"/>
			<point x="481" y="274.235" type="line"/>
			<point x="518" y="294.173" type="line"/>
			<point x="481" y="314.111" type="line"/>
			<point x="506" y="346.012" type="line"/>
			<point x="481" y="377.914" type="line"/>
			<point x="512" y="401.84" type="line"/>
			<point x="481" y="425.765" type="line"/>
			<point x="517" y="465.642" type="line"/>
			<point x="481" y="505.519" type="line"/>
			<point x="510" y="545.395" type="line"/>
			<point x="481" y="585.272" type="line"/>
			<point x="508" y="613.185" type="line"/>
			<point x="481" y="641.099" type="line"/>
			<point x="506.337" y="669.211" type="line"/>
			<point x="470.062" y="680" type="line"/>
			<point x="436.594" y="701" type="line"/>
			<point x="403.125" y="680" type="line"/>
			<point x="363.75" y="704" type="line"/>
			<point x="324.375" y="680" type="line"/>
			<point x="284.095" y="705.504" type="line"/>
			<point x="259.286" y="664.792" type="line"/>
			<point x="227.545" y="666.727" type="line"/>
			<point x="221.571" y="635.494" type="line"/>
			<point x="185.73" y="632.976" type="line"/>
			<point x="174.429" y="598.87" type="line"/>
			<point x="121.528" y="602.094" type="line"/>
			<point x="111.571" y="550.039" type="line"/>
			<point x="73.965" y="556.281" type="line"/>
			<point x="70.714" y="518.299" type="line"/>
			<point x="38.291" y="501.799" type="line"/>
			<point x="39.667" y="465.444" type="line"/>
			<point x="24.849" y="424.039" type="line"/>
			<point x="68.667" y="427.778" type="line"/>
			<point x="70.363" y="376.469" type="line"/>
			<point x="119.564" y="361.811" type="line"/>
			<point x="152.542" y="355.082" type="line"/>
			<point x="161.435" y="387.543" type="line"/>
			<point x="196.879" y="390.118" type="line"/>
			<point x="208.391" y="423.739" type="line"/>
			<point x="245.545" y="424.096" type="line"/>
			<point x="255.348" y="459.935" type="line"/>
			<point x="249.211" y="431.571" type="line"/>
			<point x="271" y="412.402" type="line"/>
			<point x="252.8" y="390.549" type="line"/>
			<point x="271" y="368.696" type="line"/>
			<point x="248" y="348.83" type="line"/>
			<point x="271" y="328.964" type="line"/>
			<point x="243" y="297.179" type="line"/>
			<point x="271" y="265.393" type="line"/>
			<point x="249" y="241.554" type="line"/>
			<point x="271" y="217.714" type="line"/>
			<point x="236" y="187.915" type="line"/>
			<point x="271" y="158.116" type="line"/>
			<point x="249" y="116.397" type="line"/>
			<point x="271" y="74.679" type="line"/>
			<point x="233" y="54.813" type="line"/>
		</contour>
		<contour>
			<point x="437.963" y="63.881" type="line"/>
			<point x="435.03" y="50.082" type="line"/>
			<point x="419" y="45.144" type="line"/>
			<point x="417.219" y="61.079" type="line"/>
			<point x="425.955" y="68.945" type="line"/>
		</contour>
		<contour>
			<point x="334.18" y="277.756" type="line"/>
			<point x="326.899" y="259.534" type="line"/>
			<point x="313.365" y="251.734" type="line"/>
			<point x="307" y="266" type="line"/>
			<point x="314.292" y="277.413" type="line"/>
		</contour>
		<contour>
			<point x="424.302" y="406.92" type="line"/>
			<point x="449.168" y="380.774" type="line"/>
			<point x="441.077" y="343.47" type="line"/>
			<point x="400.145" y="347.954" type="line"/>
			<point x="397.893" y="383.74" type="line"/>
		</contour>
		<contour>
			<point x="384.535" y="450.308" type="line"/>
			<point x="382.506" y="432.906" type="line"/>
			<point x="360.687" y="431.24" type="line"/>
			<point x="359.844" y="451.788" type="line"/>
			<point x="373.523" y="461.991" type="line"/>
		</contour>
		<contour>
			<point x="255.089" y="532.358" type="line"/>
			<point x="262.092" y="505.622" type="line"/>
			<point x="237.472" y="486.11" type="line"/>
			<point x="217.589" y="509.826" type="line"/>
			<point x="225.579" y="539" type="line"/>
		</contour>
		<contour>
			<point x="287.654" y="295.768" type="line"/>
			<point x="291.996" y="290.209" type="line"/>
			<point x="288.736" y="282.482" type="line"/>
			<point x="282.06" y="286.922" type="line"/>
			<point x="278.539" y="295.033" type="line"/>
		</contour>
		<contour>
			<point x="335.492" y="504.551" type="line"/>
			<point x="324.313" y="480.24" type="line"/>
			<point x="296.902" y="473.616" type="line"/>
			<point x="289.891" y="502.34" type="line"/>
			<point x="311.302" y="515.988" type="line"/>
		</contour>
		<contour>
			<point x="472.912" y="628.005" type="line"/>
			<point x="459.378" y="603.908" type="line"/>
			<point x="434.906" y="612.879" type="line"/>
			<point x="430.285" y="637.846" type="line"/>
			<point x="453.824" y="642.564" type="line"/>
		</contour>
		<contour>
			<point x="365" y="206.249" type="line"/>
			<point x="390.126" y="173.684" type="line"/>
			<point x="353.613" y="157.137" type="line"/>
			<point x="322.68" y="169.391" type="line"/>
			<point x="330.926" y="204.294" type="line"/>
		</contour>
		<contour>
			<point x="413.644" y="291.815" type="line"/>
			<point x="445.468" y="279.078" type="line"/>
			<point x="422.737" y="250.926" type="line"/>
			<point x="389.466" y="250.7" type="line"/>
			<point x="390.328" y="283.083" type="line"/>
		</contour>
		<contour>
			<point x="188.461" y="516.033" type="line"/>
			<point x="192.032" y="502.381" type="line"/>
			<point x="176.896" y="499.724" type="line"/>
			<point x="171.006" y="511.349" type="line"/>
			<point x="177.417" y="523.496" type="line"/>
		</contour>
		<contour>
			<point x="138.959" y="407.958" type="line"/>
			<point x="144.821" y="398.575" type="line"/>
			<point x="145.211" y="385" type="line"/>
			<point x="130.127" y="387.943" type="line"/>
			<point x="129.715" y="400.517" type="line"/>
		</contour>
		<contour>
			<point x="407" y="559" type="line"/>
			<point x="396.416" y="536.175" type="line"/>
			<point x="365.539" y="541.954" type="line"/>
			<point x="367.157" y="574.87" type="line"/>
			<point x="397.652" y="585.63" type="line"/>
		</contour>
		<contour>
			<point x="472.564" y="493.824" type="line"/>
			<point x="464.241" y="476.285" type="line"/>
			<point x="443.535" y="475.661" type="line"/>
			<point x="442.192" y="495.861" type="line"/>
			<point x="457.482" y="506.935" type="line"/>
		</contour>
		<contour>
			<point x="158.971" y="464.837" type="line"/>
			<point x="151.121" y="453.801" type="line"/>
			<point x="138.574" y="456.929" type="line"/>
			<point x="140.216" y="468.239" type="line"/>
			<point x="149.177" y="472.733" type="line"/>
		</contour>
		<contour>
			<point x="460.903" y="576.644" type="line"/>
			<point x="477.951" y="566.395" type="line"/>
			<point x="462.87" y="552.947" type="line"/>
			<point x="448.041" y="556.644" type="line"/>
			<point x="441.039" y="575.598" type="line"/>
		</contour>
		<contour>
			<point x="462.099" y="180.798" type="line"/>
			<point x="467.94" y="170.975" type="line"/>
			<point x="464.226" y="160.937" type="line"/>
			<point x="449.761" y="160.452" type="line"/>
			<point x="452.128" y="174.363" type="line"/>
		</contour>
		<contour>
			<point x="309.151" y="632.97" type="line"/>
			<point x="335.046" y="618.247" type="line"/>
			<point x="325.973" y="583.324" type="line"/>
			<point x="291.638" y="590.794" type="line"/>
			<point x="279.993" y="621.751" type="line"/>
		</contour>
	</outline>
</glyph>
<glyph name="two" format="2">
	<advance width="704"/>
	<unicode hex="0032"/>
	<outline>
		<contour>
			<point x="55" y="43" type="line"/>
			<point x="82" y="-3" type="line"/>
			<point x="102" y="20" type="line"/>
			<point x="142" y="0" type="line"/>
			<point x="182" y="20" type="line"/>
			<point x="202" y="0" type="line"/>
			<point x="222" y="20" type="line"/>
			<point x="246" y="-19" type="line"/>
			<point x="270" y="20" type="line"/>
			<point x="310" y="-9" type="line"/>
			<point x="350" y="20" type="line"/>
			<point x="384" y="-16" type="line"/>
			<point x="418" y="20" type="line"/>
			<point x="456" y="-5" type="line"/>
			<point x="494" y="20" type="line"/>
			<point x="514" y="-6" type="line"/>
			<point x="534" y="20" type="line"/>
			<point x="564" y="-8" type="line"/>
			<point x="594" y="20" type="line"/>
			<point x="616" y="-5" type="line"/>
			<point x="638" y="20" type="line"/>
			<point x="677.107" y="38.197" type="line"/>
			<point x="645" y="67" type="line"/>
			<point x="678" y="97" type="line"/>
			<point x="645" y="127" type="line"/>
			<point x="676.256" y="160.624" type="line"/>
			<point x="638" y="186" type="line"/>
			<point x="608.142" y="213" type="line"/>
			<point x="578.283" y="186" type="line"/>
			<point x="558.377" y="207" type="line"/>
			<point x="538.472" y="186" type="line"/>
			<point x="502.642" y="202.8" type="line"/>
			<point x="466.811" y="186" type="line"/>
			<point x="447.714" y="203.838" type="line"/>
			<point x="425.8" y="189.6" type="line"/>
			<point x="457.586" y="207.88" type="line"/>
			<point x="429.619" y="231.594" type="line"/>
			<point x="455.367" y="230.228" type="line"/>
			<point x="462.368" y="255.042" type="line"/>
			<point x="506.151" y="254.738" type="line"/>
			<point x="516.188" y="297.356" type="line"/>
			<point x="563.629" y="293.963" type="line"/>
			<point x="563.072" y="341.522" type="line"/>
			<point x="598.482" y="343.786" type="line"/>
			<point x="593.61" y="378.932" type="line"/>
			<point x="637.677" y="384.945" type="line"/>
			<point x="618.285" y="424.97" type="line"/>
			<point x="654.364" y="446.128" type="line"/>
			<point x="629.749" y="479.943" type="line"/>
			<point x="654.514" y="527.327" type="line"/>
			<point x="616.097" y="564.512" type="line"/>
			<point x="626.193" y="606.42" type="line"/>
			<point x="583.963" y="615.072" type="line"/>
			<point x="571.536" y="654.759" type="line"/>
			<point x="529.977" y="656.297" type="line"/>
			<point x="511.39" y="696.828" type="line"/>
			<point x="470.262" y="679.602" type="line"/>
			<point x="442.148" y="716.103" type="line"/>
			<point x="403.152" y="691.567" type="line"/>
			<point x="378.055" y="713.761" type="line"/>
			<point x="351" y="694" type="line"/>
			<point x="317.182" y="712.426" type="line"/>
			<point x="286.63" y="688.978" type="line"/>
			<point x="257.895" y="715.27" type="line"/>
			<point x="243.327" y="679.149" type="line"/>
			<point x="198.549" y="702.73" type="line"/>
			<point x="183.795" y="654.321" type="line"/>
			<point x="150.28" y="656.471" type="line"/>
			<point x="140.876" y="624.231" type="line"/>
			<point x="104.765" y="621.547" type="line"/>
			<point x="105.761" y="585.35" type="line"/>
			<point x="65.062" y="557.166" type="line"/>
			<point x="72.009" y="508.151" type="line"/>
			<point x="34.584" y="487.969" type="line"/>
			<point x="69" y="463" type="line"/>
			<point x="91" y="437" type="line"/>
			<point x="113" y="463" type="line"/>
			<point x="155" y="430" type="line"/>
			<point x="197" y="463" type="line"/>
			<point x="221" y="437.1" type="line"/>
			<point x="245" y="463" type="line"/>
			<point x="274.399" y="454.889" type="line"/>
			<point x="282.139" y="484.387" type="line"/>
			<point x="309.723" y="496.292" type="line"/>
			<point x="312.332" y="526.221" type="line"/>
			<point x="350.187" y="511.219" type="line"/>
			<point x="387.103" y="528.403" type="line"/>
			<point x="370.671" y="495.258" type="line"/>
			<point x="407.306" y="490.112" type="line"/>
			<point x="389.523" y="470.169" type="line"/>
			<point x="400.829" y="445.959" type="line"/>
			<point x="361.906" y="430.265" type="line"/>
			<point x="357.688" y="388.51" type="line"/>
			<point x="319.415" y="374.272" type="line"/>
			<point x="300.625" y="338.017" type="line"/>
			<point x="271.458" y="332.971" type="line"/>
			<point x="259.545" y="305.874" type="line"/>
			<point x="208.076" y="311.238" type="line"/>
			<point x="198.354" y="260.412" type="line"/>
			<point x="148.713" y="263.96" type="line"/>
			<point x="136.622" y="215.683" type="line"/>
			<point x="94.6" y="217.427" type="line"/>
			<point x="83" y="177" type="line"/>
			<point x="43.373" y="173.717" type="line"/>
			<point x="55.124" y="135.73" type="line"/>
			<point x="28.062" y="113.44" type="line"/>
			<point x="55" y="91" type="line"/>
			<point x="25" y="67" type="line"/>
		</contour>
		<contour>
			<point x="476.773" y="384.051" type="line"/>
			<point x="487.002" y="313.553" type="line"/>
			<point x="417.253" y="277.794" type="line"/>
			<point x="360.278" y="339.638" type="line"/>
			<point x="418.152" y="380.979" type="line"/>
		</contour>
		<contour>
			<point x="403.619" y="658.021" type="line"/>
			<point x="410.126" y="634.153" type="line"/>
			<point x="391.349" y="620.003" type="line"/>
			<point x="368.308" y="632.186" type="line"/>
			<point x="375.353" y="660.765" type="line"/>
		</contour>
		<contour>
			<point x="266.351" y="170.693" type="line"/>
			<point x="282.004" y="72.996" type="line"/>
			<point x="170.687" y="61.918" type="line"/>
			<point x="158.665" y="151.447" type="line"/>
			<point x="198.39" y="228.929" type="line"/>
		</contour>
		<contour>
			<point x="280.852" y="630.13" type="line"/>
			<point x="291.191" y="556.509" type="line"/>
			<point x="218.177" y="530.215" type="line"/>
			<point x="186.067" y="590.436" type="line"/>
			<point x="215.29" y="644.347" type="line"/>
		</contour>
		<contour>
			<point x="621.903" y="133.392" type="line"/>
			<point x="614.63" y="126.607" type="line"/>
			<point x="606.965" y="127.137" type="line"/>
			<point x="605.819" y="135.286" type="line"/>
			<point x="613.042" y="137.909" type="line"/>
		</contour>
		<contour>
			<point x="329.349" y="188.994" type="line"/>
			<point x="338.613" y="181.756" type="line"/>
			<point x="334.033" y="171.539" type="line"/>
			<point x="324.075" y="172.696" type="line"/>
			<point x="324.302" y="180.71" type="line"/>
		</contour>
		<contour>
			<point x="160.135" y="527.271" type="line"/>
			<point x="183.825" y="505.655" type="line"/>
			<point x="156.99" y="485.524" type="line"/>
			<point x="125.153" y="493.5" type="line"/>
			<point x="131.935" y="527.067" type="line"/>
		</contour>
		<contour>
			<point x="369.931" y="94.798" type="line"/>
			<point x="375.07" y="71.129" type="line"/>
			<point x="357" y="55" type="line"/>
			<point x="337.979" y="70.82" type="line"/>
			<point x="344.657" y="93.989" type="line"/>
		</contour>
		<contour>
			<point x="617.596" y="65.198" type="line"/>
			<point x="603.757" y="47.006" type="line"/>
			<point x="585.77" y="50.03" type="line"/>
			<point x="579.686" y="68.607" type="line"/>
			<point x="599.169" y="86.806" type="line"/>
		</contour>
		<contour>
			<point x="455.119" y="571.672" type="line"/>
			<point x="465.923" y="558.463" type="line"/>
			<point x="456.474" y="546.951" type="line"/>
			<point x="440.853" y="546.963" type="line"/>
			<point x="441.608" y="563" type="line"/>
		</contour>
		<contour>
			<point x="514.68" y="441.982" type="line"/>
			<point x="529.455" y="433.141" type="line"/>
			<point x="518.902" y="421.452" type="line"/>
			<point x="508.336" y="422.006" type="line"/>
			<point x="504.664" y="432.584" type="line"/>
		</contour>
		<contour>
			<point x="459.291" y="138.977" type="line"/>
			<point x="482.993" y="109.167" type="line"/>
			<point x="477.013" y="73.813" type="line"/>
			<point x="438.299" y="76.784" type="line"/>
			<point x="423.231" y="114.655" type="line"/>
		</contour>
	</outline>
</glyph>
<glyph name="five" format="2">
	<advance width="690"/>
	<unicode hex="0035"/>
	<outline>
		<contour>
			<point x="319.813" y="8.495" type="line"/>
			<point x="373.703" y="-21.411" type="line"/>
			<point x="399.994" y="11.085" type="line"/>
			<point x="445.167" y="-19.339" type="line"/>
			<point x="474.426" y="26.597" type="line"/>
			<point x="521.579" y="9.385" type="line"/>
			<point x="540.088" y="56.044" type="line"/>
			<point x="591.169" y="58.115" type="line"/>
			<point x="600.201" y="108.435" type="line"/>
			<point x="640.876" y="111.589" type="line"/>
			<point x="625.325" y="149.306" type="line"/>
			<point x="656.398" y="159.826" type="line"/>
			<point x="638.267" y="187.166" type="line"/>
			<point x="679.76" y="204.005" type="line"/>
			<point x="643.892" y="230.815" type="line"/>
			<point x="666.263" y="258.738" type="line"/>
			<point x="638.874" y="281.759" type="line"/>
			<point x="644.785" y="328.456" type="line"/>
			<point x="605.332" y="354.128" type="line"/>
			<point x="594.16" y="397.078" type="line"/>
			<point x="550.916" y="407.053" type="line"/>
			<point x="531.219" y="444.042" type="line"/>
			<point x="489.897" y="437.06" type="line"/>
			<point x="457.655" y="459.82" type="line"/>
			<point x="420" y="448" type="line"/>
			<point x="397.258" y="463.143" type="line"/>
			<point x="375.89" y="446.115" type="line"/>
			<point x="330.27" y="449.646" type="line"/>
			<point x="297.56" y="417.651" type="line"/>
			<point x="278.091" y="437.996" type="line"/>
			<point x="263.647" y="413.824" type="line"/>
			<point x="289.406" y="449.148" type="line"/>
			<point x="272.029" y="489.265" type="line"/>
			<point x="306.448" y="497.64" type="line"/>
			<point x="283.949" y="525" type="line"/>
			<point x="307.795" y="510.3" type="line"/>
			<point x="331.641" y="525" type="line"/>
			<point x="371.385" y="501.2" type="line"/>
			<point x="411.128" y="525" type="line"/>
			<point x="438.949" y="499.8" type="line"/>
			<point x="466.769" y="525" type="line"/>
			<point x="508.5" y="499.8" type="line"/>
			<point x="550.231" y="525" type="line"/>
			<point x="577.237" y="521.553" type="line"/>
			<point x="593" y="543.75" type="line"/>
			<point x="625" y="573.125" type="line"/>
			<point x="593" y="602.5" type="line"/>
			<point x="631" y="629.917" type="line"/>
			<point x="593" y="657.333" type="line"/>
			<point x="589.628" y="690.394" type="line"/>
			<point x="558.062" y="680" type="line"/>
			<point x="530.125" y="701" type="line"/>
			<point x="502.187" y="680" type="line"/>
			<point x="482.232" y="717" type="line"/>
			<point x="462.277" y="680" type="line"/>
			<point x="442.321" y="710" type="line"/>
			<point x="422.366" y="680" type="line"/>
			<point x="388.442" y="703" type="line"/>
			<point x="354.518" y="680" type="line"/>
			<point x="322.589" y="700" type="line"/>
			<point x="290.661" y="680" type="line"/>
			<point x="256.737" y="701" type="line"/>
			<point x="222.812" y="680" type="line"/>
			<point x="200.862" y="704" type="line"/>
			<point x="178.911" y="680" type="line"/>
			<point x="144.2" y="703.784" type="line"/>
			<point x="120.999" y="668.681" type="line"/>
			<point x="80.681" y="642.936" type="line"/>
			<point x="113.846" y="608.462" type="line"/>
			<point x="91.111" y="584.878" type="line"/>
			<point x="108.132" y="556.89" type="line"/>
			<point x="67.621" y="527.245" type="line"/>
			<point x="100.659" y="489.451" type="line"/>
			<point x="74.388" y="470.275" type="line"/>
			<point x="95.824" y="445.813" type="line"/>
			<point x="56.641" y="409.997" type="line"/>
			<point x="87.033" y="366.473" type="line"/>
			<point x="64.957" y="348.84" type="line"/>
			<point x="82.637" y="326.802" type="line"/>
			<point x="89.527" y="303.442" type="line"/>
			<point x="113.84" y="302" type="line"/>
			<point x="155.63" y="278.9" type="line"/>
			<point x="197.42" y="302" type="line"/>
			<point x="219.31" y="287.3" type="line"/>
			<point x="241.2" y="302" type="line"/>
			<point x="271.814" y="292.501" type="line"/>
			<point x="296.299" y="313.187" type="line"/>
			<point x="330.118" y="294.789" type="line"/>
			<point x="353.166" y="325.626" type="line"/>
			<point x="371.376" y="302.277" type="line"/>
			<point x="400.9" y="304.54" type="line"/>
			<point x="390.189" y="274.062" type="line"/>
			<point x="422.265" y="270.22" type="line"/>
			<point x="379.226" y="238.572" type="line"/>
			<point x="411.386" y="195.914" type="line"/>
			<point x="375.6" y="202.29" type="line"/>
			<point x="369.776" y="166.41" type="line"/>
			<point x="341.808" y="182.284" type="line"/>
			<point x="313.32" y="167.363" type="line"/>
			<point x="302.266" y="201.195" type="line"/>
			<point x="267" y="206" type="line"/>
			<point x="226.651" y="223.936" type="line"/>
			<point x="183.627" y="214" type="line"/>
			<point x="144.02" y="228.7" type="line"/>
			<point x="104.412" y="214" type="line"/>
			<point x="66.523" y="230.884" type="line"/>
			<point x="44.053" y="196.016" type="line"/>
			<point x="30.127" y="158.637" type="line"/>
			<point x="62.21" y="134.934" type="line"/>
			<point x="60.809" y="81.988" type="line"/>
			<point x="113.151" y="73.893" type="line"/>
			<point x="118.754" y="38.209" type="line"/>
			<point x="153.532" y="47.966" type="line"/>
			<point x="178.109" y="-1.395" type="line"/>
			<point x="228.641" y="20.674" type="line"/>
			<point x="248.192" y="-18.311" type="line"/>
			<point x="279.893" y="11.641" type="line"/>
			<point x="296.946" y="-26.818" type="line"/>
		</contour>
		<contour>
			<point x="439.89" y="608.139" type="line"/>
			<point x="412.232" y="562.35" type="line"/>
			<point x="355.166" y="571.575" type="line"/>
			<point x="362.774" y="625.137" type="line"/>
			<point x="402.258" y="634.109" type="line"/>
		</contour>
		<contour>
			<point x="502.355" y="601.012" type="line"/>
			<point x="518.858" y="577.282" type="line"/>
			<point x="497.158" y="560.437" type="line"/>
			<point x="474.813" y="569.5" type="line"/>
			<point x="475.165" y="596.059" type="line"/>
		</contour>
		<contour>
			<point x="537.086" y="305.173" type="line"/>
			<point x="542.063" y="256.581" type="line"/>
			<point x="495.388" y="240.397" type="line"/>
			<point x="451.075" y="277.122" type="line"/>
			<point x="488.798" y="324.812" type="line"/>
		</contour>
		<contour>
			<point x="442.969" y="364.649" type="line"/>
			<point x="439.82" y="352.686" type="line"/>
			<point x="426.697" y="348.63" type="line"/>
			<point x="419.257" y="362.671" type="line"/>
			<point x="431.903" y="368.933" type="line"/>
		</contour>
		<contour>
			<point x="251.069" y="645.164" type="line"/>
			<point x="252.675" y="568.143" type="line"/>
			<point x="184.765" y="549.874" type="line"/>
			<point x="152.064" y="600.54" type="line"/>
			<point x="184.307" y="641.277" type="line"/>
		</contour>
		<contour>
			<point x="261.809" y="193.118" type="line"/>
			<point x="293.397" y="123.371" type="line"/>
			<point x="239.12" y="91.623" type="line"/>
			<point x="191.384" y="110.404" type="line"/>
			<point x="191.717" y="170.901" type="line"/>
		</contour>
		<contour>
			<point x="220.115" y="475.245" type="line"/>
			<point x="216.377" y="423.106" type="line"/>
			<point x="181.729" y="387.186" type="line"/>
			<point x="148" y="427.227" type="line"/>
			<point x="163.853" y="472.858" type="line"/>
		</contour>
		<contour>
			<point x="356.915" y="125.43" type="line"/>
			<point x="377.799" y="98.29" type="line"/>
			<point x="359.03" y="77.78" type="line"/>
			<point x="330.522" y="75.904" type="line"/>
			<point x="323.887" y="110.029" type="line"/>
		</contour>
		<contour>
			<point x="506.326" y="200.229" type="line"/>
			<point x="504.708" y="184.947" type="line"/>
			<point x="489.438" y="174.881" type="line"/>
			<point x="484" y="192" type="line"/>
			<point x="491.601" y="202.462" type="line"/>
		</contour>
		<contour>
			<point x="419.762" y="318.935" type="line"/>
			<point x="416.769" y="309.368" type="line"/>
			<point x="403" y="306.275" type="line"/>
			<point x="404.583" y="319.997" type="line"/>
			<point x="412.907" y="329.968" type="line"/>
		</contour>
		<contour>
			<point x="106.982" y="170.68" type="line"/>
			<point x="100.809" y="152.262" type="line"/>
			<point x="83.897" y="161.819" type="line"/>
			<point x="75.549" y="181.982" type="line"/>
			<point x="98.659" y="187.387" type="line"/>
		</contour>
		<contour>
			<point x="447.97" y="414.23" type="line"/>
			<point x="450.119" y="396.728" type="line"/>
			<point x="434.71" y="392.22" type="line"/>
			<point x="427.075" y="402.781" type="line"/>
			<point x="432.351" y="413.969" type="line"/>
		</contour>
	</outline>
</glyph>
<glyph name="eight" format="2">
	<advance width="712"/>
	<unicode hex="0038"/>
	<outline>
		<contour>
			<point x="310.614" y="11.557" type="line"/>
			<point x="392.284" y="-7.809" type="line"/>
			<point x="427.183" y="14.311" type="line"/>
			<point x="473.991" y="-1.819" type="line"/>
			<point x="509.399" y="32.785" type="line"/>
			<point x="550.341" y="21.066" type="line"/>
			<point x="567.499" y="60.044" type="line"/>
			<point x="617.466" y="54.707" type="line"/>
			<point x="618.572" y="104.946" type="line"/>
			<point x="649.71" y="117.141" type="line"/>
			<point x="644.37" y="150.152" type="line"/>
			<point x="674.524" y="172.538" type="line"/>
			<point x="655.712" y="205.042" type="line"/>
			<point x="679.506" y="240.199" type="line"/>
			<point x="647.74" y="268.36" type="line"/>
			<point x="655.458" y="310.555" type="line"/>
			<point x="614.868" y="324.426" type="line"/>
			<point x="623.908" y="371.575" type="line"/>
			<point x="576" y="374.667" type="line"/>
			<point x="620.894" y="371.89" type="line"/>
			<point x="600.685" y="412.074" type="line"/>
			<point x="631.957" y="429.636" type="line"/>
			<point x="622.681" y="464.282" type="line"/>
			<point x="647.357" y="496.743" type="line"/>
			<point x="624.044" y="530.197" type="line"/>
			<point x="648.593" y="570.211" type="line"/>
			<point x="604.88" y="587.328" type="line"/>
			<point x="594.48" y="636.142" type="line"/>
			<point x="545.748" y="646.921" type="line"/>
			<point x="513.861" y="681.108" type="line"/>
			<point x="467.208" y="678.12" type="line"/>
			<point x="441.42" y="708.583" type="line"/>
			<point x="407.405" y="687.702" type="line"/>
			<point x="367.757" y="716.529" type="line"/>
			<point x="326.95" y="689.367" type="line"/>
			<point x="304.231" y="720.58" type="line"/>
			<point x="287.019" y="686.023" type="line"/>
			<point x="260.45" y="709.764" type="line"/>
			<point x="243.621" y="678.358" type="line"/>
			<point x="193.697" y="691.221" type="line"/>
			<point x="165.41" y="648.12" type="line"/>
			<point x="129.318" y="655.638" type="line"/>
			<point x="127.434" y="618.819" type="line"/>
			<point x="92.261" y="620.64" type="line"/>
			<point x="103.078" y="587.122" type="line"/>
			<point x="64.917" y="573.799" type="line"/>
			<point x="84.763" y="538.587" type="line"/>
			<point x="54.713" y="508.017" type="line"/>
			<point x="82.631" y="475.488" type="line"/>
			<point x="69.201" y="443.099" type="line"/>
			<point x="99.401" y="425.284" type="line"/>
			<point x="94.828" y="392.016" type="line"/>
			<point x="128.395" y="391.08" type="line"/>
			<point x="104.697" y="367.919" type="line"/>
			<point x="134.347" y="353.125" type="line"/>
			<point x="102.089" y="358.51" type="line"/>
			<point x="99.205" y="325.933" type="line"/>
			<point x="58.282" y="324.861" type="line"/>
			<point x="71.568" y="286.14" type="line"/>
			<point x="42.335" y="250.167" type="line"/>
			<point x="56.328" y="205.977" type="line"/>
			<point x="30.059" y="160.054" type="line"/>
			<point x="75.399" y="132.791" type="line"/>
			<point x="65.652" y="82.063" type="line"/>
			<point x="117.245" y="79.517" type="line"/>
			<point x="136.036" y="33.261" type="line"/>
			<point x="185.692" y="38.457" type="line"/>
			<point x="202.419" y="-2.312" type="line"/>
			<point x="239.254" y="21.877" type="line"/>
			<point x="270.497" y="-13.964" type="line"/>
		</contour>
		<contour>
			<point x="364.282" y="138.336" type="line"/>
			<point x="336.974" y="151.575" type="line"/>
			<point x="315.427" y="144.874" type="line"/>
			<point x="308.987" y="170.74" type="line"/>
			<point x="282.523" y="167.559" type="line"/>
			<point x="289.877" y="192.808" type="line"/>
			<point x="266.011" y="203.853" type="line"/>
			<point x="280.582" y="223.098" type="line"/>
			<point x="269.78" y="244.685" type="line"/>
			<point x="294.599" y="251.169" type="line"/>
			<point x="293.348" y="276.79" type="line"/>
			<point x="317.849" y="271.259" type="line"/>
			<point x="329.757" y="293.374" type="line"/>
			<point x="350.924" y="281.439" type="line"/>
			<point x="371.111" y="294.965" type="line"/>
			<point x="386.614" y="278.299" type="line"/>
			<point x="409.067" y="282.042" type="line"/>
			<point x="415.312" y="260.485" type="line"/>
			<point x="436.499" y="253.08" type="line"/>
			<point x="423.439" y="229.404" type="line"/>
			<point x="444.908" y="212.966" type="line"/>
			<point x="423.051" y="198.926" type="line"/>
			<point x="432.99" y="174.924" type="line"/>
			<point x="410.895" y="169.862" type="line"/>
			<point x="403.031" y="148.603" type="line"/>
			<point x="380.77" y="154.363" type="line"/>
		</contour>
		<contour>
			<point x="364.128" y="413.368" type="line"/>
			<point x="337.788" y="430.562" type="line"/>
			<point x="315.029" y="421.25" type="line"/>
			<point x="309.141" y="445.912" type="line"/>
			<point x="283.819" y="447.223" type="line"/>
			<point x="295.758" y="472.415" type="line"/>
			<point x="272" y="487" type="line"/>
			<point x="288.923" y="503.193" type="line"/>
			<point x="283.252" y="525.919" type="line"/>
			<point x="307.899" y="528.317" type="line"/>
			<point x="314.061" y="552.302" type="line"/>
			<point x="338.4" y="538.437" type="line"/>
			<point x="355" y="561" type="line"/>
			<point x="371.099" y="539.415" type="line"/>
			<point x="394.093" y="553.428" type="line"/>
			<point x="400.469" y="529.293" type="line"/>
			<point x="425.432" y="529.189" type="line"/>
			<point x="417.385" y="505.275" type="line"/>
			<point x="438.84" y="491.996" type="line"/>
			<point x="423.083" y="474.682" type="line"/>
			<point x="430.32" y="452.417" type="line"/>
			<point x="409.039" y="445.807" type="line"/>
			<point x="402.248" y="424.584" type="line"/>
			<point x="380.422" y="428.377" type="line"/>
		</contour>
		<contour>
			<point x="219.687" y="322.874" type="line"/>
			<point x="233.101" y="253.457" type="line"/>
			<point x="166.742" y="226.084" type="line"/>
			<point x="131.35" y="278.272" type="line"/>
			<point x="151.798" y="340.191" type="line"/>
		</contour>
		<contour>
			<point x="335.082" y="664.14" type="line"/>
			<point x="325.898" y="642.436" type="line"/>
			<point x="305.371" y="645.222" type="line"/>
			<point x="296.09" y="664.511" type="line"/>
			<point x="315.384" y="679.997" type="line"/>
		</contour>
		<contour>
			<point x="542.729" y="518.929" type="line"/>
			<point x="538.796" y="512.855" type="line"/>
			<point x="531.075" y="510.696" type="line"/>
			<point x="528.482" y="519.736" type="line"/>
			<point x="536.209" y="522.996" type="line"/>
		</contour>
		<contour>
			<point x="489.76" y="338.621" type="line"/>
			<point x="485.612" y="309.563" type="line"/>
			<point x="462.565" y="300.716" type="line"/>
			<point x="450.025" y="320.058" type="line"/>
			<point x="457.966" y="347.14" type="line"/>
		</contour>
		<contour>
			<point x="295.987" y="105.172" type="line"/>
			<point x="318.878" y="81.211" type="line"/>
			<point x="293.524" y="55.743" type="line"/>
			<point x="256.142" y="65.459" type="line"/>
			<point x="259.076" y="108.274" type="line"/>
		</contour>
		<contour>
			<point x="199.994" y="517.151" type="line"/>
			<point x="213.979" y="478.152" type="line"/>
			<point x="174.904" y="446.179" type="line"/>
			<point x="147.82" y="485.802" type="line"/>
			<point x="155.823" y="531.573" type="line"/>
		</contour>
		<contour>
			<point x="194.958" y="611.344" type="line"/>
			<point x="197.955" y="604.269" type="line"/>
			<point x="193.526" y="597.147" type="line"/>
			<point x="185.003" y="601.122" type="line"/>
			<point x="187.612" y="609.092" type="line"/>
		</contour>
		<contour>
			<point x="447.346" y="46.724" type="line"/>
			<point x="448.364" y="37.636" type="line"/>
			<point x="437.006" y="34.199" type="line"/>
			<point x="435.086" y="45.095" type="line"/>
			<point x="440.749" y="51.902" type="line"/>
		</contour>
		<contour>
			<point x="581.157" y="107.804" type="line"/>
			<point x="581.184" y="95.224" type="line"/>
			<point x="566.697" y="92.63" type="line"/>
			<point x="561.22" y="106.29" type="line"/>
			<point x="572.147" y="110.948" type="line"/>
		</contour>
		<contour>
			<point x="578.574" y="477.519" type="line"/>
			<point x="591.901" y="457.882" type="line"/>
			<point x="583.762" y="434.075" type="line"/>
			<point x="550.963" y="435.257" type="line"/>
			<point x="552.349" y="468.5" type="line"/>
		</contour>
		<contour>
			<point x="512.346" y="562.716" type="line"/>
			<point x="516.308" y="555.746" type="line"/>
			<point x="508.268" y="552.038" type="line"/>
			<point x="504.109" y="557.96" type="line"/>
			<point x="505.5" y="565.062" type="line"/>
		</contour>
		<contour>
			<point x="525.74" y="236.107" type="line"/>
			<point x="532.959" y="210.814" type="line"/>
			<point x="521.806" y="188.713" type="line"/>
			<point x="493.103" y="197.692" type="line"/>
			<point x="497.615" y="227.427" type="line"/>
		</contour>
		<contour>
			<point x="150.84" y="179.192" type="line"/>
			<point x="151.167" y="151.556" type="line"/>
			<point x="120.931" y="133.852" type="line"/>
			<point x="96.005" y="166.628" type="line"/>
			<point x="120.89" y="202.34" type="line"/>
		</contour>
	</outline>
</glyph>
<glyph name="colon" format="2">
	<advance width="322"/>
	<unicode hex="003A"/>
	<outline>
		<contour>
			<point x="57" y="385" type="line"/>
			<point x="99.705" y="338.3" type="line"/>
			<point x="125.409" y="360" type="line"/>
			<point x="162.977" y="333.4" type="line"/>
			<point x="200.545" y="360" type="line"/>
			<point x="222.295" y="334.1" type="line"/>
			<point x="244.045" y="360" type="line"/>
			<point x="267.849" y="376.295" type="line"/>
			<point x="265" y="405" type="line"/>
			<point x="295" y="447" type="line"/>
			<point x="265" y="489" type="line"/>
			<point x="298" y="513" type="line"/>
			<point x="265" y="537" type="line"/>
			<point x="247.896" y="564.209" type="line"/>
			<point x="216.364" y="558" type="line"/>
			<point x="190.659" y="580" type="line"/>
			<point x="164.955" y="558" type="line"/>
			<point x="133.318" y="587" type="line"/>
			<point x="101.682" y="558" type="line"/>
			<point x="70.112" y="561.994" type="line"/>
			<point x="57" y="533" type="line"/>
			<point x="37" y="513" type="line"/>
			<point x="57" y="493" type="line"/>
			<point x="27" y="473" type="line"/>
			<point x="57" y="453" type="line"/>
			<point x="35" y="419" type="line"/>
		</contour>
		<contour>
			<point x="57" y="31" type="line"/>
			<point x="93.773" y="-16" type="line"/>
			<point x="113.545" y="10" type="line"/>
			<point x="149.136" y="-22" type="line"/>
			<point x="184.727" y="10" type="line"/>
			<point x="224.61" y="-22.599" type="line"/>
			<point x="260.168" y="14.669" type="line"/>
			<point x="297.506" y="48.502" type="line"/>
			<point x="265" y="87" type="line"/>
			<point x="296" y="107" type="line"/>
			<point x="265" y="127" type="line"/>
			<point x="304" y="159" type="line"/>
			<point x="265" y="191" type="line"/>
			<point x="245.365" y="228.23" type="line"/>
			<point x="208.455" y="208" type="line"/>
			<point x="168.909" y="222.7" type="line"/>
			<point x="129.364" y="208" type="line"/>
			<point x="107.614" y="235.3" type="line"/>
			<point x="85.864" y="208" type="line"/>
			<point x="60.517" y="204.364" type="line"/>
			<point x="57" y="179" type="line"/>
			<point x="37" y="155" type="line"/>
			<point x="57" y="131" type="line"/>
			<point x="37" y="105" type="line"/>
			<point x="57" y="79" type="line"/>
			<point x="36" y="55" type="line"/>
		</contour>
		<contour>
			<point x="224.42" y="42.79" type="line"/>
			<point x="226.583" y="25.863" type="line"/>
			<point x="212.747" y="23.088" type="line"/>
			<point x="200.213" y="29.569" type="line"/>
			<point x="207.427" y="44.361" type="line"/>
		</contour>
		<contour>
			<point x="181" y="407" type="line"/>
			<point x="155.271" y="378.468" type="line"/>
			<point x="113.639" y="383.489" type="line"/>
			<point x="124.966" y="422.282" type="line"/>
			<point x="154.343" y="432.679" type="line"/>
		</contour>
		<contour>
			<point x="102.811" y="111.529" type="line"/>
			<point x="101.572" y="97.85" type="line"/>
			<point x="91.2" y="95.205" type="line"/>
			<point x="82.042" y="102.041" type="line"/>
			<point x="89.483" y="111.285" type="line"/>
		</contour>
		<contour>
			<point x="173.283" y="116.592" type="line"/>
			<point x="173.143" y="108.91" type="line"/>
			<point x="165.301" y="100.308" type="line"/>
			<point x="156.046" y="110.954" type="line"/>
			<point x="163.311" y="123.046" type="line"/>
		</contour>
		<contour>
			<point x="169.986" y="79.896" type="line"/>
			<point x="186.585" y="64.95" type="line"/>
			<point x="175" y="48.876" type="line"/>
			<point x="157.294" y="49.11" type="line"/>
			<point x="154.297" y="67.101" type="line"/>
		</contour>
		<contour>
			<point x="230.142" y="494.142" type="line"/>
			<point x="227.583" y="474.098" type="line"/>
			<point x="214.123" y="468.148" type="line"/>
			<point x="196.246" y="476.871" type="line"/>
			<point x="206.92" y="497.82" type="line"/>
		</contour>
		<contour>
			<point x="132.949" y="196.436" type="line"/>
			<point x="141.947" y="176.22" type="line"/>
			<point x="133.47" y="162.113" type="line"/>
			<point x="113.661" y="162.535" type="line"/>
			<point x="116.857" y="181.695" type="line"/>
		</contour>
		<contour>
			<point x="253.923" y="127.463" type="line"/>
			<point x="248.541" y="106.816" type="line"/>
			<point x="226.623" y="113.956" type="line"/>
			<point x="228.742" y="132.5" type="line"/>
			<point x="243.534" y="142.629" type="line"/>
		</contour>
	</outline>
</glyph>
<glyph name="semicolon" format="2">
	<advance width="325"/>
	<unicode hex="003B"/>
	<outline>
		<contour>
			<point x="31.426" y="-38.197" type="line"/>
			<point x="60.423" y="-91" type="line"/>
			<point x="79.846" y="-65" type="line"/>
			<point x="113.099" y="-101.895" type="line"/>
			<point x="146.117" y="-64.791" type="line"/>
			<point x="187.513" y="-55.461" type="line"/>
			<point x="186.231" y="-13.046" type="line"/>
			<point x="225.17" y="-6.976" type="line"/>
			<point x="200.846" y="24.031" type="line"/>
			<point x="247.823" y="50.493" type="line"/>
			<point x="231.538" y="101.892" type="line"/>
			<point x="269.148" y="112.77" type="line"/>
			<point x="249.077" y="146.385" type="line"/>
			<point x="284.427" y="162.437" type="line"/>
			<point x="269.538" y="198.292" type="line"/>
			<point x="251.071" y="232.505" type="line"/>
			<point x="215" y="218" type="line"/>
			<point x="187" y="241.1" type="line"/>
			<point x="159" y="218" type="line"/>
			<point x="120.041" y="236.988" type="line"/>
			<point x="83.28" y="214.033" type="line"/>
			<point x="39.018" y="199.874" type="line"/>
			<point x="61.754" y="159.344" type="line"/>
			<point x="22.307" y="133.049" type="line"/>
			<point x="52.049" y="96.131" type="line"/>
			<point x="9.109" y="60.262" type="line"/>
			<point x="39.311" y="13.164" type="line"/>
			<point x="7.693" y="-8.267" type="line"/>
		</contour>
		<contour>
			<point x="71" y="393" type="line"/>
			<point x="119.636" y="341.8" type="line"/>
			<point x="151.273" y="360" type="line"/>
			<point x="192.795" y="337.6" type="line"/>
			<point x="234.318" y="360" type="line"/>
			<point x="273.548" y="365.731" type="line"/>
			<point x="279" y="405" type="line"/>
			<point x="306" y="433" type="line"/>
			<point x="279" y="461" type="line"/>
			<point x="299" y="485" type="line"/>
			<point x="279" y="509" type="line"/>
			<point x="294.119" y="541.694" type="line"/>
			<point x="262" y="558" type="line"/>
			<point x="236.295" y="585" type="line"/>
			<point x="210.591" y="558" type="line"/>
			<point x="175" y="592" type="line"/>
			<point x="139.409" y="558" type="line"/>
			<point x="99.416" y="572.792" type="line"/>
			<point x="71" y="541" type="line"/>
			<point x="43" y="507" type="line"/>
			<point x="71" y="473" type="line"/>
			<point x="49" y="453" type="line"/>
			<point x="71" y="433" type="line"/>
			<point x="34" y="413" type="line"/>
		</contour>
		<contour>
			<point x="183.716" y="80.703" type="line"/>
			<point x="178.5" y="65.01" type="line"/>
			<point x="160.963" y="66.853" type="line"/>
			<point x="158.21" y="83.694" type="line"/>
			<point x="172.254" y="89.934" type="line"/>
		</contour>
		<contour>
			<point x="75.572" y="-19.244" type="line"/>
			<point x="73.83" y="-39.153" type="line"/>
			<point x="51.622" y="-50.092" type="line"/>
			<point x="41.076" y="-26.257" type="line"/>
			<point x="55.826" y="-5.589" type="line"/>
		</contour>
		<contour>
			<point x="159.466" y="510.857" type="line"/>
			<point x="177.48" y="453.006" type="line"/>
			<point x="126.168" y="437.048" type="line"/>
			<point x="85.499" y="460.612" type="line"/>
			<point x="110.027" y="499.676" type="line"/>
		</contour>
		<contour>
			<point x="169.419" y="47.993" type="line"/>
			<point x="180.535" y="39.308" type="line"/>
			<point x="175.151" y="26.881" type="line"/>
			<point x="160.381" y="24.968" type="line"/>
			<point x="157.724" y="40.104" type="line"/>
		</contour>
		<contour>
			<point x="263.192" y="402.998" type="line"/>
			<point x="271.607" y="394.631" type="line"/>
			<point x="269.309" y="382.989" type="line"/>
			<point x="253.973" y="380.02" type="line"/>
			<point x="252.599" y="395.581" type="line"/>
		</contour>
		<contour>
			<point x="122.624" y="163.359" type="line"/>
			<point x="145.89" y="141.528" type="line"/>
			<point x="126.378" y="116.908" type="line"/>
			<point x="99.642" y="123.911" type="line"/>
			<point x="96.428" y="151.361" type="line"/>
		</contour>
		<contour>
			<point x="242.188" y="515.505" type="line"/>
			<point x="248.436" y="491.403" type="line"/>
			<point x="231.674" y="472.058" type="line"/>
			<point x="204.039" y="485.511" type="line"/>
			<point x="210.074" y="519.747" type="line"/>
		</contour>
	</outline>
</glyph>
<glyph name="greater" format="2">
	<advance width="538"/>
	<unicode hex="003E"/>
	<outline>
		<contour>
			<point x="63" y="62.659" type="line"/>
			<point x="114.132" y="13.439" type="line"/>
			<point x="122.868" y="54.008" type="line"/>
			<point x="175.491" y="43.735" type="line"/>
			<point x="185.521" y="96.405" type="line"/>
			<point x="232.604" y="87.213" type="line"/>
			<point x="241.579" y="134.339" type="line"/>
			<point x="283.025" y="137.029" type="line"/>
			<point x="300.934" y="174.504" type="line"/>
			<point x="340.237" y="169.707" type="line"/>
			<point x="350.397" y="207.975" type="line"/>
			<point x="386.467" y="193.746" type="line"/>
			<point x="386.669" y="232.521" type="line"/>
			<point x="428.279" y="217.21" type="line"/>
			<point x="429.537" y="261.529" type="line"/>
			<point x="469.947" y="258.687" type="line"/>
			<point x="482.336" y="297.256" type="line"/>
			<point x="508.615" y="329.59" type="line"/>
			<point x="504" y="371" type="line"/>
			<point x="503.255" y="405.667" type="line"/>
			<point x="469.107" y="411.694" type="line"/>
			<point x="454.099" y="464.111" type="line"/>
			<point x="399.86" y="458.554" type="line"/>
			<point x="395.767" y="495.132" type="line"/>
			<point x="360.289" y="485.331" type="line"/>
			<point x="346.304" y="528.603" type="line"/>
			<point x="300.934" y="525.496" type="line"/>
			<point x="294.567" y="555.161" type="line"/>
			<point x="264.661" y="550.041" type="line"/>
			<point x="261.787" y="599.077" type="line"/>
			<point x="215.198" y="583.512" type="line"/>
			<point x="209.489" y="624.806" type="line"/>
			<point x="169.033" y="614.752" type="line"/>
			<point x="169.456" y="661.556" type="line"/>
			<point x="126.165" y="643.76" type="line"/>
			<point x="119.798" y="673.425" type="line"/>
			<point x="89.893" y="668.306" type="line"/>
			<point x="68.884" y="674.141" type="line"/>
			<point x="63" y="653.146" type="line"/>
			<point x="25" y="611.659" type="line"/>
			<point x="63" y="570.171" type="line"/>
			<point x="38.131" y="527.142" type="line"/>
			<point x="67.193" y="486.826" type="line"/>
			<point x="66.736" y="448.407" type="line"/>
			<point x="103.5" y="459.571" type="line"/>
			<point x="111.471" y="431.017" type="line"/>
			<point x="140.625" y="436.393" type="line"/>
			<point x="148.263" y="399.794" type="line"/>
			<point x="184.5" y="409" type="line"/>
			<point x="196.965" y="383.888" type="line"/>
			<point x="225" y="383.714" type="line"/>
			<point x="235.033" y="347.816" type="line"/>
			<point x="272.25" y="345.75" type="line"/>
			<point x="243.067" y="354.673" type="line"/>
			<point x="238.5" y="324.5" type="line"/>
			<point x="200.488" y="321.247" type="line"/>
			<point x="181.125" y="288.375" type="line"/>
			<point x="130.503" y="301.407" type="line"/>
			<point x="120.375" y="250.125" type="line"/>
			<point x="74.875" y="249.871" type="line"/>
			<point x="64.082" y="205.668" type="line"/>
			<point x="37.55" y="186.227" type="line"/>
			<point x="63" y="165.39" type="line"/>
			<point x="36" y="139.707" type="line"/>
			<point x="63" y="114.024" type="line"/>
			<point x="40" y="88.341" type="line"/>
		</contour>
		<contour>
			<point x="167.792" y="196.693" type="line"/>
			<point x="165.769" y="187.368" type="line"/>
			<point x="155.858" y="188.872" type="line"/>
			<point x="155.437" y="197.248" type="line"/>
			<point x="161.488" y="201.983" type="line"/>
		</contour>
		<contour>
			<point x="413.801" y="335.994" type="line"/>
			<point x="412.485" y="322.515" type="line"/>
			<point x="400.822" y="324.763" type="line"/>
			<point x="395.111" y="332.408" type="line"/>
			<point x="402.123" y="342.852" type="line"/>
		</contour>
		<contour>
			<point x="292.727" y="282.471" type="line"/>
			<point x="328.471" y="246.727" type="line"/>
			<point x="307.792" y="197.232" type="line"/>
			<point x="257.009" y="211.009" type="line"/>
			<point x="250.36" y="258.16" type="line"/>
		</contour>
		<contour>
			<point x="383.795" y="438.493" type="line"/>
			<point x="395.869" y="409.491" type="line"/>
			<point x="378.653" y="380.699" type="line"/>
			<point x="354.679" y="402" type="line"/>
			<point x="357.137" y="425.383" type="line"/>
		</contour>
		<contour>
			<point x="194.093" y="564.388" type="line"/>
			<point x="202.998" y="551.227" type="line"/>
			<point x="192.93" y="542.49" type="line"/>
			<point x="178.02" y="541.973" type="line"/>
			<point x="182.628" y="556.162" type="line"/>
		</contour>
		<contour>
			<point x="259.239" y="494.784" type="line"/>
			<point x="265.673" y="485.339" type="line"/>
			<point x="255.558" y="480.019" type="line"/>
			<point x="247.583" y="485.003" type="line"/>
			<point x="248.572" y="495.66" type="line"/>
		</contour>
		<contour>
			<point x="476.989" y="311.628" type="line"/>
			<point x="464.814" y="295.025" type="line"/>
			<point x="450.332" y="304.228" type="line"/>
			<point x="447.393" y="318.829" type="line"/>
			<point x="462.583" y="323.496" type="line"/>
		</contour>
		<contour>
			<point x="137.617" y="535.508" type="line"/>
			<point x="133.706" y="517.11" type="line"/>
			<point x="118" y="520.34" type="line"/>
			<point x="113.219" y="531.079" type="line"/>
			<point x="121.014" y="547.896" type="line"/>
		</contour>
		<contour>
			<point x="213.137" y="214.659" type="line"/>
			<point x="209.181" y="199.897" type="line"/>
			<point x="190.107" y="193.227" type="line"/>
			<point x="182.647" y="214.918" type="line"/>
			<point x="199.901" y="230.971" type="line"/>
		</contour>
	</outline>
</glyph>
<glyph name="question" format="2">
	<advance width="653"/>
	<unicode hex="003F"/>
	<outline>
		<contour>
			<point x="237.478" y="317.228" type="line"/>
			<point x="249.778" y="242.7" type="line"/>
			<point x="273.556" y="263" type="line"/>
			<point x="295.352" y="246.9" type="line"/>
			<point x="317.148" y="263" type="line"/>
			<point x="346.87" y="241.3" type="line"/>
			<point x="376.593" y="263" type="line"/>
			<point x="396.407" y="247.6" type="line"/>
			<point x="416.222" y="263" type="line"/>
			<point x="453.297" y="250.867" type="line"/>
			<point x="468" y="287" type="line"/>
			<point x="508.044" y="299.503" type="line"/>
			<point x="514.897" y="340.89" type="line"/>
			<point x="560.57" y="336.467" type="line"/>
			<point x="554.32" y="381.926" type="line"/>
			<point x="590.907" y="386.379" type="line"/>
			<point x="586.626" y="422.986" type="line"/>
			<point x="614.537" y="433.406" type="line"/>
			<point x="606.921" y="462.209" type="line"/>
			<point x="640.007" y="487.585" type="line"/>
			<point x="618" y="523" type="line"/>
			<point x="633.684" y="569.166" type="line"/>
			<point x="595.615" y="599.629" type="line"/>
			<point x="600.692" y="635.504" type="line"/>
			<point x="564.475" y="636.581" type="line"/>
			<point x="555.441" y="686.899" type="line"/>
			<point x="506.349" y="672.632" type="line"/>
			<point x="482.231" y="712.062" type="line"/>
			<point x="440.58" y="692.022" type="line"/>
			<point x="417.783" y="721.101" type="line"/>
			<point x="388.485" y="698.588" type="line"/>
			<point x="362.645" y="738.22" type="line"/>
			<point x="334.93" y="699.876" type="line"/>
			<point x="295.669" y="732.473" type="line"/>
			<point x="262.892" y="693.362" type="line"/>
			<point x="218.363" y="703.977" type="line"/>
			<point x="185.455" y="672.155" type="line"/>
			<point x="144.647" y="695.337" type="line"/>
			<point x="138.764" y="648.774" type="line"/>
			<point x="100.849" y="658.977" type="line"/>
			<point x="100.318" y="619.717" type="line"/>
			<point x="57.535" y="622.15" type="line"/>
			<point x="66.269" y="580.198" type="line"/>
			<point x="31.121" y="561.054" type="line"/>
			<point x="39.623" y="521.944" type="line"/>
			<point x="31.631" y="483.664" type="line"/>
			<point x="64.83" y="463" type="line"/>
			<point x="84.617" y="427" type="line"/>
			<point x="104.404" y="463" type="line"/>
			<point x="124.191" y="427" type="line"/>
			<point x="143.979" y="463" type="line"/>
			<point x="183.553" y="434" type="line"/>
			<point x="223.128" y="463" type="line"/>
			<point x="258.318" y="459.933" type="line"/>
			<point x="268.212" y="493.842" type="line"/>
			<point x="301.467" y="489.677" type="line"/>
			<point x="307.286" y="522.683" type="line"/>
			<point x="329.022" y="494.62" type="line"/>
			<point x="356.911" y="516.579" type="line"/>
			<point x="341.468" y="484.88" type="line"/>
			<point x="366.105" y="459.655" type="line"/>
			<point x="326.677" y="436.805" type="line"/>
			<point x="308.054" y="395.214" type="line"/>
			<point x="276.445" y="398.706" type="line"/>
			<point x="278.927" y="367.001" type="line"/>
			<point x="244.755" y="353.313" type="line"/>
		</contour>
		<contour>
			<point x="221.04" y="18.413" type="line"/>
			<point x="257.88" y="-14" type="line"/>
			<point x="279.761" y="10" type="line"/>
			<point x="315.565" y="-10" type="line"/>
			<point x="351.37" y="10" type="line"/>
			<point x="387.552" y="-12.754" type="line"/>
			<point x="423.421" y="10.49" type="line"/>
			<point x="452.393" y="20.841" type="line"/>
			<point x="436" y="46.875" type="line"/>
			<point x="468" y="82.65" type="line"/>
			<point x="436" y="118.425" type="line"/>
			<point x="460" y="152.212" type="line"/>
			<point x="436" y="186" type="line"/>
			<point x="426.05" y="219.706" type="line"/>
			<point x="395.13" y="203" type="line"/>
			<point x="369.272" y="228.9" type="line"/>
			<point x="343.413" y="203" type="line"/>
			<point x="307.609" y="226.1" type="line"/>
			<point x="271.804" y="203" type="line"/>
			<point x="235.037" y="203.185" type="line"/>
			<point x="219" y="170.1" type="line"/>
			<point x="183" y="142.275" type="line"/>
			<point x="219" y="114.45" type="line"/>
			<point x="194" y="90.6" type="line"/>
			<point x="219" y="66.75" type="line"/>
			<point x="192.045" y="41.401" type="line"/>
		</contour>
		<contour>
			<point x="556.401" y="587.868" type="line"/>
			<point x="564.854" y="558.45" type="line"/>
			<point x="536.95" y="534.133" type="line"/>
			<point x="506.871" y="561.352" type="line"/>
			<point x="520.429" y="601.572" type="line"/>
		</contour>
		<contour>
			<point x="400.999" y="183.862" type="line"/>
			<point x="409.541" y="150.23" type="line"/>
			<point x="390.24" y="112.321" type="line"/>
			<point x="357.811" y="142.321" type="line"/>
			<point x="356.356" y="185.717" type="line"/>
		</contour>
		<contour>
			<point x="428.248" y="371.038" type="line"/>
			<point x="425.669" y="319.63" type="line"/>
			<point x="382.581" y="277.912" type="line"/>
			<point x="338.535" y="329.345" type="line"/>
			<point x="372.835" y="378.345" type="line"/>
		</contour>
		<contour>
			<point x="180.068" y="553.229" type="line"/>
			<point x="157.64" y="500.06" type="line"/>
			<point x="113.043" y="505.862" type="line"/>
			<point x="82.456" y="544.854" type="line"/>
			<point x="127.698" y="565.92" type="line"/>
		</contour>
		<contour>
			<point x="508.884" y="525.473" type="line"/>
			<point x="499.042" y="482.783" type="line"/>
			<point x="468.936" y="477.852" type="line"/>
			<point x="434.025" y="497.569" type="line"/>
			<point x="459.951" y="540.346" type="line"/>
		</contour>
		<contour>
			<point x="572.955" y="448.731" type="line"/>
			<point x="571.226" y="438.937" type="line"/>
			<point x="558.955" y="440.498" type="line"/>
			<point x="560.878" y="451.394" type="line"/>
			<point x="568.526" y="455.853" type="line"/>
		</contour>
		<contour>
			<point x="380.963" y="592.046" type="line"/>
			<point x="370.495" y="579.874" type="line"/>
			<point x="353.743" y="580.715" type="line"/>
			<point x="354.127" y="598.419" type="line"/>
			<point x="370.113" y="607.495" type="line"/>
		</contour>
		<contour>
			<point x="321.275" y="303.35" type="line"/>
			<point x="308.192" y="282.808" type="line"/>
			<point x="289.92" y="274.18" type="line"/>
			<point x="277.271" y="295.442" type="line"/>
			<point x="295.715" y="312.741" type="line"/>
		</contour>
		<contour>
			<point x="330.824" y="580.382" type="line"/>
			<point x="334.346" y="566.093" type="line"/>
			<point x="322.773" y="557.002" type="line"/>
			<point x="310.568" y="566.199" type="line"/>
			<point x="318.411" y="576.553" type="line"/>
		</contour>
		<contour>
			<point x="423.092" y="103.388" type="line"/>
			<point x="424.438" y="96.464" type="line"/>
			<point x="418.391" y="94.037" type="line"/>
			<point x="413.11" y="97.855" type="line"/>
			<point x="416.576" y="103.373" type="line"/>
		</contour>
		<contour>
			<point x="304.156" y="196.914" type="line"/>
			<point x="311.991" y="179.511" type="line"/>
			<point x="301.859" y="166.542" type="line"/>
			<point x="283.906" y="170.494" type="line"/>
			<point x="283.816" y="191.082" type="line"/>
		</contour>
	</outline>
</glyph>
<glyph name="B" format="2">
	<advance width="734"/>
	<unicode hex="0042"/>
	<outline>
		<contour>
			<point x="75" y="82.827" type="line"/>
			<point x="107.849" y="-11" type="line"/>
			<point x="133.698" y="20" type="line"/>
			<point x="155.57" y="-6" type="line"/>
			<point x="177.442" y="20" type="line"/>
			<point x="217.209" y="-18" type="line"/>
			<point x="256.977" y="20" type="line"/>
			<point x="294.756" y="-6" type="line"/>
			<point x="332.535" y="20" type="line"/>
			<point x="358.384" y="-10" type="line"/>
			<point x="384.233" y="20" type="line"/>
			<point x="404.116" y="-3" type="line"/>
			<point x="424" y="20" type="line"/>
			<point x="468.697" y="-13.873" type="line"/>
			<point x="508.073" y="26.062" type="line"/>
			<point x="540.372" y="2.879" type="line"/>
			<point x="558.848" y="38.083" type="line"/>
			<point x="603.61" y="24.801" type="line"/>
			<point x="619.58" y="68.676" type="line"/>
			<point x="662.532" y="88.054" type="line"/>
			<point x="670.758" y="134.452" type="line"/>
			<point x="707.369" y="161.203" type="line"/>
			<point x="685.385" y="200.859" type="line"/>
			<point x="705.337" y="242.08" type="line"/>
			<point x="673.896" y="275.377" type="line"/>
			<point x="683.799" y="314.07" type="line"/>
			<point x="644.155" y="318.923" type="line"/>
			<point x="639.053" y="354.821" type="line"/>
			<point x="602.8" y="354.2" type="line"/>
			<point x="651.391" y="362.324" type="line"/>
			<point x="637.11" y="409.474" type="line"/>
			<point x="683.129" y="420.383" type="line"/>
			<point x="667.884" y="465.153" type="line"/>
			<point x="703.672" y="499.847" type="line"/>
			<point x="667.462" y="534.099" type="line"/>
			<point x="689.946" y="566.278" type="line"/>
			<point x="653.207" y="580.108" type="line"/>
			<point x="666.245" y="621.729" type="line"/>
			<point x="622.633" y="622.228" type="line"/>
			<point x="620.015" y="669.39" type="line"/>
			<point x="575.715" y="653.001" type="line"/>
			<point x="540.511" y="684.261" type="line"/>
			<point x="494.356" y="674.973" type="line"/>
			<point x="474.728" y="702.918" type="line"/>
			<point x="450.268" y="679.088" type="line"/>
			<point x="428.752" y="709.537" type="line"/>
			<point x="406" y="680" type="line"/>
			<point x="374" y="719" type="line"/>
			<point x="342" y="680" type="line"/>
			<point x="302" y="712" type="line"/>
			<point x="262" y="680" type="line"/>
			<point x="220" y="704" type="line"/>
			<point x="178" y="680" type="line"/>
			<point x="154" y="719" type="line"/>
			<point x="130" y="680" type="line"/>
			<point x="102.663" y="702" type="line"/>
			<point x="77.033" y="678.032" type="line"/>
			<point x="45.043" y="654.872" type="line"/>
			<point x="75" y="629.136" type="line"/>
			<point x="51" y="609.198" type="line"/>
			<point x="75" y="589.259" type="line"/>
			<point x="43" y="549.383" type="line"/>
			<point x="75" y="509.506" type="line"/>
			<point x="42" y="471.623" type="line"/>
			<point x="75" y="433.741" type="line"/>
			<point x="39" y="413.802" type="line"/>
			<point x="75" y="393.864" type="line"/>
			<point x="45" y="373.926" type="line"/>
			<point x="75" y="353.988" type="line"/>
			<point x="54" y="334.049" type="line"/>
			<point x="75" y="314.111" type="line"/>
			<point x="40" y="284.204" type="line"/>
			<point x="75" y="254.296" type="line"/>
			<point x="41" y="222.395" type="line"/>
			<point x="75" y="190.494" type="line"/>
			<point x="53" y="160.586" type="line"/>
			<point x="75" y="130.679" type="line"/>
			<point x="51" y="106.753" type="line"/>
		</contour>
		<contour>
			<point x="304.483" y="152" type="line"/>
			<point x="298.23" y="171.714" type="line"/>
			<point x="285" y="191.429" type="line"/>
			<point x="303.62" y="211.143" type="line"/>
			<point x="285" y="230.857" type="line"/>
			<point x="299.7" y="250.571" type="line"/>
			<point x="285" y="270.286" type="line"/>
			<point x="302.06" y="272.91" type="line"/>
			<point x="304.483" y="290" type="line"/>
			<point x="323.966" y="274.81" type="line"/>
			<point x="343.448" y="290" type="line"/>
			<point x="362.931" y="272.85" type="line"/>
			<point x="382.414" y="290" type="line"/>
			<point x="400.353" y="272.207" type="line"/>
			<point x="421.792" y="285.578" type="line"/>
			<point x="428.847" y="262.699" type="line"/>
			<point x="452.667" y="260.289" type="line"/>
			<point x="448.918" y="237.929" type="line"/>
			<point x="464" y="221" type="line"/>
			<point x="446.924" y="204.783" type="line"/>
			<point x="453.499" y="182.17" type="line"/>
			<point x="428.4" y="181.006" type="line"/>
			<point x="422.768" y="156.52" type="line"/>
			<point x="401.118" y="167.408" type="line"/>
			<point x="382.414" y="152" type="line"/>
			<point x="362.931" y="171.11" type="line"/>
			<point x="343.448" y="152" type="line"/>
			<point x="323.966" y="168.66" type="line"/>
		</contour>
		<contour>
			<point x="297" y="417" type="line"/>
			<point x="302.15" y="436.848" type="line"/>
			<point x="285" y="456.697" type="line"/>
			<point x="299.7" y="476.545" type="line"/>
			<point x="285" y="496.394" type="line"/>
			<point x="303.62" y="516.242" type="line"/>
			<point x="285" y="536.091" type="line"/>
			<point x="305.521" y="526.715" type="line"/>
			<point x="313" y="548" type="line"/>
			<point x="333" y="536.73" type="line"/>
			<point x="353" y="548" type="line"/>
			<point x="373.013" y="529.315" type="line"/>
			<point x="393.147" y="547.87" type="line"/>
			<point x="404.889" y="524.022" type="line"/>
			<point x="430.367" y="531.604" type="line"/>
			<point x="428.715" y="507.861" type="line"/>
			<point x="448.893" y="495.239" type="line"/>
			<point x="428.71" y="476.417" type="line"/>
			<point x="444.592" y="453.846" type="line"/>
			<point x="419.431" y="449.306" type="line"/>
			<point x="417.595" y="423.805" type="line"/>
			<point x="394.138" y="439.249" type="line"/>
			<point x="377" y="417" type="line"/>
			<point x="357" y="428.76" type="line"/>
			<point x="337" y="417" type="line"/>
			<point x="317" y="432.19" type="line"/>
		</contour>
		<contour>
			<point x="354.732" y="622.962" type="line"/>
			<point x="360.847" y="617.455" type="line"/>
			<point x="357" y="610.804" type="line"/>
			<point x="348.647" y="610.055" type="line"/>
			<point x="348.519" y="618.44" type="line"/>
		</contour>
		<contour>
			<point x="148.362" y="525.206" type="line"/>
			<point x="160.007" y="494.249" type="line"/>
			<point x="130.901" y="484.029" type="line"/>
			<point x="95.295" y="495.165" type="line"/>
			<point x="115.661" y="530.16" type="line"/>
		</contour>
		<contour>
			<point x="620" y="567" type="line"/>
			<point x="600.343" y="541.321" type="line"/>
			<point x="576.629" y="555.832" type="line"/>
			<point x="575.82" y="578.756" type="line"/>
			<point x="597.253" y="583.168" type="line"/>
		</contour>
		<contour>
			<point x="551.857" y="205.596" type="line"/>
			<point x="554.49" y="198.378" type="line"/>
			<point x="547.302" y="191.024" type="line"/>
			<point x="538.297" y="198.581" type="line"/>
			<point x="543.761" y="207.784" type="line"/>
		</contour>
		<contour>
			<point x="328.184" y="59.776" type="line"/>
			<point x="328.157" y="47.196" type="line"/>
			<point x="318.903" y="42.067" type="line"/>
			<point x="312.147" y="49.474" type="line"/>
			<point x="316.606" y="57.122" type="line"/>
		</contour>
		<contour>
			<point x="331.869" y="362.509" type="line"/>
			<point x="316.135" y="341.729" type="line"/>
			<point x="292.394" y="345.948" type="line"/>
			<point x="294.144" y="368" type="line"/>
			<point x="311.327" y="375.65" type="line"/>
		</contour>
		<contour>
			<point x="528.126" y="176.364" type="line"/>
			<point x="532.97" y="168.303" type="line"/>
			<point x="526.35" y="163.154" type="line"/>
			<point x="517.285" y="164.365" type="line"/>
			<point x="519.717" y="173.592" type="line"/>
		</contour>
		<contour>
			<point x="225.483" y="461.25" type="line"/>
			<point x="219.097" y="432.155" type="line"/>
			<point x="194.116" y="425.461" type="line"/>
			<point x="165.051" y="447.936" type="line"/>
			<point x="196.824" y="465.319" type="line"/>
		</contour>
		<contour>
			<point x="456.211" y="398" type="line"/>
			<point x="469.462" y="381.276" type="line"/>
			<point x="450.22" y="372.053" type="line"/>
			<point x="431.51" y="378.576" type="line"/>
			<point x="440.471" y="395.811" type="line"/>
		</contour>
		<contour>
			<point x="295.659" y="99.389" type="line"/>
			<point x="298.142" y="70.55" type="line"/>
			<point x="264.41" y="62.137" type="line"/>
			<point x="250.272" y="93.897" type="line"/>
			<point x="274.874" y="107.727" type="line"/>
		</contour>
		<contour>
			<point x="181.614" y="204.145" type="line"/>
			<point x="174.299" y="192.52" type="line"/>
			<point x="160.644" y="191.041" type="line"/>
			<point x="156.947" y="205.87" type="line"/>
			<point x="169.907" y="213.968" type="line"/>
		</contour>
		<contour>
			<point x="576.456" y="471.503" type="line"/>
			<point x="567.994" y="434.849" type="line"/>
			<point x="526.914" y="425.57" type="line"/>
			<point x="509" y="467.773" type="line"/>
			<point x="542.555" y="509.806" type="line"/>
		</contour>
		<contour>
			<point x="175.5" y="352.311" type="line"/>
			<point x="196.148" y="313.891" type="line"/>
			<point x="162.39" y="280.23" type="line"/>
			<point x="126.026" y="307.764" type="line"/>
			<point x="131.904" y="350.983" type="line"/>
		</contour>
		<contour>
			<point x="508.575" y="636.821" type="line"/>
			<point x="514.97" y="630.697" type="line"/>
			<point x="510.907" y="620.795" type="line"/>
			<point x="500.962" y="624.752" type="line"/>
			<point x="502.714" y="632.575" type="line"/>
		</contour>
		<contour>
			<point x="281.724" y="609.346" type="line"/>
			<point x="288.877" y="602.436" type="line"/>
			<point x="280.408" y="595.111" type="line"/>
			<point x="274.545" y="601.73" type="line"/>
			<point x="272.636" y="610.364" type="line"/>
		</contour>
		<contour>
			<point x="147.699" y="126.684" type="line"/>
			<point x="150.912" y="113.747" type="line"/>
			<point x="143.563" y="106.137" type="line"/>
			<point x="134.053" y="110.775" type="line"/>
			<point x="136.245" y="120.557" type="line"/>
		</contour>
		<contour>
			<point x="571.536" y="256.064" type="line"/>
			<point x="584.319" y="240.824" type="line"/>
			<point x="565.89" y="229.023" type="line"/>
			<point x="545.395" y="238.474" type="line"/>
			<point x="552.414" y="261.543" type="line"/>
		</contour>
	</outline>
</glyph>
<glyph name="C" format="2">
	<advance width="733"/>
	<unicode hex="0043"/>
	<anchor x="367" y="700" name="top"/>
	<anchor x="367" y="0" name="bottom"/>
	<outline>
		<contour>
			<point x="319.078" y="12.208" type="line"/>
			<point x="416.154" y="-17.793" type="line"/>
			<point x="455.698" y="16.242" type="line"/>
			<point x="480.104" y="-3.257" type="line"/>
			<point x="494.878" y="24.267" type="line"/>
			<point x="530.715" y="12.317" type="line"/>
			<point x="551.526" y="43.843" type="line"/>
			<point x="601.852" y="43.173" type="line"/>
			<point x="621.646" y="89.447" type="line"/>
			<point x="669.218" y="89.336" type="line"/>
			<point x="659.344" y="135.873" type="line"/>
			<point x="693.509" y="149.34" type="line"/>
			<point x="679.956" y="183.471" type="line"/>
			<point x="706.099" y="207.575" type="line"/>
			<point x="688.796" y="238.641" type="line"/>
			<point x="664.534" y="271.948" type="line"/>
			<point x="631" y="248" type="line"/>
			<point x="603" y="282" type="line"/>
			<point x="575" y="248" type="line"/>
			<point x="543" y="268" type="line"/>
			<point x="511" y="248" type="line"/>
			<point x="470.95" y="243.8" type="line"/>
			<point x="453.447" y="207.533" type="line"/>
			<point x="406.985" y="212.964" type="line"/>
			<point x="395.942" y="167.508" type="line"/>
			<point x="371.088" y="199.317" type="line"/>
			<point x="346.729" y="167.128" type="line"/>
			<point x="336.494" y="197.329" type="line"/>
			<point x="306.733" y="185.88" type="line"/>
			<point x="324.672" y="224.38" type="line"/>
			<point x="282.301" y="227.346" type="line"/>
			<point x="309.011" y="268.705" type="line"/>
			<point x="275.922" y="305.162" type="line"/>
			<point x="300.748" y="337.436" type="line"/>
			<point x="275.575" y="369.442" type="line"/>
			<point x="297.283" y="401.765" type="line"/>
			<point x="277" y="435" type="line"/>
			<point x="316.375" y="463.581" type="line"/>
			<point x="302.767" y="510.294" type="line"/>
			<point x="352.541" y="490.781" type="line"/>
			<point x="383.34" y="534.481" type="line"/>
			<point x="394.048" y="498.055" type="line"/>
			<point x="422.588" y="523.095" type="line"/>
			<point x="421.436" y="482.517" type="line"/>
			<point x="461.611" y="476.697" type="line"/>
			<point x="479.731" y="451.201" type="line"/>
			<point x="511" y="452" type="line"/>
			<point x="551" y="425" type="line"/>
			<point x="591" y="452" type="line"/>
			<point x="631" y="420" type="line"/>
			<point x="671" y="452" type="line"/>
			<point x="695.088" y="458.493" type="line"/>
			<point x="687.057" y="482.112" type="line"/>
			<point x="705.536" y="509.011" type="line"/>
			<point x="677.218" y="525.232" type="line"/>
			<point x="687.891" y="561.999" type="line"/>
			<point x="652.063" y="575.492" type="line"/>
			<point x="635.836" y="619.121" type="line"/>
			<point x="591.747" y="634.05" type="line"/>
			<point x="584.976" y="667.512" type="line"/>
			<point x="553.027" y="655.477" type="line"/>
			<point x="528.134" y="695.348" type="line"/>
			<point x="484.342" y="678.272" type="line"/>
			<point x="454.031" y="707.031" type="line"/>
			<point x="416.676" y="688.309" type="line"/>
			<point x="386.808" y="710.042" type="line"/>
			<point x="355.918" y="689.787" type="line"/>
			<point x="322.988" y="722.168" type="line"/>
			<point x="295.862" y="684.789" type="line"/>
			<point x="265.175" y="703.899" type="line"/>
			<point x="244.748" y="674.073" type="line"/>
			<point x="200.751" y="680.712" type="line"/>
			<point x="174.391" y="644.866" type="line"/>
			<point x="118.446" y="645.99" type="line"/>
			<point x="110.308" y="590.629" type="line"/>
			<point x="72.441" y="575.855" type="line"/>
			<point x="77.553" y="535.53" type="line"/>
			<point x="43.238" y="523.237" type="line"/>
			<point x="64.215" y="493.427" type="line"/>
			<point x="39.35" y="455.601" type="line"/>
			<point x="56.278" y="413.619" type="line"/>
			<point x="17.897" y="377.432" type="line"/>
			<point x="55.512" y="340.449" type="line"/>
			<point x="16.773" y="317.641" type="line"/>
			<point x="56.029" y="295.734" type="line"/>
			<point x="33.443" y="265.656" type="line"/>
			<point x="58.802" y="237.876" type="line"/>
			<point x="29.711" y="200.985" type="line"/>
			<point x="71.108" y="178.77" type="line"/>
			<point x="56.064" y="145.817" type="line"/>
			<point x="90.484" y="134.528" type="line"/>
			<point x="94.073" y="81.806" type="line"/>
			<point x="145.844" y="71.209" type="line"/>
			<point x="156.784" y="34.474" type="line"/>
			<point x="194.275" y="42.449" type="line"/>
			<point x="211.604" y="-0.405" type="line"/>
			<point x="251.456" y="23.018" type="line"/>
			<point x="280.216" y="-13.986" type="line"/>
		</contour>
		<contour>
			<point x="344.391" y="635.286" type="line"/>
			<point x="370.974" y="591.534" type="line"/>
			<point x="335.891" y="568.968" type="line"/>
			<point x="304.129" y="576.224" type="line"/>
			<point x="304.572" y="612.086" type="line"/>
		</contour>
		<contour>
			<point x="118.935" y="497.482" type="line"/>
			<point x="106.298" y="485.874" type="line"/>
			<point x="92.943" y="488.127" type="line"/>
			<point x="87.428" y="504.756" type="line"/>
			<point x="104.474" y="506.718" type="line"/>
		</contour>
		<contour>
			<point x="359.923" y="112.065" type="line"/>
			<point x="363.124" y="87.84" type="line"/>
			<point x="333.713" y="70.99" type="line"/>
			<point x="310.021" y="103.221" type="line"/>
			<point x="337.282" y="128.915" type="line"/>
		</contour>
		<contour>
			<point x="122.686" y="163.341" type="line"/>
			<point x="130.992" y="147.454" type="line"/>
			<point x="122.446" y="134.784" type="line"/>
			<point x="108.544" y="139.612" type="line"/>
			<point x="101.419" y="158.184" type="line"/>
		</contour>
		<contour>
			<point x="186.479" y="129.733" type="line"/>
			<point x="196.997" y="102.332" type="line"/>
			<point x="186.79" y="76.471" type="line"/>
			<point x="152.444" y="82.742" type="line"/>
			<point x="163.255" y="112.324" type="line"/>
		</contour>
		<contour>
			<point x="572.971" y="571.971" type="line"/>
			<point x="573.82" y="545.92" type="line"/>
			<point x="552.558" y="533.271" type="line"/>
			<point x="536.246" y="551.871" type="line"/>
			<point x="546.466" y="573.711" type="line"/>
		</contour>
		<contour>
			<point x="531.337" y="180.677" type="line"/>
			<point x="554.759" y="130.401" type="line"/>
			<point x="517.237" y="105.656" type="line"/>
			<point x="478.091" y="116" type="line"/>
			<point x="484.247" y="159.089" type="line"/>
		</contour>
		<contour>
			<point x="282.903" y="128.08" type="line"/>
			<point x="282.103" y="112.819" type="line"/>
			<point x="267.7" y="109.797" type="line"/>
			<point x="255.023" y="121.89" type="line"/>
			<point x="266.824" y="140.319" type="line"/>
		</contour>
		<contour>
			<point x="269.457" y="404.078" type="line"/>
			<point x="265.31" y="395.484" type="line"/>
			<point x="257.086" y="395.197" type="line"/>
			<point x="253.31" y="403.205" type="line"/>
			<point x="260.721" y="408.995" type="line"/>
		</contour>
		<contour>
			<point x="264.193" y="277.723" type="line"/>
			<point x="265.44" y="270.595" type="line"/>
			<point x="257.133" y="267.531" type="line"/>
			<point x="254.008" y="275.314" type="line"/>
			<point x="257.671" y="283.693" type="line"/>
		</contour>
		<contour>
			<point x="268.089" y="535.945" type="line"/>
			<point x="263.473" y="528.403" type="line"/>
			<point x="257.653" y="527.585" type="line"/>
			<point x="251.137" y="533.563" type="line"/>
			<point x="259.026" y="538.932" type="line"/>
		</contour>
		<contour>
			<point x="160.114" y="388.663" type="line"/>
			<point x="163.608" y="380.528" type="line"/>
			<point x="156" y="376" type="line"/>
			<point x="148.392" y="380.528" type="line"/>
			<point x="150.71" y="390.281" type="line"/>
		</contour>
		<contour>
			<point x="489.809" y="608.229" type="line"/>
			<point x="491.482" y="589.424" type="line"/>
			<point x="475.634" y="579.165" type="line"/>
			<point x="463.228" y="593.395" type="line"/>
			<point x="471.427" y="608.361" type="line"/>
		</contour>
		<contour>
			<point x="136.739" y="361.576" type="line"/>
			<point x="122.786" y="318.453" type="line"/>
			<point x="82.75" y="329.463" type="line"/>
			<point x="80.461" y="359.884" type="line"/>
			<point x="103.093" y="391.945" type="line"/>
		</contour>
		<contour>
			<point x="438.402" y="68.225" type="line"/>
			<point x="437.552" y="55.674" type="line"/>
			<point x="425.643" y="58.291" type="line"/>
			<point x="420.341" y="67.588" type="line"/>
			<point x="429.581" y="72.989" type="line"/>
		</contour>
		<contour>
			<point x="154.647" y="246.765" type="line"/>
			<point x="171.148" y="214.931" type="line"/>
			<point x="138.581" y="202.004" type="line"/>
			<point x="111.267" y="217.521" type="line"/>
			<point x="120.646" y="252.213" type="line"/>
		</contour>
		<contour>
			<point x="624.875" y="198.032" type="line"/>
			<point x="635.851" y="176.563" type="line"/>
			<point x="620.198" y="157.404" type="line"/>
			<point x="586.263" y="162.516" type="line"/>
			<point x="602.104" y="191.958" type="line"/>
		</contour>
	</outline>
</glyph>
<glyph name="G" format="2">
	<advance width="753"/>
	<unicode hex="0047"/>
	<outline>
		<contour>
			<point x="349.375" y="10.462" type="line"/>
			<point x="401.204" y="-14.849" type="line"/>
			<point x="426.165" y="12.253" type="line"/>
			<point x="463.973" y="-8.009" type="line"/>
			<point x="493.536" y="23.071" type="line"/>
			<point x="538.129" y="11.315" type="line"/>
			<point x="565.323" y="48.561" type="line"/>
			<point x="600.675" y="32.393" type="line"/>
			<point x="603.229" y="71.183" type="line"/>
			<point x="656.195" y="75.242" type="line"/>
			<point x="659.151" y="128.282" type="line"/>
			<point x="699.422" y="156.789" type="line"/>
			<point x="691.794" y="205.536" type="line"/>
			<point x="730.797" y="244.405" type="line"/>
			<point x="698" y="288.636" type="line"/>
			<point x="733" y="324.091" type="line"/>
			<point x="698" y="359.545" type="line"/>
			<point x="697.658" y="398.266" type="line"/>
			<point x="659.116" y="402" type="line"/>
			<point x="617.268" y="426.5" type="line"/>
			<point x="575.42" y="402" type="line"/>
			<point x="555.493" y="425.1" type="line"/>
			<point x="535.565" y="402" type="line"/>
			<point x="503.681" y="422.3" type="line"/>
			<point x="471.797" y="402" type="line"/>
			<point x="447.884" y="427.9" type="line"/>
			<point x="423.971" y="402" type="line"/>
			<point x="396.556" y="393.211" type="line"/>
			<point x="409" y="367.25" type="line"/>
			<point x="383.1" y="329.589" type="line"/>
			<point x="409" y="291.929" type="line"/>
			<point x="425.361" y="270.596" type="line"/>
			<point x="451.471" y="277" type="line"/>
			<point x="450.972" y="244.236" type="line"/>
			<point x="479.58" y="228.258" type="line"/>
			<point x="437.029" y="220.493" type="line"/>
			<point x="437.802" y="177.246" type="line"/>
			<point x="404.538" y="198.484" type="line"/>
			<point x="383.523" y="165.079" type="line"/>
			<point x="359.423" y="206.53" type="line"/>
			<point x="319.644" y="179.76" type="line"/>
			<point x="319.404" y="215.131" type="line"/>
			<point x="285.072" y="223.645" type="line"/>
			<point x="296.849" y="250.993" type="line"/>
			<point x="276.861" y="273.063" type="line"/>
			<point x="302.886" y="298.067" type="line"/>
			<point x="275.725" y="321.832" type="line"/>
			<point x="302.442" y="362.406" type="line"/>
			<point x="275.96" y="403.134" type="line"/>
			<point x="314.479" y="430.229" type="line"/>
			<point x="279.106" y="461.32" type="line"/>
			<point x="314.47" y="469.134" type="line"/>
			<point x="294.052" y="499.047" type="line"/>
			<point x="323.18" y="498.159" type="line"/>
			<point x="328.682" y="526.777" type="line"/>
			<point x="364.518" y="501.251" type="line"/>
			<point x="394.522" y="533.43" type="line"/>
			<point x="409.907" y="500.305" type="line"/>
			<point x="445.499" y="508.504" type="line"/>
			<point x="461.619" y="473.062" type="line"/>
			<point x="498.679" y="485" type="line"/>
			<point x="540.116" y="463.3" type="line"/>
			<point x="581.554" y="485" type="line"/>
			<point x="615.098" y="463.3" type="line"/>
			<point x="648.643" y="485" type="line"/>
			<point x="674.398" y="459.422" type="line"/>
			<point x="698" y="487" type="line"/>
			<point x="720.566" y="520.317" type="line"/>
			<point x="686.399" y="541.576" type="line"/>
			<point x="696.087" y="580.658" type="line"/>
			<point x="656.67" y="588.875" type="line"/>
			<point x="642.356" y="638.357" type="line"/>
			<point x="590.899" y="640.719" type="line"/>
			<point x="569.499" y="671.82" type="line"/>
			<point x="532.163" y="666.232" type="line"/>
			<point x="505.14" y="707.754" type="line"/>
			<point x="462.12" y="683.185" type="line"/>
			<point x="442.688" y="706.617" type="line"/>
			<point x="418.347" y="688.337" type="line"/>
			<point x="372.116" y="721.229" type="line"/>
			<point x="326.04" y="688.121" type="line"/>
			<point x="280.139" y="707.654" type="line"/>
			<point x="243.353" y="673.961" type="line"/>
			<point x="201.83" y="681.069" type="line"/>
			<point x="176.625" y="647.314" type="line"/>
			<point x="126.739" y="657.504" type="line"/>
			<point x="122.303" y="606.782" type="line"/>
			<point x="78.622" y="590.961" type="line"/>
			<point x="79.413" y="544.509" type="line"/>
			<point x="45.23" y="514.675" type="line"/>
			<point x="59.241" y="471.521" type="line"/>
			<point x="23.597" y="437.259" type="line"/>
			<point x="55.879" y="399.813" type="line"/>
			<point x="29.718" y="367.797" type="line"/>
			<point x="55.557" y="335.521" type="line"/>
			<point x="19.846" y="314.921" type="line"/>
			<point x="56.127" y="295.342" type="line"/>
			<point x="24.248" y="260.608" type="line"/>
			<point x="60.235" y="230.149" type="line"/>
			<point x="47.16" y="184.945" type="line"/>
			<point x="82.158" y="153.489" type="line"/>
			<point x="76.594" y="106.428" type="line"/>
			<point x="122.361" y="94.137" type="line"/>
			<point x="126.549" y="47.702" type="line"/>
			<point x="172.623" y="54.836" type="line"/>
			<point x="181.193" y="11.283" type="line"/>
			<point x="219.819" y="33.156" type="line"/>
			<point x="234.61" y="-11.312" type="line"/>
			<point x="269.95" y="19.465" type="line"/>
			<point x="305.72" y="-19.814" type="line"/>
		</contour>
		<contour>
			<point x="141.397" y="333.698" type="line"/>
			<point x="162.895" y="293.712" type="line"/>
			<point x="122" y="271" type="line"/>
			<point x="73.496" y="291.24" type="line"/>
			<point x="100.252" y="336.934" type="line"/>
		</contour>
		<contour>
			<point x="470.138" y="553.582" type="line"/>
			<point x="471.25" y="543.619" type="line"/>
			<point x="462.294" y="533.104" type="line"/>
			<point x="450.257" y="544.329" type="line"/>
			<point x="459.152" y="555.746" type="line"/>
		</contour>
		<contour>
			<point x="148.5" y="501.703" type="line"/>
			<point x="164.126" y="452.684" type="line"/>
			<point x="127.927" y="433.153" type="line"/>
			<point x="102.161" y="450.832" type="line"/>
			<point x="98.235" y="490.726" type="line"/>
		</contour>
		<contour>
			<point x="686.736" y="343.192" type="line"/>
			<point x="690.563" y="332.076" type="line"/>
			<point x="681.175" y="325.002" type="line"/>
			<point x="670.599" y="331.419" type="line"/>
			<point x="673.176" y="345.382" type="line"/>
		</contour>
		<contour>
			<point x="249.17" y="568.099" type="line"/>
			<point x="249.17" y="519.901" type="line"/>
			<point x="205.184" y="510.713" type="line"/>
			<point x="170" y="544" type="line"/>
			<point x="200.858" y="590.602" type="line"/>
		</contour>
		<contour>
			<point x="280.493" y="134.442" type="line"/>
			<point x="273.435" y="110.565" type="line"/>
			<point x="251.374" y="107.071" type="line"/>
			<point x="239.259" y="127.285" type="line"/>
			<point x="256.558" y="145.729" type="line"/>
		</contour>
		<contour>
			<point x="630.62" y="554.215" type="line"/>
			<point x="601.131" y="502.685" type="line"/>
			<point x="552.209" y="522.084" type="line"/>
			<point x="552.012" y="563.514" type="line"/>
			<point x="585.915" y="578.43" type="line"/>
		</contour>
		<contour>
			<point x="234.023" y="193.927" type="line"/>
			<point x="236.265" y="173.461" type="line"/>
			<point x="215.92" y="162.624" type="line"/>
			<point x="194.066" y="181.117" type="line"/>
			<point x="215.756" y="195.981" type="line"/>
		</contour>
		<contour>
			<point x="543.769" y="330.655" type="line"/>
			<point x="523.16" y="299.876" type="line"/>
			<point x="497.257" y="300.59" type="line"/>
			<point x="473.433" y="328.199" type="line"/>
			<point x="508.267" y="338.987" type="line"/>
		</contour>
		<contour>
			<point x="638.915" y="341.718" type="line"/>
			<point x="631.013" y="305.813" type="line"/>
			<point x="596.608" y="314.3" type="line"/>
			<point x="574.412" y="347.681" type="line"/>
			<point x="613.012" y="362.982" type="line"/>
		</contour>
		<contour>
			<point x="204.082" y="249.14" type="line"/>
			<point x="191.456" y="232.351" type="line"/>
			<point x="170.76" y="225.43" type="line"/>
			<point x="165.09" y="249.511" type="line"/>
			<point x="184.279" y="258.998" type="line"/>
		</contour>
		<contour>
			<point x="672.476" y="248.99" type="line"/>
			<point x="667.5" y="211.957" type="line"/>
			<point x="627.588" y="220.219" type="line"/>
			<point x="615.199" y="259.049" type="line"/>
			<point x="651.404" y="266.874" type="line"/>
		</contour>
		<contour>
			<point x="462.244" y="165.688" type="line"/>
			<point x="467.933" y="150.097" type="line"/>
			<point x="462.804" y="140.843" type="line"/>
			<point x="448.03" y="138.77" type="line"/>
			<point x="448.505" y="154.818" type="line"/>
		</contour>
	</outline>
</glyph>
<glyph name="H" format="2">
	<advance width="772"/>
	<unicode hex="0048"/>
	<outline>
		<contour>
			<point x="75" y="62.889" type="line"/>
			<point x="124" y="-14" type="line"/>
			<point x="166" y="20" type="line"/>
			<point x="192" y="-16" type="line"/>
			<point x="218" y="20" type="line"/>
			<point x="255.449" y="-14.294" type="line"/>
			<point x="285" y="27" type="line"/>
			<point x="309" y="65" type="line"/>
			<point x="285" y="103" type="line"/>
			<point x="322" y="133" type="line"/>
			<point x="285" y="163" type="line"/>
			<point x="308" y="205" type="line"/>
			<point x="285" y="247" type="line"/>
			<point x="324.52" y="223.974" type="line"/>
			<point x="348.373" y="263" type="line"/>
			<point x="387.98" y="231" type="line"/>
			<point x="427.588" y="263" type="line"/>
			<point x="455.01" y="227.077" type="line"/>
			<point x="487" y="259" type="line"/>
			<point x="455" y="223" type="line"/>
			<point x="487" y="187" type="line"/>
			<point x="449" y="145" type="line"/>
			<point x="487" y="103" type="line"/>
			<point x="451" y="65" type="line"/>
			<point x="487" y="27" type="line"/>
			<point x="519.262" y="-9.341" type="line"/>
			<point x="558" y="20" type="line"/>
			<point x="598" y="-2" type="line"/>
			<point x="638" y="20" type="line"/>
			<point x="670.799" y="-4.305" type="line"/>
			<point x="697" y="27" type="line"/>
			<point x="731" y="64.883" type="line"/>
			<point x="697" y="102.765" type="line"/>
			<point x="735" y="142.642" type="line"/>
			<point x="697" y="182.519" type="line"/>
			<point x="732" y="214.42" type="line"/>
			<point x="697" y="246.321" type="line"/>
			<point x="724" y="270.247" type="line"/>
			<point x="697" y="294.173" type="line"/>
			<point x="725" y="334.049" type="line"/>
			<point x="697" y="373.926" type="line"/>
			<point x="719" y="407.821" type="line"/>
			<point x="697" y="441.716" type="line"/>
			<point x="728" y="467.636" type="line"/>
			<point x="697" y="493.556" type="line"/>
			<point x="719" y="535.426" type="line"/>
			<point x="697" y="577.296" type="line"/>
			<point x="721" y="603.216" type="line"/>
			<point x="697" y="629.136" type="line"/>
			<point x="720.193" y="663.619" type="line"/>
			<point x="682" y="680" type="line"/>
			<point x="658" y="714" type="line"/>
			<point x="634" y="680" type="line"/>
			<point x="602" y="703" type="line"/>
			<point x="570" y="680" type="line"/>
			<point x="525.222" y="715.362" type="line"/>
			<point x="487" y="673" type="line"/>
			<point x="449" y="637.31" type="line"/>
			<point x="487" y="601.621" type="line"/>
			<point x="451" y="579.81" type="line"/>
			<point x="487" y="558" type="line"/>
			<point x="456" y="526.276" type="line"/>
			<point x="487" y="494.552" type="line"/>
			<point x="448" y="468.776" type="line"/>
			<point x="487" y="443" type="line"/>
			<point x="457.294" y="463" type="line"/>
			<point x="427.588" y="443" type="line"/>
			<point x="399.863" y="473" type="line"/>
			<point x="372.137" y="443" type="line"/>
			<point x="330.549" y="471" type="line"/>
			<point x="288.961" y="443" type="line"/>
			<point x="323.924" y="480.74" type="line"/>
			<point x="285" y="514.379" type="line"/>
			<point x="306" y="536.19" type="line"/>
			<point x="285" y="558" type="line"/>
			<point x="311" y="593.69" type="line"/>
			<point x="285" y="629.379" type="line"/>
			<point x="314.189" y="659.21" type="line"/>
			<point x="278" y="680" type="line"/>
			<point x="254" y="705" type="line"/>
			<point x="230" y="680" type="line"/>
			<point x="192" y="708" type="line"/>
			<point x="154" y="680" type="line"/>
			<point x="111.146" y="714.352" type="line"/>
			<point x="75" y="673" type="line"/>
			<point x="45" y="637.111" type="line"/>
			<point x="75" y="601.222" type="line"/>
			<point x="46" y="581.284" type="line"/>
			<point x="75" y="561.346" type="line"/>
			<point x="36" y="529.444" type="line"/>
			<point x="75" y="497.543" type="line"/>
			<point x="49" y="467.636" type="line"/>
			<point x="75" y="437.728" type="line"/>
			<point x="50" y="403.833" type="line"/>
			<point x="75" y="369.938" type="line"/>
			<point x="36" y="338.037" type="line"/>
			<point x="75" y="306.136" type="line"/>
			<point x="37" y="284.204" type="line"/>
			<point x="75" y="262.272" type="line"/>
			<point x="53" y="230.37" type="line"/>
			<point x="75" y="198.469" type="line"/>
			<point x="53" y="172.549" type="line"/>
			<point x="75" y="146.63" type="line"/>
			<point x="40" y="104.759" type="line"/>
		</contour>
		<contour>
			<point x="677.347" y="335.467" type="line"/>
			<point x="658.474" y="283.853" type="line"/>
			<point x="599.572" y="291.314" type="line"/>
			<point x="589.162" y="350.357" type="line"/>
			<point x="640.706" y="368.601" type="line"/>
		</contour>
		<contour>
			<point x="662.541" y="537.184" type="line"/>
			<point x="673.89" y="515.909" type="line"/>
			<point x="658.366" y="497.459" type="line"/>
			<point x="636.679" y="508" type="line"/>
			<point x="642.853" y="528.037" type="line"/>
		</contour>
		<contour>
			<point x="129.298" y="178.939" type="line"/>
			<point x="139.851" y="156.563" type="line"/>
			<point x="126.678" y="124.643" type="line"/>
			<point x="104.257" y="150.273" type="line"/>
			<point x="106.836" y="171.276" type="line"/>
		</contour>
		<contour>
			<point x="541.455" y="461.847" type="line"/>
			<point x="546.962" y="455.732" type="line"/>
			<point x="542.847" y="448.605" type="line"/>
			<point x="534.055" y="449.647" type="line"/>
			<point x="534.804" y="458" type="line"/>
		</contour>
		<contour>
			<point x="154.302" y="472.217" type="line"/>
			<point x="154.572" y="459.85" type="line"/>
			<point x="143.526" y="454.282" type="line"/>
			<point x="136.038" y="464.128" type="line"/>
			<point x="142.093" y="474.205" type="line"/>
		</contour>
		<contour>
			<point x="239.198" y="476.454" type="line"/>
			<point x="260.852" y="454.822" type="line"/>
			<point x="242.135" y="433.729" type="line"/>
			<point x="213.192" y="433.264" type="line"/>
			<point x="208.019" y="467" type="line"/>
		</contour>
		<contour>
			<point x="240.435" y="645.669" type="line"/>
			<point x="257.843" y="630.559" type="line"/>
			<point x="244.185" y="612.593" type="line"/>
			<point x="215.059" y="607.54" type="line"/>
			<point x="210.761" y="642.544" type="line"/>
		</contour>
		<contour>
			<point x="240.996" y="242.244" type="line"/>
			<point x="237.762" y="231.663" type="line"/>
			<point x="225.332" y="235.228" type="line"/>
			<point x="229.026" y="245.355" type="line"/>
			<point x="236.205" y="249.69" type="line"/>
		</contour>
		<contour>
			<point x="217.568" y="365.068" type="line"/>
			<point x="177.327" y="320.841" type="line"/>
			<point x="124.164" y="324.582" type="line"/>
			<point x="110.147" y="385.634" type="line"/>
			<point x="167.442" y="396.283" type="line"/>
		</contour>
		<contour>
			<point x="419.903" y="328.08" type="line"/>
			<point x="421.434" y="310.931" type="line"/>
			<point x="403.266" y="306.063" type="line"/>
			<point x="389.027" y="322.047" type="line"/>
			<point x="404.082" y="339.353" type="line"/>
		</contour>
		<contour>
			<point x="651.425" y="123.328" type="line"/>
			<point x="646.387" y="99.107" type="line"/>
			<point x="621.917" y="92.328" type="line"/>
			<point x="610.214" y="116.062" type="line"/>
			<point x="628.006" y="135.651" type="line"/>
		</contour>
		<contour>
			<point x="595.649" y="94.456" type="line"/>
			<point x="594.584" y="79.778" type="line"/>
			<point x="581.419" y="76.599" type="line"/>
			<point x="569.002" y="87.279" type="line"/>
			<point x="580.614" y="101.345" type="line"/>
		</contour>
		<contour>
			<point x="234.698" y="142.211" type="line"/>
			<point x="238.004" y="123.624" type="line"/>
			<point x="223.424" y="118.015" type="line"/>
			<point x="208.545" y="124.859" type="line"/>
			<point x="214.741" y="143.257" type="line"/>
		</contour>
		<contour>
			<point x="414.545" y="417.336" type="line"/>
			<point x="416.975" y="394.186" type="line"/>
			<point x="400.162" y="376.015" type="line"/>
			<point x="376.968" y="393.109" type="line"/>
			<point x="387.579" y="419.897" type="line"/>
		</contour>
		<contour>
			<point x="577.369" y="218.398" type="line"/>
			<point x="571.366" y="189.017" type="line"/>
			<point x="541.794" y="184.043" type="line"/>
			<point x="524.456" y="212.209" type="line"/>
			<point x="550.381" y="232.747" type="line"/>
		</contour>
		<contour>
			<point x="373.997" y="283.878" type="line"/>
			<point x="377.239" y="270.452" type="line"/>
			<point x="361.083" y="267.312" type="line"/>
			<point x="355.089" y="281.462" type="line"/>
			<point x="364.71" y="291.78" type="line"/>
		</contour>
		<contour>
			<point x="187.727" y="221.743" type="line"/>
			<point x="197.651" y="202.375" type="line"/>
			<point x="180.95" y="190.119" type="line"/>
			<point x="159.968" y="197.125" type="line"/>
			<point x="170.134" y="215.508" type="line"/>
		</contour>
		<contour>
			<point x="622.761" y="624.481" type="line"/>
			<point x="615.818" y="611.505" type="line"/>
			<point x="597.724" y="608.836" type="line"/>
			<point x="595.499" y="628.762" type="line"/>
			<point x="611.097" y="630.933" type="line"/>
		</contour>
	</outline>
</glyph>
<glyph name="I" format="2">
	<advance width="368"/>
	<unicode hex="0049"/>
	<anchor x="331" y="10" name="ogonek"/>
	<anchor x="184" y="700" name="top"/>
	<anchor x="20" y="700" name="topleft"/>
	<anchor x="184" y="0" name="bottom"/>
	<outline>
		<contour>
			<point x="75" y="94.79" type="line"/>
			<point x="114" y="-12" type="line"/>
			<point x="146" y="20" type="line"/>
			<point x="172" y="-1" type="line"/>
			<point x="198" y="20" type="line"/>
			<point x="238" y="-16" type="line"/>
			<point x="278" y="20" type="line"/>
			<point x="313.707" y="44.679" type="line"/>
			<point x="293" y="82.827" type="line"/>
			<point x="322" y="104.759" type="line"/>
			<point x="293" y="126.691" type="line"/>
			<point x="323" y="148.623" type="line"/>
			<point x="293" y="170.556" type="line"/>
			<point x="319" y="190.494" type="line"/>
			<point x="293" y="210.432" type="line"/>
			<point x="315" y="230.37" type="line"/>
			<point x="293" y="250.309" type="line"/>
			<point x="326" y="276.228" type="line"/>
			<point x="293" y="302.148" type="line"/>
			<point x="321" y="338.037" type="line"/>
			<point x="293" y="373.926" type="line"/>
			<point x="322" y="409.815" type="line"/>
			<point x="293" y="445.704" type="line"/>
			<point x="318" y="477.605" type="line"/>
			<point x="293" y="509.506" type="line"/>
			<point x="330" y="551.377" type="line"/>
			<point x="293" y="593.247" type="line"/>
			<point x="322" y="629.136" type="line"/>
			<point x="293" y="665.025" type="line"/>
			<point x="270.635" y="700.621" type="line"/>
			<point x="234" y="680" type="line"/>
			<point x="202" y="717" type="line"/>
			<point x="170" y="680" type="line"/>
			<point x="148" y="718" type="line"/>
			<point x="126" y="680" type="line"/>
			<point x="95.235" y="698.945" type="line"/>
			<point x="75" y="669.012" type="line"/>
			<point x="42" y="631.13" type="line"/>
			<point x="75" y="593.247" type="line"/>
			<point x="39" y="573.309" type="line"/>
			<point x="75" y="553.37" type="line"/>
			<point x="51" y="533.432" type="line"/>
			<point x="75" y="513.494" type="line"/>
			<point x="49" y="489.568" type="line"/>
			<point x="75" y="465.642" type="line"/>
			<point x="36" y="427.759" type="line"/>
			<point x="75" y="389.877" type="line"/>
			<point x="47" y="363.957" type="line"/>
			<point x="75" y="338.037" type="line"/>
			<point x="54" y="310.123" type="line"/>
			<point x="75" y="282.21" type="line"/>
			<point x="46" y="246.321" type="line"/>
			<point x="75" y="210.432" type="line"/>
			<point x="38" y="182.519" type="line"/>
			<point x="75" y="154.605" type="line"/>
			<point x="50" y="124.698" type="line"/>
		</contour>
		<contour>
			<point x="182.419" y="223.714" type="line"/>
			<point x="184.543" y="202.414" type="line"/>
			<point x="161.116" y="194.461" type="line"/>
			<point x="153.022" y="215.837" type="line"/>
			<point x="165.635" y="227.557" type="line"/>
		</contour>
		<contour>
			<point x="170.432" y="90.801" type="line"/>
			<point x="168.324" y="72.255" type="line"/>
			<point x="147.167" y="72.625" type="line"/>
			<point x="145.708" y="91.232" type="line"/>
			<point x="158.332" y="105.997" type="line"/>
		</contour>
		<contour>
			<point x="277.835" y="405.717" type="line"/>
			<point x="272.394" y="397.878" type="line"/>
			<point x="264.226" y="398.881" type="line"/>
			<point x="263.562" y="406.536" type="line"/>
			<point x="269.731" y="409.955" type="line"/>
		</contour>
		<contour>
			<point x="238.978" y="656.837" type="line"/>
			<point x="227.3" y="644.797" type="line"/>
			<point x="206.68" y="642.784" type="line"/>
			<point x="205.388" y="667.437" type="line"/>
			<point x="226.106" y="667.591" type="line"/>
		</contour>
		<contour>
			<point x="237.772" y="543.777" type="line"/>
			<point x="235.412" y="483.275" type="line"/>
			<point x="179.232" y="474.922" type="line"/>
			<point x="162.045" y="517.727" type="line"/>
			<point x="183.871" y="557.535" type="line"/>
		</contour>
		<contour>
			<point x="276.215" y="77.641" type="line"/>
			<point x="275.201" y="45.752" type="line"/>
			<point x="246.017" y="26.98" type="line"/>
			<point x="229.061" y="57.256" type="line"/>
			<point x="244.26" y="83.107" type="line"/>
		</contour>
		<contour>
			<point x="111.381" y="523.25" type="line"/>
			<point x="116.933" y="514.903" type="line"/>
			<point x="108.954" y="511.092" type="line"/>
			<point x="102.752" y="513.091" type="line"/>
			<point x="102.881" y="520.774" type="line"/>
		</contour>
		<contour>
			<point x="286.135" y="561.067" type="line"/>
			<point x="282.353" y="551.055" type="line"/>
			<point x="272" y="548.34" type="line"/>
			<point x="269.175" y="558.663" type="line"/>
			<point x="275.955" y="566.945" type="line"/>
		</contour>
		<contour>
			<point x="125.217" y="397.944" type="line"/>
			<point x="124.695" y="372.775" type="line"/>
			<point x="99.42" y="378.438" type="line"/>
			<point x="93.832" y="398.253" type="line"/>
			<point x="110" y="421" type="line"/>
		</contour>
		<contour>
			<point x="104.254" y="62.308" type="line"/>
			<point x="108.956" y="54.164" type="line"/>
			<point x="102.871" y="46.197" type="line"/>
			<point x="94.072" y="51" type="line"/>
			<point x="91.339" y="63.699" type="line"/>
		</contour>
		<contour>
			<point x="261.135" y="349.817" type="line"/>
			<point x="265.18" y="329.244" type="line"/>
			<point x="244.983" y="328.636" type="line"/>
			<point x="234" y="341" type="line"/>
			<point x="242.511" y="360.972" type="line"/>
		</contour>
		<contour>
			<point x="281.771" y="181.293" type="line"/>
			<point x="281.548" y="170.098" type="line"/>
			<point x="270.635" y="162.443" type="line"/>
			<point x="263.015" y="174.424" type="line"/>
			<point x="269.341" y="187.137" type="line"/>
		</contour>
		<contour>
			<point x="154.299" y="643.48" type="line"/>
			<point x="157.733" y="632.823" type="line"/>
			<point x="149.558" y="627.019" type="line"/>
			<point x="141.583" y="632.003" type="line"/>
			<point x="145.143" y="639.596" type="line"/>
		</contour>
		<contour>
			<point x="190.35" y="283.846" type="line"/>
			<point x="194.977" y="278.523" type="line"/>
			<point x="191.735" y="271.556" type="line"/>
			<point x="183.717" y="273.408" type="line"/>
			<point x="181.285" y="282.635" type="line"/>
		</contour>
		<contour>
			<point x="198.769" y="391.632" type="line"/>
			<point x="206.614" y="380.855" type="line"/>
			<point x="194.907" y="371.032" type="line"/>
			<point x="184.728" y="380.254" type="line"/>
			<point x="188.858" y="390.128" type="line"/>
		</contour>
	</outline>
</glyph>
<glyph name="K" format="2">
	<advance width="715"/>
	<unicode hex="004B"/>
	<outline>
		<contour>
			<point x="75" y="46.938" type="line"/>
			<point x="111.844" y="-5" type="line"/>
			<point x="141.688" y="20" type="line"/>
			<point x="173.521" y="-18" type="line"/>
			<point x="205.354" y="20" type="line"/>
			<point x="225.25" y="-13" type="line"/>
			<point x="245.146" y="20" type="line"/>
			<point x="276.006" y="10.937" type="line"/>
			<point x="280" y="42.852" type="line"/>
			<point x="294" y="64.648" type="line"/>
			<point x="280" y="86.444" type="line"/>
			<point x="297.5" y="128.056" type="line"/>
			<point x="280" y="169.667" type="line"/>
			<point x="302.858" y="204.249" type="line"/>
			<point x="291.1" y="244" type="line"/>
			<point x="303.614" y="211.433" type="line"/>
			<point x="338.476" y="212.762" type="line"/>
			<point x="337.739" y="182.625" type="line"/>
			<point x="363.857" y="167.571" type="line"/>
			<point x="372.151" y="124.216" type="line"/>
			<point x="404.857" y="94.571" type="line"/>
			<point x="386.718" y="61.52" type="line"/>
			<point x="424.381" y="59.81" type="line"/>
			<point x="442.207" y="26.894" type="line"/>
			<point x="479" y="20" type="line"/>
			<point x="521" y="-12" type="line"/>
			<point x="563" y="20" type="line"/>
			<point x="589" y="-18" type="line"/>
			<point x="615" y="20" type="line"/>
			<point x="643" y="-14" type="line"/>
			<point x="671" y="20" type="line"/>
			<point x="693.234" y="40.051" type="line"/>
			<point x="670.67" y="59.73" type="line"/>
			<point x="681.108" y="102.959" type="line"/>
			<point x="638.19" y="114.61" type="line"/>
			<point x="659.881" y="150.605" type="line"/>
			<point x="617.89" y="148.91" type="line"/>
			<point x="625.658" y="178.98" type="line"/>
			<point x="595.56" y="186.64" type="line"/>
			<point x="609.749" y="227.458" type="line"/>
			<point x="567.14" y="234.66" type="line"/>
			<point x="573.032" y="265.936" type="line"/>
			<point x="542.78" y="275.82" type="line"/>
			<point x="550.791" y="315.297" type="line"/>
			<point x="512.33" y="327.27" type="line"/>
			<point x="542.936" y="362.653" type="line"/>
			<point x="504.152" y="388.815" type="line"/>
			<point x="553.145" y="398.832" type="line"/>
			<point x="538.522" y="446.652" type="line"/>
			<point x="579.172" y="452.419" type="line"/>
			<point x="564.804" y="490.88" type="line"/>
			<point x="594.837" y="498.354" type="line"/>
			<point x="587.043" y="528.304" type="line"/>
			<point x="631.332" y="548.022" type="line"/>
			<point x="627.478" y="596.348" type="line"/>
			<point x="672.276" y="597.348" type="line"/>
			<point x="651.739" y="637.174" type="line"/>
			<point x="682.782" y="646.348" type="line"/>
			<point x="676" y="678" type="line"/>
			<point x="650.811" y="717.973" type="line"/>
			<point x="622.696" y="680" type="line"/>
			<point x="599.018" y="714" type="line"/>
			<point x="575.339" y="680" type="line"/>
			<point x="553.634" y="709" type="line"/>
			<point x="531.929" y="680" type="line"/>
			<point x="490.179" y="711.882" type="line"/>
			<point x="448.611" y="679.765" type="line"/>
			<point x="398.477" y="679.009" type="line"/>
			<point x="409.746" y="630.153" type="line"/>
			<point x="381.572" y="614.294" type="line"/>
			<point x="382.695" y="581.983" type="line"/>
			<point x="350.148" y="564.055" type="line"/>
			<point x="351.78" y="526.932" type="line"/>
			<point x="314.35" y="511.746" type="line"/>
			<point x="320.864" y="471.881" type="line"/>
			<point x="303.591" y="495.903" type="line"/>
			<point x="283.7" y="474" type="line"/>
			<point x="297.225" y="507.064" type="line"/>
			<point x="280" y="538.36" type="line"/>
			<point x="306.6" y="579.94" type="line"/>
			<point x="280" y="621.52" type="line"/>
			<point x="293.707" y="650.256" type="line"/>
			<point x="278.032" y="677.967" type="line"/>
			<point x="236.565" y="713.974" type="line"/>
			<point x="193.417" y="680" type="line"/>
			<point x="157.604" y="701" type="line"/>
			<point x="121.792" y="680" type="line"/>
			<point x="84.679" y="673.52" type="line"/>
			<point x="75" y="637.111" type="line"/>
			<point x="40" y="595.241" type="line"/>
			<point x="75" y="553.37" type="line"/>
			<point x="36" y="515.488" type="line"/>
			<point x="75" y="477.605" type="line"/>
			<point x="50" y="437.728" type="line"/>
			<point x="75" y="397.852" type="line"/>
			<point x="44" y="361.963" type="line"/>
			<point x="75" y="326.074" type="line"/>
			<point x="43" y="290.185" type="line"/>
			<point x="75" y="254.296" type="line"/>
			<point x="49" y="230.37" type="line"/>
			<point x="75" y="206.444" type="line"/>
			<point x="47" y="166.568" type="line"/>
			<point x="75" y="126.691" type="line"/>
			<point x="40" y="86.815" type="line"/>
		</contour>
		<contour>
			<point x="365.211" y="368.624" type="line"/>
			<point x="334.11" y="306.574" type="line"/>
			<point x="283.273" y="277.223" type="line"/>
			<point x="235.171" y="335.883" type="line"/>
			<point x="295.081" y="370.782" type="line"/>
		</contour>
		<contour>
			<point x="508.963" y="566.881" type="line"/>
			<point x="506.699" y="552.339" type="line"/>
			<point x="491.5" y="550.742" type="line"/>
			<point x="486.262" y="564.495" type="line"/>
			<point x="496.955" y="571.945" type="line"/>
		</contour>
		<contour>
			<point x="536.147" y="133.037" type="line"/>
			<point x="542.321" y="113" type="line"/>
			<point x="522.297" y="110.284" type="line"/>
			<point x="510.082" y="121.432" type="line"/>
			<point x="517.679" y="139.444" type="line"/>
		</contour>
		<contour>
			<point x="147.672" y="354.083" type="line"/>
			<point x="142.282" y="328.175" type="line"/>
			<point x="120.427" y="331.639" type="line"/>
			<point x="114.197" y="346.257" type="line"/>
			<point x="125.191" y="356.873" type="line"/>
		</contour>
		<contour>
			<point x="465.316" y="196.572" type="line"/>
			<point x="476.642" y="147.199" type="line"/>
			<point x="428.657" y="150.321" type="line"/>
			<point x="394" y="176" type="line"/>
			<point x="424.639" y="214.042" type="line"/>
		</contour>
		<contour>
			<point x="452.57" y="504.973" type="line"/>
			<point x="528.862" y="482.327" type="line"/>
			<point x="478.96" y="418.548" type="line"/>
			<point x="416.523" y="415.871" type="line"/>
			<point x="396.498" y="479.837" type="line"/>
		</contour>
		<contour>
			<point x="142.348" y="222.766" type="line"/>
			<point x="155.996" y="183.529" type="line"/>
			<point x="139.525" y="149.573" type="line"/>
			<point x="96.234" y="161.057" type="line"/>
			<point x="109.833" y="198.444" type="line"/>
		</contour>
		<contour>
			<point x="577.474" y="86.356" type="line"/>
			<point x="570.657" y="74.343" type="line"/>
			<point x="559.552" y="69.308" type="line"/>
			<point x="555.123" y="81.564" type="line"/>
			<point x="563.436" y="89.877" type="line"/>
		</contour>
		<contour>
			<point x="225.093" y="167.927" type="line"/>
			<point x="247.257" y="144.048" type="line"/>
			<point x="238.898" y="112.559" type="line"/>
			<point x="208.216" y="120.381" type="line"/>
			<point x="199.82" y="147.365" type="line"/>
		</contour>
		<contour>
			<point x="176.486" y="512.379" type="line"/>
			<point x="211.881" y="475.582" type="line"/>
			<point x="175.822" y="427.574" type="line"/>
			<point x="119.75" y="451.974" type="line"/>
			<point x="131.592" y="505.354" type="line"/>
		</contour>
		<contour>
			<point x="610.734" y="619.015" type="line"/>
			<point x="612.188" y="609.584" type="line"/>
			<point x="602.07" y="606.49" type="line"/>
			<point x="597.001" y="615.14" type="line"/>
			<point x="601.199" y="627.432" type="line"/>
		</contour>
		<contour>
			<point x="522.217" y="604.035" type="line"/>
			<point x="524.387" y="593.554" type="line"/>
			<point x="514.188" y="592.239" type="line"/>
			<point x="509.01" y="598.634" type="line"/>
			<point x="514.208" y="603.668" type="line"/>
		</contour>
		<contour>
			<point x="166.843" y="649.87" type="line"/>
			<point x="163.607" y="620.481" type="line"/>
			<point x="136.657" y="608.321" type="line"/>
			<point x="118" y="634" type="line"/>
			<point x="138.202" y="654.923" type="line"/>
		</contour>
		<contour>
			<point x="491.185" y="296.407" type="line"/>
			<point x="501.866" y="278.806" type="line"/>
			<point x="489.152" y="254.496" type="line"/>
			<point x="470.006" y="273.243" type="line"/>
			<point x="473.03" y="291.23" type="line"/>
		</contour>
	</outline>
</glyph>
<glyph name="O" format="2">
	<advance width="742"/>
	<unicode hex="004F"/>
	<anchor x="371" y="350" name="center"/>
	<anchor x="668" y="10" name="ogonek"/>
	<anchor x="371" y="700" name="top"/>
	<anchor x="722" y="700" name="topright"/>
	<anchor x="20" y="700" name="topleft"/>
	<anchor x="371" y="0" name="bottom"/>
	<outline>
		<contour>
			<point x="342.535" y="10.671" type="line"/>
			<point x="395.924" y="-10.997" type="line"/>
			<point x="419.047" y="11.969" type="line"/>
			<point x="454.235" y="-20.175" type="line"/>
			<point x="478.465" y="20.866" type="line"/>
			<point x="512.477" y="-9.822" type="line"/>
			<point x="524.597" y="34.355" type="line"/>
			<point x="566.564" y="17.182" type="line"/>
			<point x="578.383" y="60.96" type="line"/>
			<point x="635.58" y="61.205" type="line"/>
			<point x="639.35" y="118.278" type="line"/>
			<point x="679.083" y="128.501" type="line"/>
			<point x="666.128" y="167.428" type="line"/>
			<point x="698.212" y="198.852" type="line"/>
			<point x="683.581" y="241.311" type="line"/>
			<point x="723.992" y="284.02" type="line"/>
			<point x="686.444" y="329.266" type="line"/>
			<point x="716.423" y="349.38" type="line"/>
			<point x="686.401" y="369.432" type="line"/>
			<point x="710.194" y="410.972" type="line"/>
			<point x="684.009" y="451.045" type="line"/>
			<point x="709.274" y="500.279" type="line"/>
			<point x="664.505" y="532.806" type="line"/>
			<point x="668.575" y="577.635" type="line"/>
			<point x="626.686" y="594.114" type="line"/>
			<point x="632.403" y="635.377" type="line"/>
			<point x="591.585" y="627.057" type="line"/>
			<point x="580.318" y="658.588" type="line"/>
			<point x="547.109" y="654.305" type="line"/>
			<point x="521.343" y="689.857" type="line"/>
			<point x="479.001" y="678.238" type="line"/>
			<point x="456.968" y="704.315" type="line"/>
			<point x="427.535" y="687.019" type="line"/>
			<point x="396.779" y="722.446" type="line"/>
			<point x="362.948" y="689.943" type="line"/>
			<point x="318.885" y="706.706" type="line"/>
			<point x="278.937" y="681.67" type="line"/>
			<point x="240.328" y="699.765" type="line"/>
			<point x="217.096" y="664.012" type="line"/>
			<point x="172.381" y="680.07" type="line"/>
			<point x="160.199" y="634.147" type="line"/>
			<point x="110.889" y="640.704" type="line"/>
			<point x="112.667" y="590.992" type="line"/>
			<point x="69.341" y="572.134" type="line"/>
			<point x="74.446" y="525.159" type="line"/>
			<point x="46.451" y="505.6" type="line"/>
			<point x="60.965" y="474.687" type="line"/>
			<point x="25.658" y="443.103" type="line"/>
			<point x="56.187" y="406.88" type="line"/>
			<point x="26.869" y="368.946" type="line"/>
			<point x="55.548" y="330.528" type="line"/>
			<point x="32.378" y="293.227" type="line"/>
			<point x="57.196" y="257.002" type="line"/>
			<point x="26.015" y="226.544" type="line"/>
			<point x="64.196" y="205.515" type="line"/>
			<point x="48.709" y="165.977" type="line"/>
			<point x="85.891" y="145.467" type="line"/>
			<point x="76.203" y="96.247" type="line"/>
			<point x="126.086" y="90.929" type="line"/>
			<point x="130.523" y="61.548" type="line"/>
			<point x="160.19" y="63.207" type="line"/>
			<point x="183.059" y="12.95" type="line"/>
			<point x="236.175" y="28.031" type="line"/>
			<point x="252.217" y="-8.608" type="line"/>
			<point x="282.892" y="17.058" type="line"/>
			<point x="310.584" y="-6.022" type="line"/>
		</contour>
		<contour>
			<point x="396.39" y="167.666" type="line"/>
			<point x="354.792" y="188.497" type="line"/>
			<point x="331.482" y="172.02" type="line"/>
			<point x="324.08" y="195.686" type="line"/>
			<point x="299.285" y="195.648" type="line"/>
			<point x="307.182" y="221.84" type="line"/>
			<point x="281.641" y="231.639" type="line"/>
			<point x="290.378" y="253.663" type="line"/>
			<point x="276.731" y="273.031" type="line"/>
			<point x="290.464" y="293.448" type="line"/>
			<point x="275.785" y="313.196" type="line"/>
			<point x="302.943" y="333.476" type="line"/>
			<point x="275.502" y="353.371" type="line"/>
			<point x="285.494" y="373.364" type="line"/>
			<point x="275.888" y="393.545" type="line"/>
			<point x="290.159" y="413.905" type="line"/>
			<point x="277" y="435" type="line"/>
			<point x="294.332" y="452.488" type="line"/>
			<point x="283.634" y="474.664" type="line"/>
			<point x="312.479" y="480.933" type="line"/>
			<point x="303.9" y="509.177" type="line"/>
			<point x="333.022" y="499.997" type="line"/>
			<point x="337.893" y="530.14" type="line"/>
			<point x="360.5" y="514.355" type="line"/>
			<point x="379.059" y="534.745" type="line"/>
			<point x="391.738" y="504.57" type="line"/>
			<point x="417.737" y="524.454" type="line"/>
			<point x="417.476" y="494.463" type="line"/>
			<point x="447.296" y="497.67" type="line"/>
			<point x="429.36" y="468.948" type="line"/>
			<point x="462.139" y="460.452" type="line"/>
			<point x="444.782" y="438.146" type="line"/>
			<point x="465.518" y="418.94" type="line"/>
			<point x="449.129" y="398.518" type="line"/>
			<point x="466.332" y="378.777" type="line"/>
			<point x="443.302" y="358.612" type="line"/>
			<point x="466.471" y="338.607" type="line"/>
			<point x="447.589" y="318.768" type="line"/>
			<point x="465.944" y="298.44" type="line"/>
			<point x="446.641" y="278.306" type="line"/>
			<point x="464.558" y="256.93" type="line"/>
			<point x="447.684" y="240.122" type="line"/>
			<point x="455.659" y="217.681" type="line"/>
			<point x="422.952" y="216.435" type="line"/>
			<point x="432.409" y="185.1" type="line"/>
			<point x="403.726" y="198.436" type="line"/>
		</contour>
		<contour>
			<point x="182.663" y="458.988" type="line"/>
			<point x="194.496" y="443.583" type="line"/>
			<point x="190.388" y="427.564" type="line"/>
			<point x="170.302" y="425.028" type="line"/>
			<point x="166.965" y="445.472" type="line"/>
		</contour>
		<contour>
			<point x="322.399" y="136.852" type="line"/>
			<point x="348.231" y="104.749" type="line"/>
			<point x="335.481" y="70.571" type="line"/>
			<point x="294.726" y="70.076" type="line"/>
			<point x="295.987" y="107.768" type="line"/>
		</contour>
		<contour>
			<point x="177.987" y="236.733" type="line"/>
			<point x="163.84" y="217.206" type="line"/>
			<point x="137.3" y="220.608" type="line"/>
			<point x="133.787" y="251.657" type="line"/>
			<point x="164.993" y="263.877" type="line"/>
		</contour>
		<contour>
			<point x="426.326" y="61.229" type="line"/>
			<point x="431.989" y="40.657" type="line"/>
			<point x="407.584" y="30.175" type="line"/>
			<point x="402" y="53" type="line"/>
			<point x="410.674" y="66.315" type="line"/>
		</contour>
		<contour>
			<point x="615.151" y="497.116" type="line"/>
			<point x="621.669" y="473.565" type="line"/>
			<point x="606.681" y="455.164" type="line"/>
			<point x="583.155" y="467.28" type="line"/>
			<point x="593.088" y="488.702" type="line"/>
		</contour>
		<contour>
			<point x="460.851" y="168.608" type="line"/>
			<point x="467.914" y="149.844" type="line"/>
			<point x="450.162" y="132.015" type="line"/>
			<point x="427.93" y="149.385" type="line"/>
			<point x="442.612" y="168.436" type="line"/>
		</contour>
		<contour>
			<point x="644.613" y="303.863" type="line"/>
			<point x="668.41" y="284.614" type="line"/>
			<point x="656" y="254.751" type="line"/>
			<point x="629.956" y="265.623" type="line"/>
			<point x="620.075" y="288.762" type="line"/>
		</contour>
		<contour>
			<point x="490.847" y="628.927" type="line"/>
			<point x="474.795" y="599.507" type="line"/>
			<point x="439.963" y="605.257" type="line"/>
			<point x="430.957" y="644.5" type="line"/>
			<point x="468.198" y="650.454" type="line"/>
		</contour>
		<contour>
			<point x="387.116" y="644.151" type="line"/>
			<point x="394.791" y="607.084" type="line"/>
			<point x="354.321" y="605.811" type="line"/>
			<point x="330.276" y="637.509" type="line"/>
			<point x="359.368" y="672.265" type="line"/>
		</contour>
		<contour>
			<point x="602.741" y="109.285" type="line"/>
			<point x="588.356" y="93.526" type="line"/>
			<point x="573.515" y="97.515" type="line"/>
			<point x="569.526" y="112.356" type="line"/>
			<point x="584.19" y="119.828" type="line"/>
		</contour>
		<contour>
			<point x="265.951" y="301.395" type="line"/>
			<point x="254.616" y="278.675" type="line"/>
			<point x="230.679" y="287.144" type="line"/>
			<point x="229.887" y="310.068" type="line"/>
			<point x="250.113" y="316.495" type="line"/>
		</contour>
		<contour>
			<point x="256.357" y="195.728" type="line"/>
			<point x="256.397" y="168.678" type="line"/>
			<point x="227" y="167.215" type="line"/>
			<point x="220.415" y="191.95" type="line"/>
			<point x="237.223" y="204.907" type="line"/>
		</contour>
		<contour>
			<point x="523.385" y="337.385" type="line"/>
			<point x="533.512" y="304.472" type="line"/>
			<point x="501.089" y="294.308" type="line"/>
			<point x="484.259" y="315.715" type="line"/>
			<point x="495.466" y="337.711" type="line"/>
		</contour>
		<contour>
			<point x="640.397" y="228.42" type="line"/>
			<point x="637.157" y="217.12" type="line"/>
			<point x="627.645" y="220.026" type="line"/>
			<point x="621.387" y="227.756" type="line"/>
			<point x="630.616" y="235.993" type="line"/>
		</contour>
		<contour>
			<point x="601.757" y="531.778" type="line"/>
			<point x="593.512" y="514.873" type="line"/>
			<point x="578.359" y="521.087" type="line"/>
			<point x="575.214" y="534.26" type="line"/>
			<point x="587.392" y="538.903" type="line"/>
		</contour>
	</outline>
</glyph>
